{
copyright = "Copyright \U00A9 2019 IBM Corp. with Reserved Font Name \"Plex\"\012This Font Software is licensed under the SIL Open Font License, Version 1.1.\012This license is copied below, and is also available with a FAQ at: http://scripts.sil.org/OFL.";
customParameters = (
{
name = licenseURL;
value = "http://scripts.sil.org/OFL";
},
{
name = vendorID;
value = "";
},
{
name = glyphOrder;
value = (
    ".notdef",
    uni0000,
    uni000D,
    space,
    a,
    b,
    c,
    d,
    e,
    f,
    g,
    "g.alt02",
    h,
    i,
    j,
    k,
    l,
    m,
    n,
    o,
    p,
    q,
    r,
    s,
    t,
    u,
    v,
    w,
    x,
    y,
    z,
    A,
    B,
    C,
    D,
    E,
    F,
    G,
    H,
    I,
    J,
    K,
    L,
    M,
    N,
    O,
    P,
    Q,
    R,
    S,
    T,
    U,
    V,
    W,
    X,
    Y,
    Z,
    zero,
    one,
    two,
    three,
    four,
    five,
    six,
    seven,
    eight,
    nine,
    ampersand,
    at,
    hyphen,
    uni00AD,
    endash,
    emdash,
    underscore,
    period,
    ellipsis,
    colon,
    comma,
    semicolon,
    quotesingle,
    quotedbl,
    quoteleft,
    quoteright,
    quotedblleft,
    quotedblright,
    quotesinglbase,
    quotedblbase,
    guilsinglleft,
    guilsinglright,
    guillemotleft,
    guillemotright,
    exclamdown,
    exclam,
    questiondown,
    question,
    parenleft,
    parenright,
    bracketleft,
    bracketright,
    braceleft,
    braceright,
    slash,
    backslash,
    fraction,
    percent,
    perthousand,
    bar,
    brokenbar,
    section,
    paragraph,
    copyright,
    registered,
    trademark,
    ordfeminine,
    ordmasculine,
    degree,
    asterisk,
    dagger,
    daggerdbl,
    numbersign,
    asciicircum,
    asciitilde,
    plus,
    minus,
    plusminus,
    multiply,
    divide,
    equal,
    approxequal,
    notequal,
    less,
    greater,
    lessequal,
    greaterequal,
    periodcentered,
    bullet,
    lozenge,
    logicalnot,

glyphs = (
{
glyphname = .notdef;
layers = (
{
layerId = "5AF1D23B-5AA5-4E46-9E7A-B01C8844A7CF";
name = Light;
paths = (
{
closed = 1;
nodes = (
"32 0 LINE",
"32 780 LINE",
"440 780 LINE",
"440 0 LINE"
);
},
{
closed = 1;
nodes = (
"75 43 LINE",
"397 43 LINE",
"397 737 LINE",
"75 737 LINE"
);
}
);
width = 472;
}
);
},
{
glyphname = a;
lastChange = "2018-11-02 02:17:07 +0000";
layers = (
{
layerId = "5AF1D23B-5AA5-4E46-9E7A-B01C8844A7CF";
name = Light;
paths = (
{
closed = 1;
nodes = (
"155 524 OFFCURVE",
"98 481 OFFCURVE",
"70 421 CURVE",
"106 391 LINE",
"134 444 OFFCURVE",
"178 474 OFFCURVE",
"246 474 CURVE SMOOTH",
"333 474 OFFCURVE",
"377 432 OFFCURVE",
"377 347 CURVE SMOOTH",
"377 287 LINE",
"259 287 LINE SMOOTH",
"111 287 OFFCURVE",
"51 230 OFFCURVE",
"51 139 CURVE SMOOTH",
"51 43 OFFCURVE",
"112 -12 OFFCURVE",
"220 -12 CURVE SMOOTH",
"300 -12 OFFCURVE",
"352 24 OFFCURVE",
"375 81 CURVE",
"380 81 LINE",
"380 0 LINE",
"434 0 LINE",
"434 353 LINE SMOOTH",
"434 461 OFFCURVE",
"368 524 OFFCURVE",
"248 524 CURVE SMOOTH"
);
},
{
closed = 1;
nodes = (
"377 114 OFFCURVE",
"361 87 OFFCURVE",
"334 68 CURVE SMOOTH",
"306 48 OFFCURVE",
"269 37 OFFCURVE",
"228 37 CURVE SMOOTH",
"157 37 OFFCURVE",
"111 68 OFFCURVE",
"111 128 CURVE SMOOTH",
"111 152 LINE SMOOTH",
"111 209 OFFCURVE",
"154 244 OFFCURVE",
"257 244 CURVE SMOOTH",
"377 244 LINE",
"377 149 LINE SMOOTH"
);
}
);
width = 520;
}
);
leftKerningGroup = a;
rightKerningGroup = a;
unicode = 0061;
},
{
glyphname = b;
layers = (
{
layerId = "5AF1D23B-5AA5-4E46-9E7A-B01C8844A7CF";
name = Light;
paths = (
{
closed = 1;
nodes = (
"93 740 LINE",
"150 740 LINE",
"150 430 LINE",
"153 430 LINE",
"178 487 OFFCURVE",
"230 524 OFFCURVE",
"309 524 CURVE SMOOTH",
"441 524 OFFCURVE",
"520 427 OFFCURVE",
"520 256 CURVE SMOOTH",
"520 85 OFFCURVE",
"441 -12 OFFCURVE",
"309 -12 CURVE SMOOTH",
"230 -12 OFFCURVE",
"181 25 OFFCURVE",
"153 82 CURVE",
"150 82 LINE",
"150 0 LINE",
"93 0 LINE"
);
},
{
closed = 1;
nodes = (
"399 39 OFFCURVE",
"459 109 OFFCURVE",
"459 220 CURVE SMOOTH",
"459 292 LINE SMOOTH",
"459 403 OFFCURVE",
"399 473 OFFCURVE",
"296 473 CURVE SMOOTH",
"256 473 OFFCURVE",
"220 461 OFFCURVE",
"193 441 CURVE SMOOTH",
"166 421 OFFCURVE",
"150 392 OFFCURVE",
"150 359 CURVE SMOOTH",
"150 156 LINE SMOOTH",
"150 120 OFFCURVE",
"166 91 OFFCURVE",
"193 71 CURVE SMOOTH",
"220 50 OFFCURVE",
"256 39 OFFCURVE",
"296 39 CURVE SMOOTH"
);
}
);
width = 574;
}
);
leftKerningGroup = b;
rightKerningGroup = b;
unicode = 0062;
},
{
glyphname = c;
layers = (
{
layerId = "5AF1D23B-5AA5-4E46-9E7A-B01C8844A7CF";
name = Light;
paths = (
{
closed = 1;
nodes = (
"132 -12 OFFCURVE",
"52 85 OFFCURVE",
"52 256 CURVE SMOOTH",
"52 427 OFFCURVE",
"132 524 OFFCURVE",
"273 524 CURVE SMOOTH",
"368 524 OFFCURVE",
"424 479 OFFCURVE",
"455 411 CURVE",
"407 387 LINE",
"383 443 OFFCURVE",
"341 473 OFFCURVE",
"273 473 CURVE SMOOTH",
"169 473 OFFCURVE",
"113 400 OFFCURVE",
"113 292 CURVE SMOOTH",
"113 220 LINE SMOOTH",
"113 112 OFFCURVE",
"169 39 OFFCURVE",
"273 39 CURVE SMOOTH",
"344 39 OFFCURVE",
"391 71 OFFCURVE",
"420 128 CURVE",
"462 100 LINE",
"429 32 OFFCURVE",
"368 -12 OFFCURVE",
"273 -12 CURVE SMOOTH"
);
}
);
width = 496;
}
);
leftKerningGroup = c;
rightKerningGroup = c;
unicode = 0063;
},
{
glyphname = d;
layers = (
{
layerId = "5AF1D23B-5AA5-4E46-9E7A-B01C8844A7CF";
name = Light;
paths = (
{
closed = 1;
nodes = (
"424 82 LINE",
"421 82 LINE",
"394 25 OFFCURVE",
"344 -12 OFFCURVE",
"265 -12 CURVE SMOOTH",
"133 -12 OFFCURVE",
"54 85 OFFCURVE",
"54 256 CURVE SMOOTH",
"54 427 OFFCURVE",
"133 524 OFFCURVE",
"265 524 CURVE SMOOTH",
"344 524 OFFCURVE",
"396 487 OFFCURVE",
"421 430 CURVE",
"424 430 LINE",
"424 740 LINE",
"481 740 LINE",
"481 0 LINE",
"424 0 LINE"
);
},
{
closed = 1;
nodes = (
"318 39 OFFCURVE",
"354 50 OFFCURVE",
"381 71 CURVE SMOOTH",
"408 91 OFFCURVE",
"424 120 OFFCURVE",
"424 156 CURVE SMOOTH",
"424 359 LINE SMOOTH",
"424 392 OFFCURVE",
"408 421 OFFCURVE",
"381 441 CURVE SMOOTH",
"354 461 OFFCURVE",
"318 473 OFFCURVE",
"278 473 CURVE SMOOTH",
"175 473 OFFCURVE",
"115 403 OFFCURVE",
"115 292 CURVE SMOOTH",
"115 220 LINE SMOOTH",
"115 109 OFFCURVE",
"175 39 OFFCURVE",
"278 39 CURVE SMOOTH"
);
}
);
width = 574;
}
);
leftKerningGroup = d;
unicode = 0064;
},
{
glyphname = e;
lastChange = "2018-11-07 04:35:25 +0000";
layers = (
{
layerId = "5AF1D23B-5AA5-4E46-9E7A-B01C8844A7CF";
name = Light;
paths = (
{
closed = 1;
nodes = (
"208 -12 OFFCURVE",
"152 13 OFFCURVE",
"113 59 CURVE SMOOTH",
"73 105 OFFCURVE",
"52 172 OFFCURVE",
"52 256 CURVE SMOOTH",
"52 340 OFFCURVE",
"73 407 OFFCURVE",
"113 453 CURVE SMOOTH",
"152 499 OFFCURVE",
"207 524 OFFCURVE",
"275 524 CURVE SMOOTH",
"340 524 OFFCURVE",
"395 498 OFFCURVE",
"432 454 CURVE SMOOTH",
"469 410 OFFCURVE",
"491 347 OFFCURVE",
"491 272 CURVE SMOOTH",
"491 245 LINE",
"112 245 LINE",
"112 220 LINE SMOOTH",
"112 167 OFFCURVE",
"128 121 OFFCURVE",
"157 89 CURVE SMOOTH",
"185 57 OFFCURVE",
"227 38 OFFCURVE",
"279 38 CURVE SMOOTH",
"354 38 OFFCURVE",
"405 72 OFFCURVE",
"434 141 CURVE",
"476 113 LINE",
"444 37 OFFCURVE",
"373 -12 OFFCURVE",
"276 -12 CURVE SMOOTH"
);
},
{
closed = 1;
nodes = (
"226 476 OFFCURVE",
"185 457 OFFCURVE",
"157 425 CURVE SMOOTH",
"128 393 OFFCURVE",
"112 347 OFFCURVE",
"112 294 CURVE SMOOTH",
"112 289 LINE",
"429 289 LINE",
"429 297 LINE SMOOTH",
"429 350 OFFCURVE",
"414 396 OFFCURVE",
"387 427 CURVE SMOOTH",
"359 458 OFFCURVE",
"320 476 OFFCURVE",
"275 476 CURVE SMOOTH"
);
}
);
width = 543;
}
);
leftKerningGroup = c;
rightKerningGroup = e;
unicode = 0065;
},
{
glyphname = f;
layers = (
{
layerId = "5AF1D23B-5AA5-4E46-9E7A-B01C8844A7CF";
name = Light;
paths = (
{
closed = 1;
nodes = (
"117 462 LINE",
"29 462 LINE",
"29 512 LINE",
"117 512 LINE",
"117 655 LINE SMOOTH",
"117 707 OFFCURVE",
"142 740 OFFCURVE",
"197 740 CURVE SMOOTH",
"287 740 LINE",
"287 690 LINE",
"174 690 LINE",
"174 512 LINE",
"287 512 LINE",
"287 462 LINE",
"174 462 LINE",
"174 0 LINE",
"117 0 LINE"
);
}
);
width = 309;
}
);
leftKerningGroup = f;
rightKerningGroup = f;
unicode = 0066;
},
{
glyphname = g;
lastChange = "2018-11-05 19:17:55 +0000";
layers = (
{
layerId = "5AF1D23B-5AA5-4E46-9E7A-B01C8844A7CF";
name = Light;
paths = (
{
closed = 1;
nodes = (
"481 512 LINE",
"424 512 LINE",
"424 430 LINE",
"421 430 LINE",
"396 487 OFFCURVE",
"343 524 OFFCURVE",
"265 524 CURVE SMOOTH",
"135 524 OFFCURVE",
"54 425 OFFCURVE",
"54 256 CURVE SMOOTH",
"54 87 OFFCURVE",
"135 -12 OFFCURVE",
"265 -12 CURVE SMOOTH",
"343 -12 OFFCURVE",
"394 26 OFFCURVE",
"421 82 CURVE",
"424 82 LINE",
"424 3 LINE SMOOTH",
"424 -106 OFFCURVE",
"368 -162 OFFCURVE",
"266 -162 CURVE SMOOTH",
"197 -162 OFFCURVE",
"154 -141 OFFCURVE",
"118 -103 CURVE",
"84 -143 LINE",
"125 -185 OFFCURVE",
"181 -212 OFFCURVE",
"265 -212 CURVE SMOOTH",
"404 -212 OFFCURVE",
"481 -131 OFFCURVE",
"481 6 CURVE SMOOTH"
);
},
{
closed = 1;
nodes = (
"176 39 OFFCURVE",
"115 110 OFFCURVE",
"115 220 CURVE SMOOTH",
"115 292 LINE SMOOTH",
"115 402 OFFCURVE",
"176 473 OFFCURVE",
"278 473 CURVE SMOOTH",
"357 473 OFFCURVE",
"424 426 OFFCURVE",
"424 359 CURVE SMOOTH",
"424 156 LINE SMOOTH",
"424 84 OFFCURVE",
"357 39 OFFCURVE",
"278 39 CURVE SMOOTH"
);
}
);
width = 574;
}
);
leftKerningGroup = g;
rightKerningGroup = g;
unicode = 0067;
},
{
glyphname = h;
layers = (
{
layerId = "5AF1D23B-5AA5-4E46-9E7A-B01C8844A7CF";
name = Light;
paths = (
{
closed = 1;
nodes = (
"93 740 LINE",
"150 740 LINE",
"150 431 LINE",
"153 431 LINE",
"176 484 OFFCURVE",
"221 524 OFFCURVE",
"304 524 CURVE SMOOTH",
"413 524 OFFCURVE",
"477 454 OFFCURVE",
"477 329 CURVE SMOOTH",
"477 0 LINE",
"420 0 LINE",
"420 319 LINE SMOOTH",
"420 423 OFFCURVE",
"374 473 OFFCURVE",
"289 473 CURVE SMOOTH",
"253 473 OFFCURVE",
"219 464 OFFCURVE",
"193 445 CURVE SMOOTH",
"167 426 OFFCURVE",
"150 397 OFFCURVE",
"150 360 CURVE SMOOTH",
"150 0 LINE",
"93 0 LINE"
);
}
);
width = 563;
}
);
leftKerningGroup = b;
rightKerningGroup = h;
unicode = 0068;
},
{
glyphname = i;
layers = (
{
layerId = "5AF1D23B-5AA5-4E46-9E7A-B01C8844A7CF";
name = Light;
paths = (
{
closed = 1;
nodes = (
"94 651 OFFCURVE",
"82 666 OFFCURVE",
"82 687 CURVE SMOOTH",
"82 697 LINE SMOOTH",
"82 718 OFFCURVE",
"94 733 OFFCURVE",
"121 733 CURVE SMOOTH",
"148 733 OFFCURVE",
"160 718 OFFCURVE",
"160 697 CURVE SMOOTH",
"160 687 LINE SMOOTH",
"160 666 OFFCURVE",
"148 651 OFFCURVE",
"121 651 CURVE SMOOTH"
);
},
{
closed = 1;
nodes = (
"93 512 LINE",
"150 512 LINE",
"150 0 LINE",
"93 0 LINE"
);
}
);
width = 243;
}
);
leftKerningGroup = i;
rightKerningGroup = i;
unicode = 0069;
},
{
glyphname = j;
layers = (
{
layerId = "5AF1D23B-5AA5-4E46-9E7A-B01C8844A7CF";
name = Light;
paths = (
{
closed = 1;
nodes = (
"93 512 LINE",
"150 512 LINE",
"150 -115 LINE SMOOTH",
"150 -167 OFFCURVE",
"126 -200 OFFCURVE",
"70 -200 CURVE SMOOTH",
"8 -200 LINE",
"8 -150 LINE",
"93 -150 LINE"
);
},
{
closed = 1;
nodes = (
"94 651 OFFCURVE",
"82 666 OFFCURVE",
"82 687 CURVE SMOOTH",
"82 697 LINE SMOOTH",
"82 718 OFFCURVE",
"94 733 OFFCURVE",
"121 733 CURVE SMOOTH",
"148 733 OFFCURVE",
"160 718 OFFCURVE",
"160 697 CURVE SMOOTH",
"160 687 LINE SMOOTH",
"160 666 OFFCURVE",
"148 651 OFFCURVE",
"121 651 CURVE SMOOTH"
);
}
);
width = 243;
}
);
leftKerningGroup = j;
rightKerningGroup = j;
unicode = 006A;
},
{
glyphname = k;
layers = (
{
layerId = "5AF1D23B-5AA5-4E46-9E7A-B01C8844A7CF";
name = Light;
paths = (
{
closed = 1;
nodes = (
"93 740 LINE",
"150 740 LINE",
"150 251 LINE",
"153 251 LINE",
"233 336 LINE",
"403 512 LINE",
"473 512 LINE",
"272 304 LINE",
"495 0 LINE",
"425 0 LINE",
"231 268 LINE",
"150 186 LINE",
"150 0 LINE",
"93 0 LINE"
);
}
);
width = 513;
}
);
leftKerningGroup = b;
rightKerningGroup = k;
unicode = 006B;
},
{
glyphname = l;
lastChange = "2018-11-02 14:42:43 +0000";
layers = (
{
layerId = "5AF1D23B-5AA5-4E46-9E7A-B01C8844A7CF";
name = Light;
paths = (
{
closed = 1;
nodes = (
"156 0 LINE SMOOTH",
"115 0 OFFCURVE",
"93 25 OFFCURVE",
"93 62 CURVE SMOOTH",
"93 740 LINE",
"150 740 LINE",
"150 50 LINE",
"229 50 LINE",
"229 0 LINE"
);
}
);
width = 264;
}
);
leftKerningGroup = l;
rightKerningGroup = l;
unicode = 006C;
},
{
glyphname = m;
layers = (
{
layerId = "5AF1D23B-5AA5-4E46-9E7A-B01C8844A7CF";
name = Light;
paths = (
{
closed = 1;
nodes = (
"93 0 LINE",
"93 512 LINE",
"150 512 LINE",
"150 431 LINE",
"153 431 LINE",
"164 456 OFFCURVE",
"179 479 OFFCURVE",
"202 496 CURVE SMOOTH",
"225 513 OFFCURVE",
"255 524 OFFCURVE",
"298 524 CURVE SMOOTH",
"371 524 OFFCURVE",
"431 491 OFFCURVE",
"456 416 CURVE",
"459 416 LINE",
"478 476 OFFCURVE",
"529 524 OFFCURVE",
"620 524 CURVE SMOOTH",
"729 524 OFFCURVE",
"790 454 OFFCURVE",
"790 329 CURVE SMOOTH",
"790 0 LINE",
"733 0 LINE",
"733 319 LINE SMOOTH",
"733 422 OFFCURVE",
"690 473 OFFCURVE",
"604 473 CURVE SMOOTH",
"568 473 OFFCURVE",
"535 464 OFFCURVE",
"511 445 CURVE SMOOTH",
"486 425 OFFCURVE",
"470 396 OFFCURVE",
"470 359 CURVE SMOOTH",
"470 0 LINE",
"413 0 LINE",
"413 319 LINE SMOOTH",
"413 422 OFFCURVE",
"370 473 OFFCURVE",
"285 473 CURVE SMOOTH",
"250 473 OFFCURVE",
"216 464 OFFCURVE",
"191 445 CURVE SMOOTH",
"166 426 OFFCURVE",
"150 397 OFFCURVE",
"150 360 CURVE SMOOTH",
"150 0 LINE"
);
}
);
width = 876;
}
);
leftKerningGroup = m;
rightKerningGroup = h;
unicode = 006D;
},
{
glyphname = n;
layers = (
{
layerId = "5AF1D23B-5AA5-4E46-9E7A-B01C8844A7CF";
name = Light;
paths = (
{
closed = 1;
nodes = (
"93 0 LINE",
"93 512 LINE",
"150 512 LINE",
"150 431 LINE",
"153 431 LINE",
"176 484 OFFCURVE",
"221 524 OFFCURVE",
"304 524 CURVE SMOOTH",
"413 524 OFFCURVE",
"477 454 OFFCURVE",
"477 329 CURVE SMOOTH",
"477 0 LINE",
"420 0 LINE",
"420 319 LINE SMOOTH",
"420 423 OFFCURVE",
"374 473 OFFCURVE",
"289 473 CURVE SMOOTH",
"253 473 OFFCURVE",
"219 464 OFFCURVE",
"193 445 CURVE SMOOTH",
"167 426 OFFCURVE",
"150 397 OFFCURVE",
"150 360 CURVE SMOOTH",
"150 0 LINE"
);
}
);
width = 563;
}
);
leftKerningGroup = m;
rightKerningGroup = h;
unicode = 006E;
},
{
glyphname = o;
lastChange = "2018-11-07 04:35:06 +0000";
layers = (
{
layerId = "5AF1D23B-5AA5-4E46-9E7A-B01C8844A7CF";
name = Light;
paths = (
{
closed = 1;
nodes = (
"207 -12 OFFCURVE",
"152 13 OFFCURVE",
"113 59 CURVE SMOOTH",
"74 105 OFFCURVE",
"52 172 OFFCURVE",
"52 256 CURVE SMOOTH",
"52 340 OFFCURVE",
"74 407 OFFCURVE",
"113 453 CURVE SMOOTH",
"152 499 OFFCURVE",
"207 524 OFFCURVE",
"275 524 CURVE SMOOTH",
"343 524 OFFCURVE",
"398 499 OFFCURVE",
"437 453 CURVE SMOOTH",
"476 407 OFFCURVE",
"498 340 OFFCURVE",
"498 256 CURVE SMOOTH",
"498 172 OFFCURVE",
"476 105 OFFCURVE",
"437 59 CURVE SMOOTH",
"398 13 OFFCURVE",
"343 -12 OFFCURVE",
"275 -12 CURVE SMOOTH"
);
},
{
closed = 1;
nodes = (
"375 39 OFFCURVE",
"437 103 OFFCURVE",
"437 224 CURVE SMOOTH",
"437 288 LINE SMOOTH",
"437 408 OFFCURVE",
"375 473 OFFCURVE",
"275 473 CURVE SMOOTH",
"175 473 OFFCURVE",
"113 409 OFFCURVE",
"113 288 CURVE SMOOTH",
"113 224 LINE SMOOTH",
"113 104 OFFCURVE",
"175 39 OFFCURVE",
"275 39 CURVE SMOOTH"
);
}
);
width = 550;
}
);
leftKerningGroup = c;
rightKerningGroup = o;
unicode = 006F;
},
{
glyphname = p;
layers = (
{
layerId = "5AF1D23B-5AA5-4E46-9E7A-B01C8844A7CF";
name = Light;
paths = (
{
closed = 1;
nodes = (
"93 512 LINE",
"150 512 LINE",
"150 430 LINE",
"153 430 LINE",
"178 487 OFFCURVE",
"230 524 OFFCURVE",
"309 524 CURVE SMOOTH",
"441 524 OFFCURVE",
"520 427 OFFCURVE",
"520 256 CURVE SMOOTH",
"520 85 OFFCURVE",
"441 -12 OFFCURVE",
"309 -12 CURVE SMOOTH",
"230 -12 OFFCURVE",
"181 25 OFFCURVE",
"153 82 CURVE",
"150 82 LINE",
"150 -200 LINE",
"93 -200 LINE"
);
},
{
closed = 1;
nodes = (
"399 39 OFFCURVE",
"459 109 OFFCURVE",
"459 220 CURVE SMOOTH",
"459 292 LINE SMOOTH",
"459 403 OFFCURVE",
"399 473 OFFCURVE",
"296 473 CURVE SMOOTH",
"256 473 OFFCURVE",
"220 461 OFFCURVE",
"193 441 CURVE SMOOTH",
"166 421 OFFCURVE",
"150 392 OFFCURVE",
"150 359 CURVE SMOOTH",
"150 156 LINE SMOOTH",
"150 120 OFFCURVE",
"166 91 OFFCURVE",
"193 71 CURVE SMOOTH",
"220 50 OFFCURVE",
"256 39 OFFCURVE",
"296 39 CURVE SMOOTH"
);
}
);
width = 574;
}
);
leftKerningGroup = p;
rightKerningGroup = b;
unicode = 0070;
},
{
glyphname = q;
layers = (
{
layerId = "5AF1D23B-5AA5-4E46-9E7A-B01C8844A7CF";
name = Light;
paths = (
{
closed = 1;
nodes = (
"424 82 LINE",
"421 82 LINE",
"394 25 OFFCURVE",
"344 -12 OFFCURVE",
"265 -12 CURVE SMOOTH",
"133 -12 OFFCURVE",
"54 85 OFFCURVE",
"54 256 CURVE SMOOTH",
"54 427 OFFCURVE",
"133 524 OFFCURVE",
"265 524 CURVE SMOOTH",
"344 524 OFFCURVE",
"396 487 OFFCURVE",
"421 430 CURVE",
"424 430 LINE",
"424 512 LINE",
"481 512 LINE",
"481 -200 LINE",
"424 -200 LINE"
);
},
{
closed = 1;
nodes = (
"318 39 OFFCURVE",
"354 50 OFFCURVE",
"381 71 CURVE SMOOTH",
"408 91 OFFCURVE",
"424 120 OFFCURVE",
"424 156 CURVE SMOOTH",
"424 359 LINE SMOOTH",
"424 392 OFFCURVE",
"408 421 OFFCURVE",
"381 441 CURVE SMOOTH",
"354 461 OFFCURVE",
"318 473 OFFCURVE",
"278 473 CURVE SMOOTH",
"175 473 OFFCURVE",
"115 403 OFFCURVE",
"115 292 CURVE SMOOTH",
"115 220 LINE SMOOTH",
"115 109 OFFCURVE",
"175 39 OFFCURVE",
"278 39 CURVE SMOOTH"
);
}
);
width = 574;
}
);
leftKerningGroup = d;
rightKerningGroup = j;
unicode = 0071;
},
{
glyphname = r;
layers = (
{
layerId = "5AF1D23B-5AA5-4E46-9E7A-B01C8844A7CF";
name = Light;
paths = (
{
closed = 1;
nodes = (
"93 0 LINE",
"93 512 LINE",
"150 512 LINE",
"150 420 LINE",
"154 420 LINE",
"174 468 OFFCURVE",
"219 512 OFFCURVE",
"307 512 CURVE SMOOTH",
"341 512 LINE",
"341 456 LINE",
"296 456 LINE SMOOTH",
"211 456 OFFCURVE",
"150 417 OFFCURVE",
"150 350 CURVE SMOOTH",
"150 0 LINE"
);
}
);
width = 357;
}
);
leftKerningGroup = m;
rightKerningGroup = r;
unicode = 0072;
},
{
glyphname = s;
layers = (
{
layerId = "5AF1D23B-5AA5-4E46-9E7A-B01C8844A7CF";
name = Light;
paths = (
{
closed = 1;
nodes = (
"149 -12 OFFCURVE",
"88 22 OFFCURVE",
"41 86 CURVE",
"83 119 LINE",
"126 63 OFFCURVE",
"174 37 OFFCURVE",
"242 37 CURVE SMOOTH",
"321 37 OFFCURVE",
"365 71 OFFCURVE",
"365 134 CURVE SMOOTH",
"365 189 OFFCURVE",
"335 219 OFFCURVE",
"260 230 CURVE SMOOTH",
"218 237 LINE SMOOTH",
"171 244 OFFCURVE",
"132 256 OFFCURVE",
"105 279 CURVE SMOOTH",
"77 302 OFFCURVE",
"61 333 OFFCURVE",
"61 380 CURVE SMOOTH",
"61 428 OFFCURVE",
"80 464 OFFCURVE",
"111 488 CURVE SMOOTH",
"142 512 OFFCURVE",
"186 524 OFFCURVE",
"235 524 CURVE SMOOTH",
"320 524 OFFCURVE",
"371 492 OFFCURVE",
"410 445 CURVE",
"372 410 LINE",
"345 442 OFFCURVE",
"303 475 OFFCURVE",
"232 475 CURVE SMOOTH",
"159 475 OFFCURVE",
"116 442 OFFCURVE",
"116 383 CURVE SMOOTH",
"116 323 OFFCURVE",
"153 301 OFFCURVE",
"226 289 CURVE SMOOTH",
"267 283 LINE SMOOTH",
"371 267 OFFCURVE",
"420 223 OFFCURVE",
"420 140 CURVE SMOOTH",
"420 44 OFFCURVE",
"351 -12 OFFCURVE",
"238 -12 CURVE SMOOTH"
);
}
);
width = 477;
}
);
leftKerningGroup = s;
rightKerningGroup = s;
unicode = 0073;
},
{
glyphname = t;
layers = (
{
layerId = "5AF1D23B-5AA5-4E46-9E7A-B01C8844A7CF";
name = Light;
paths = (
{
closed = 1;
nodes = (
"181 0 LINE SMOOTH",
"140 0 OFFCURVE",
"118 24 OFFCURVE",
"118 63 CURVE SMOOTH",
"118 462 LINE",
"29 462 LINE",
"29 512 LINE",
"87 512 LINE SMOOTH",
"115 512 OFFCURVE",
"123 522 OFFCURVE",
"123 551 CURVE SMOOTH",
"123 655 LINE",
"175 655 LINE",
"175 512 LINE",
"291 512 LINE",
"291 462 LINE",
"175 462 LINE",
"175 50 LINE",
"283 50 LINE",
"283 0 LINE"
);
}
);
width = 335;
}
);
leftKerningGroup = t;
rightKerningGroup = t;
unicode = 0074;
},
{
glyphname = u;
layers = (
{
layerId = "5AF1D23B-5AA5-4E46-9E7A-B01C8844A7CF";
name = Light;
paths = (
{
closed = 1;
nodes = (
"413 81 LINE",
"409 81 LINE",
"400 57 OFFCURVE",
"384 33 OFFCURVE",
"360 17 CURVE SMOOTH",
"336 0 OFFCURVE",
"304 -12 OFFCURVE",
"260 -12 CURVE SMOOTH",
"151 -12 OFFCURVE",
"86 58 OFFCURVE",
"86 183 CURVE SMOOTH",
"86 512 LINE",
"143 512 LINE",
"143 194 LINE SMOOTH",
"143 89 OFFCURVE",
"190 39 OFFCURVE",
"275 39 CURVE SMOOTH",
"311 39 OFFCURVE",
"345 48 OFFCURVE",
"371 67 CURVE SMOOTH",
"397 86 OFFCURVE",
"413 114 OFFCURVE",
"413 153 CURVE SMOOTH",
"413 512 LINE",
"470 512 LINE",
"470 0 LINE",
"413 0 LINE"
);
}
);
width = 563;
}
);
leftKerningGroup = u;
rightKerningGroup = u;
unicode = 0075;
},
{
glyphname = v;
layers = (
{
layerId = "5AF1D23B-5AA5-4E46-9E7A-B01C8844A7CF";
name = Light;
paths = (
{
closed = 1;
nodes = (
"21 512 LINE",
"81 512 LINE",
"238 61 LINE",
"242 61 LINE",
"398 512 LINE",
"456 512 LINE",
"271 0 LINE",
"206 0 LINE"
);
}
);
width = 476;
}
);
leftKerningGroup = v;
rightKerningGroup = v;
unicode = 0076;
},
{
glyphname = w;
layers = (
{
layerId = "5AF1D23B-5AA5-4E46-9E7A-B01C8844A7CF";
name = Light;
paths = (
{
closed = 1;
nodes = (
"33 512 LINE",
"89 512 LINE",
"212 51 LINE",
"214 51 LINE",
"350 512 LINE",
"403 512 LINE",
"540 51 LINE",
"542 51 LINE",
"664 512 LINE",
"719 512 LINE",
"575 0 LINE",
"505 0 LINE",
"376 431 LINE",
"374 431 LINE",
"246 0 LINE",
"177 0 LINE"
);
}
);
width = 752;
}
);
leftKerningGroup = w;
rightKerningGroup = w;
unicode = 0077;
},
{
glyphname = x;
layers = (
{
layerId = "5AF1D23B-5AA5-4E46-9E7A-B01C8844A7CF";
name = Light;
paths = (
{
closed = 1;
nodes = (
"26 0 LINE",
"216 258 LINE",
"33 512 LINE",
"100 512 LINE",
"246 303 LINE",
"249 303 LINE",
"398 512 LINE",
"462 512 LINE",
"280 262 LINE",
"467 0 LINE",
"400 0 LINE",
"249 216 LINE",
"247 216 LINE",
"90 0 LINE"
);
}
);
width = 493;
}
);
leftKerningGroup = x;
rightKerningGroup = x;
unicode = 0078;
},
{
glyphname = y;
layers = (
{
layerId = "5AF1D23B-5AA5-4E46-9E7A-B01C8844A7CF";
name = Light;
paths = (
{
closed = 1;
nodes = (
"399 512 LINE",
"457 512 LINE",
"220 -144 LINE SMOOTH",
"204 -187 OFFCURVE",
"187 -200 OFFCURVE",
"135 -200 CURVE SMOOTH",
"77 -200 LINE",
"77 -150 LINE",
"163 -150 LINE",
"212 -15 LINE",
"22 512 LINE",
"82 512 LINE",
"239 61 LINE",
"243 61 LINE"
);
}
);
width = 479;
}
);
leftKerningGroup = y;
rightKerningGroup = y;
unicode = 0079;
},
{
glyphname = z;
layers = (
{
layerId = "5AF1D23B-5AA5-4E46-9E7A-B01C8844A7CF";
name = Light;
paths = (
{
closed = 1;
nodes = (
"31 0 LINE",
"31 49 LINE",
"341 462 LINE",
"40 462 LINE",
"40 512 LINE",
"409 512 LINE",
"409 467 LINE",
"95 50 LINE",
"417 50 LINE",
"417 0 LINE"
);
}
);
width = 446;
}
);
leftKerningGroup = z;
rightKerningGroup = z;
unicode = 007A;
},
{
glyphname = A;
layers = (
{
layerId = "5AF1D23B-5AA5-4E46-9E7A-B01C8844A7CF";
name = Light;
paths = (
{
closed = 1;
nodes = (
"536 0 LINE",
"460 217 LINE",
"163 217 LINE",
"87 0 LINE",
"27 0 LINE",
"274 698 LINE",
"351 698 LINE",
"599 0 LINE"
);
},
{
closed = 1;
nodes = (
"313 641 LINE",
"309 641 LINE",
"178 269 LINE",
"444 269 LINE"
);
}
);
width = 625;
}
);
leftKerningGroup = A;
rightKerningGroup = A;
unicode = 0041;
},
{
glyphname = B;
layers = (
{
layerId = "5AF1D23B-5AA5-4E46-9E7A-B01C8844A7CF";
name = Light;
paths = (
{
closed = 1;
nodes = (
"99 698 LINE",
"372 698 LINE SMOOTH",
"481 698 OFFCURVE",
"547 633 OFFCURVE",
"547 522 CURVE SMOOTH",
"547 474 OFFCURVE",
"533 438 OFFCURVE",
"513 414 CURVE SMOOTH",
"493 390 OFFCURVE",
"465 375 OFFCURVE",
"440 370 CURVE",
"440 366 LINE",
"472 362 OFFCURVE",
"506 347 OFFCURVE",
"531 320 CURVE SMOOTH",
"556 292 OFFCURVE",
"574 252 OFFCURVE",
"574 197 CURVE SMOOTH",
"574 140 OFFCURVE",
"557 91 OFFCURVE",
"526 56 CURVE SMOOTH",
"494 20 OFFCURVE",
"450 0 OFFCURVE",
"397 0 CURVE SMOOTH",
"99 0 LINE"
);
},
{
closed = 1;
nodes = (
"159 53 LINE",
"381 53 LINE SMOOTH",
"465 53 OFFCURVE",
"510 104 OFFCURVE",
"510 177 CURVE SMOOTH",
"510 214 LINE SMOOTH",
"510 286 OFFCURVE",
"465 337 OFFCURVE",
"381 337 CURVE SMOOTH",
"159 337 LINE"
);
},
{
closed = 1;
nodes = (
"159 389 LINE",
"366 389 LINE SMOOTH",
"442 389 OFFCURVE",
"483 434 OFFCURVE",
"483 498 CURVE SMOOTH",
"483 536 LINE SMOOTH",
"483 600 OFFCURVE",
"442 645 OFFCURVE",
"366 645 CURVE SMOOTH",
"159 645 LINE"
);
}
);
width = 638;
}
);
unicode = 0042;
},
{
glyphname = C;
layers = (
{
layerId = "5AF1D23B-5AA5-4E46-9E7A-B01C8844A7CF";
name = Light;
paths = (
{
closed = 1;
nodes = (
"162 -12 OFFCURVE",
"63 110 OFFCURVE",
"63 347 CURVE SMOOTH",
"63 583 OFFCURVE",
"162 710 OFFCURVE",
"335 710 CURVE SMOOTH",
"447 710 OFFCURVE",
"523 653 OFFCURVE",
"566 561 CURVE",
"517 532 LINE",
"486 608 OFFCURVE",
"423 656 OFFCURVE",
"335 656 CURVE SMOOTH",
"204 656 OFFCURVE",
"127 559 OFFCURVE",
"127 386 CURVE SMOOTH",
"127 307 LINE SMOOTH",
"127 135 OFFCURVE",
"204 42 OFFCURVE",
"335 42 CURVE SMOOTH",
"428 42 OFFCURVE",
"491 93 OFFCURVE",
"522 173 CURVE",
"571 144 LINE",
"530 48 OFFCURVE",
"448 -12 OFFCURVE",
"335 -12 CURVE SMOOTH"
);
}
);
width = 617;
}
);
leftKerningGroup = C;
rightKerningGroup = C;
unicode = 0043;
},
{
glyphname = D;
layers = (
{
layerId = "5AF1D23B-5AA5-4E46-9E7A-B01C8844A7CF";
name = Light;
paths = (
{
closed = 1;
nodes = (
"99 698 LINE",
"321 698 LINE SMOOTH",
"501 698 OFFCURVE",
"603 582 OFFCURVE",
"603 349 CURVE SMOOTH",
"603 116 OFFCURVE",
"501 0 OFFCURVE",
"321 0 CURVE SMOOTH",
"99 0 LINE"
);
},
{
closed = 1;
nodes = (
"322 53 LINE SMOOTH",
"459 53 OFFCURVE",
"539 147 OFFCURVE",
"539 303 CURVE SMOOTH",
"539 395 LINE SMOOTH",
"539 551 OFFCURVE",
"459 645 OFFCURVE",
"322 645 CURVE SMOOTH",
"159 645 LINE",
"159 53 LINE"
);
}
);
width = 666;
}
);
rightKerningGroup = D;
unicode = 0044;
},
{
glyphname = E;
layers = (
{
layerId = "5AF1D23B-5AA5-4E46-9E7A-B01C8844A7CF";
name = Light;
paths = (
{
closed = 1;
nodes = (
"99 0 LINE",
"99 698 LINE",
"507 698 LINE",
"507 645 LINE",
"159 645 LINE",
"159 381 LINE",
"490 381 LINE",
"490 328 LINE",
"159 328 LINE",
"159 53 LINE",
"507 53 LINE",
"507 0 LINE"
);
}
);
width = 574;
}
);
rightKerningGroup = E;
unicode = 0045;
},
{
glyphname = F;
layers = (
{
layerId = "5AF1D23B-5AA5-4E46-9E7A-B01C8844A7CF";
name = Light;
paths = (
{
closed = 1;
nodes = (
"99 0 LINE",
"99 698 LINE",
"498 698 LINE",
"498 645 LINE",
"159 645 LINE",
"159 381 LINE",
"475 381 LINE",
"475 328 LINE",
"159 328 LINE",
"159 0 LINE"
);
}
);
width = 550;
}
);
rightKerningGroup = F;
unicode = 0046;
},
{
glyphname = G;
layers = (
{
layerId = "5AF1D23B-5AA5-4E46-9E7A-B01C8844A7CF";
name = Light;
paths = (
{
closed = 1;
nodes = (
"553 107 LINE",
"550 107 LINE",
"525 35 OFFCURVE",
"453 -12 OFFCURVE",
"345 -12 CURVE SMOOTH",
"258 -12 OFFCURVE",
"188 19 OFFCURVE",
"140 80 CURVE SMOOTH",
"91 141 OFFCURVE",
"63 230 OFFCURVE",
"63 349 CURVE SMOOTH",
"63 466 OFFCURVE",
"91 557 OFFCURVE",
"140 618 CURVE SMOOTH",
"189 678 OFFCURVE",
"261 710 OFFCURVE",
"349 710 CURVE SMOOTH",
"469 710 OFFCURVE",
"550 650 OFFCURVE",
"593 561 CURVE",
"544 532 LINE",
"509 609 OFFCURVE",
"441 656 OFFCURVE",
"349 656 CURVE SMOOTH",
"281 656 OFFCURVE",
"226 631 OFFCURVE",
"187 586 CURVE SMOOTH",
"148 541 OFFCURVE",
"127 475 OFFCURVE",
"127 392 CURVE SMOOTH",
"127 307 LINE SMOOTH",
"127 139 OFFCURVE",
"213 42 OFFCURVE",
"354 42 CURVE SMOOTH",
"407 42 OFFCURVE",
"456 56 OFFCURVE",
"492 84 CURVE SMOOTH",
"528 112 OFFCURVE",
"550 155 OFFCURVE",
"550 212 CURVE SMOOTH",
"550 296 LINE",
"387 296 LINE",
"387 348 LINE",
"609 348 LINE",
"609 0 LINE",
"553 0 LINE"
);
}
);
width = 684;
}
);
leftKerningGroup = C;
rightKerningGroup = G;
unicode = 0047;
},
{
glyphname = H;
layers = (
{
layerId = "5AF1D23B-5AA5-4E46-9E7A-B01C8844A7CF";
name = Light;
paths = (
{
closed = 1;
nodes = (
"542 328 LINE",
"159 328 LINE",
"159 0 LINE",
"99 0 LINE",
"99 698 LINE",
"159 698 LINE",
"159 381 LINE",
"542 381 LINE",
"542 698 LINE",
"602 698 LINE",
"602 0 LINE",
"542 0 LINE"
);
}
);
width = 701;
}
);
unicode = 0048;
},
{
glyphname = I;
lastChange = "2018-11-02 04:06:23 +0000";
layers = (
{
layerId = "5AF1D23B-5AA5-4E46-9E7A-B01C8844A7CF";
name = Light;
paths = (
{
closed = 1;
nodes = (
"109 698 LINE",
"169 698 LINE",
"169 0 LINE",
"109 0 LINE"
);
}
);
width = 278;
}
);
leftKerningGroup = I;
rightKerningGroup = I;
unicode = 0049;
},
{
glyphname = J;
lastChange = "2018-11-02 03:40:31 +0000";
layers = (
{
layerId = "5AF1D23B-5AA5-4E46-9E7A-B01C8844A7CF";
name = Light;
paths = (
{
closed = 1;
nodes = (
"339 191 LINE SMOOTH",
"339 92 OFFCURVE",
"296 41 OFFCURVE",
"212 41 CURVE SMOOTH",
"137 41 OFFCURVE",
"95 86 OFFCURVE",
"79 147 CURVE",
"26 134 LINE",
"45 46 OFFCURVE",
"111 -12 OFFCURVE",
"210 -12 CURVE SMOOTH",
"325 -12 OFFCURVE",
"399 58 OFFCURVE",
"399 182 CURVE SMOOTH",
"399 698 LINE",
"339 698 LINE"
);
}
);
width = 493;
}
);
leftKerningGroup = J;
rightKerningGroup = J;
unicode = 004A;
},
{
glyphname = K;
layers = (
{
layerId = "5AF1D23B-5AA5-4E46-9E7A-B01C8844A7CF";
name = Light;
paths = (
{
closed = 1;
nodes = (
"272 360 LINE",
"159 235 LINE",
"159 0 LINE",
"99 0 LINE",
"99 698 LINE",
"159 698 LINE",
"159 305 LINE",
"161 305 LINE",
"273 434 LINE",
"503 698 LINE",
"576 698 LINE",
"313 401 LINE",
"589 0 LINE",
"515 0 LINE"
);
}
);
width = 610;
}
);
rightKerningGroup = K;
unicode = 004B;
},
{
glyphname = L;
layers = (
{
layerId = "5AF1D23B-5AA5-4E46-9E7A-B01C8844A7CF";
name = Light;
paths = (
{
closed = 1;
nodes = (
"99 0 LINE",
"99 698 LINE",
"159 698 LINE",
"159 53 LINE",
"467 53 LINE",
"467 0 LINE"
);
}
);
width = 491;
}
);
rightKerningGroup = L;
unicode = 004C;
},
{
glyphname = M;
layers = (
{
layerId = "5AF1D23B-5AA5-4E46-9E7A-B01C8844A7CF";
name = Light;
paths = (
{
closed = 1;
nodes = (
"647 621 LINE",
"643 621 LINE",
"402 194 LINE",
"161 621 LINE",
"157 621 LINE",
"157 0 LINE",
"99 0 LINE",
"99 698 LINE",
"181 698 LINE",
"402 305 LINE",
"405 305 LINE",
"626 698 LINE",
"705 698 LINE",
"705 0 LINE",
"647 0 LINE"
);
}
);
width = 804;
}
);
unicode = 004D;
},
{
glyphname = N;
layers = (
{
layerId = "5AF1D23B-5AA5-4E46-9E7A-B01C8844A7CF";
name = Light;
paths = (
{
closed = 1;
nodes = (
"160 616 LINE",
"157 616 LINE",
"157 0 LINE",
"99 0 LINE",
"99 698 LINE",
"174 698 LINE",
"541 82 LINE",
"544 82 LINE",
"544 698 LINE",
"602 698 LINE",
"602 0 LINE",
"527 0 LINE"
);
}
);
width = 701;
}
);
unicode = 004E;
},
{
glyphname = O;
layers = (
{
layerId = "5AF1D23B-5AA5-4E46-9E7A-B01C8844A7CF";
name = Light;
paths = (
{
closed = 1;
nodes = (
"170 -12 OFFCURVE",
"63 112 OFFCURVE",
"63 349 CURVE SMOOTH",
"63 586 OFFCURVE",
"170 710 OFFCURVE",
"349 710 CURVE SMOOTH",
"526 710 OFFCURVE",
"634 585 OFFCURVE",
"634 349 CURVE SMOOTH",
"634 113 OFFCURVE",
"526 -12 OFFCURVE",
"349 -12 CURVE SMOOTH"
);
},
{
closed = 1;
nodes = (
"416 42 OFFCURVE",
"470 66 OFFCURVE",
"509 111 CURVE SMOOTH",
"548 156 OFFCURVE",
"570 222 OFFCURVE",
"570 305 CURVE SMOOTH",
"570 393 LINE SMOOTH",
"570 476 OFFCURVE",
"548 542 OFFCURVE",
"509 587 CURVE SMOOTH",
"470 631 OFFCURVE",
"416 656 OFFCURVE",
"349 656 CURVE SMOOTH",
"282 656 OFFCURVE",
"227 631 OFFCURVE",
"188 587 CURVE SMOOTH",
"149 542 OFFCURVE",
"127 476 OFFCURVE",
"127 393 CURVE SMOOTH",
"127 305 LINE SMOOTH",
"127 222 OFFCURVE",
"149 156 OFFCURVE",
"188 111 CURVE SMOOTH",
"227 66 OFFCURVE",
"282 42 OFFCURVE",
"349 42 CURVE SMOOTH"
);
}
);
width = 697;
}
);
leftKerningGroup = C;
rightKerningGroup = O;
unicode = 004F;
},
{
glyphname = P;
layers = (
{
layerId = "5AF1D23B-5AA5-4E46-9E7A-B01C8844A7CF";
name = Light;
paths = (
{
closed = 1;
nodes = (
"99 0 LINE",
"99 698 LINE",
"373 698 LINE SMOOTH",
"494 698 OFFCURVE",
"560 623 OFFCURVE",
"560 503 CURVE SMOOTH",
"560 382 OFFCURVE",
"494 307 OFFCURVE",
"373 307 CURVE SMOOTH",
"159 307 LINE",
"159 0 LINE"
);
},
{
closed = 1;
nodes = (
"159 360 LINE",
"373 360 LINE SMOOTH",
"453 360 OFFCURVE",
"496 410 OFFCURVE",
"496 479 CURVE SMOOTH",
"496 527 LINE SMOOTH",
"496 595 OFFCURVE",
"453 645 OFFCURVE",
"373 645 CURVE SMOOTH",
"159 645 LINE"
);
}
);
width = 601;
}
);
rightKerningGroup = P;
unicode = 0050;
},
{
glyphname = Q;
layers = (
{
layerId = "5AF1D23B-5AA5-4E46-9E7A-B01C8844A7CF";
name = Light;
paths = (
{
closed = 1;
nodes = (
"488 -157 LINE",
"387 -157 LINE SMOOTH",
"346 -157 OFFCURVE",
"325 -132 OFFCURVE",
"325 -96 CURVE SMOOTH",
"325 -11 LINE",
"160 0 OFFCURVE",
"63 122 OFFCURVE",
"63 349 CURVE SMOOTH",
"63 586 OFFCURVE",
"170 710 OFFCURVE",
"349 710 CURVE SMOOTH",
"526 710 OFFCURVE",
"634 585 OFFCURVE",
"634 349 CURVE SMOOTH",
"634 126 OFFCURVE",
"541 5 OFFCURVE",
"382 -10 CURVE",
"382 -106 LINE",
"488 -106 LINE"
);
},
{
closed = 1;
nodes = (
"416 42 OFFCURVE",
"470 66 OFFCURVE",
"509 111 CURVE SMOOTH",
"548 156 OFFCURVE",
"570 222 OFFCURVE",
"570 305 CURVE SMOOTH",
"570 393 LINE SMOOTH",
"570 476 OFFCURVE",
"548 542 OFFCURVE",
"509 587 CURVE SMOOTH",
"470 631 OFFCURVE",
"416 656 OFFCURVE",
"349 656 CURVE SMOOTH",
"282 656 OFFCURVE",
"227 631 OFFCURVE",
"188 587 CURVE SMOOTH",
"149 542 OFFCURVE",
"127 476 OFFCURVE",
"127 393 CURVE SMOOTH",
"127 305 LINE SMOOTH",
"127 222 OFFCURVE",
"149 156 OFFCURVE",
"188 111 CURVE SMOOTH",
"227 66 OFFCURVE",
"282 42 OFFCURVE",
"349 42 CURVE SMOOTH"
);
}
);
width = 697;
}
);
leftKerningGroup = C;
rightKerningGroup = O;
unicode = 0051;
},
{
glyphname = R;
layers = (
{
layerId = "5AF1D23B-5AA5-4E46-9E7A-B01C8844A7CF";
name = Light;
paths = (
{
closed = 1;
nodes = (
"159 0 LINE",
"99 0 LINE",
"99 698 LINE",
"373 698 LINE SMOOTH",
"493 698 OFFCURVE",
"560 627 OFFCURVE",
"560 504 CURVE SMOOTH",
"560 396 OFFCURVE",
"506 326 OFFCURVE",
"406 313 CURVE",
"578 0 LINE",
"511 0 LINE",
"344 309 LINE",
"159 309 LINE"
);
},
{
closed = 1;
nodes = (
"373 360 LINE SMOOTH",
"453 360 OFFCURVE",
"496 410 OFFCURVE",
"496 479 CURVE SMOOTH",
"496 527 LINE SMOOTH",
"496 595 OFFCURVE",
"453 645 OFFCURVE",
"373 645 CURVE SMOOTH",
"159 645 LINE",
"159 360 LINE"
);
}
);
width = 636;
}
);
rightKerningGroup = R;
unicode = 0052;
},
{
glyphname = S;
layers = (
{
layerId = "5AF1D23B-5AA5-4E46-9E7A-B01C8844A7CF";
name = Light;
paths = (
{
closed = 1;
nodes = (
"169 -12 OFFCURVE",
"97 35 OFFCURVE",
"42 107 CURVE",
"87 144 LINE",
"136 79 OFFCURVE",
"194 41 OFFCURVE",
"286 41 CURVE SMOOTH",
"394 41 OFFCURVE",
"454 95 OFFCURVE",
"454 187 CURVE SMOOTH",
"454 272 OFFCURVE",
"402 306 OFFCURVE",
"313 325 CURVE SMOOTH",
"251 338 LINE SMOOTH",
"118 365 OFFCURVE",
"61 428 OFFCURVE",
"61 525 CURVE SMOOTH",
"61 586 OFFCURVE",
"83 632 OFFCURVE",
"123 663 CURVE SMOOTH",
"162 694 OFFCURVE",
"218 710 OFFCURVE",
"285 710 CURVE SMOOTH",
"389 710 OFFCURVE",
"459 671 OFFCURVE",
"506 603 CURVE",
"461 570 LINE",
"422 626 OFFCURVE",
"366 657 OFFCURVE",
"282 657 CURVE SMOOTH",
"182 657 OFFCURVE",
"120 614 OFFCURVE",
"120 527 CURVE SMOOTH",
"120 444 OFFCURVE",
"176 411 OFFCURVE",
"263 394 CURVE SMOOTH",
"325 381 LINE SMOOTH",
"464 350 OFFCURVE",
"513 286 OFFCURVE",
"513 190 CURVE SMOOTH",
"513 62 OFFCURVE",
"427 -12 OFFCURVE",
"284 -12 CURVE SMOOTH"
);
}
);
width = 568;
}
);
leftKerningGroup = S;
rightKerningGroup = S;
unicode = 0053;
},
{
glyphname = T;
layers = (
{
layerId = "5AF1D23B-5AA5-4E46-9E7A-B01C8844A7CF";
name = Light;
paths = (
{
closed = 1;
nodes = (
"314 645 LINE",
"314 0 LINE",
"254 0 LINE",
"254 645 LINE",
"20 645 LINE",
"20 698 LINE",
"548 698 LINE",
"548 645 LINE"
);
}
);
width = 568;
}
);
leftKerningGroup = T;
rightKerningGroup = T;
unicode = 0054;
},
{
glyphname = U;
layers = (
{
layerId = "5AF1D23B-5AA5-4E46-9E7A-B01C8844A7CF";
name = Light;
paths = (
{
closed = 1;
nodes = (
"153 698 LINE",
"153 267 LINE SMOOTH",
"153 190 OFFCURVE",
"164 133 OFFCURVE",
"192 97 CURVE SMOOTH",
"220 60 OFFCURVE",
"266 42 OFFCURVE",
"334 42 CURVE SMOOTH",
"402 42 OFFCURVE",
"447 60 OFFCURVE",
"476 97 CURVE SMOOTH",
"504 133 OFFCURVE",
"515 190 OFFCURVE",
"515 267 CURVE SMOOTH",
"515 698 LINE",
"575 698 LINE",
"575 280 LINE SMOOTH",
"575 177 OFFCURVE",
"559 105 OFFCURVE",
"521 58 CURVE SMOOTH",
"483 10 OFFCURVE",
"421 -12 OFFCURVE",
"332 -12 CURVE SMOOTH",
"243 -12 OFFCURVE",
"182 10 OFFCURVE",
"145 58 CURVE SMOOTH",
"108 105 OFFCURVE",
"93 177 OFFCURVE",
"93 280 CURVE SMOOTH",
"93 698 LINE"
);
}
);
width = 668;
}
);
leftKerningGroup = U;
rightKerningGroup = U;
unicode = 0055;
},
{
glyphname = V;
layers = (
{
layerId = "5AF1D23B-5AA5-4E46-9E7A-B01C8844A7CF";
name = Light;
paths = (
{
closed = 1;
nodes = (
"258 0 LINE",
"24 698 LINE",
"89 698 LINE",
"295 61 LINE",
"299 61 LINE",
"507 698 LINE",
"570 698 LINE",
"334 0 LINE"
);
}
);
width = 594;
}
);
leftKerningGroup = V;
rightKerningGroup = V;
unicode = 0056;
},
{
glyphname = W;
layers = (
{
layerId = "5AF1D23B-5AA5-4E46-9E7A-B01C8844A7CF";
name = Light;
paths = (
{
closed = 1;
nodes = (
"200 0 LINE",
"24 698 LINE",
"88 698 LINE",
"237 74 LINE",
"240 74 LINE",
"405 698 LINE",
"478 698 LINE",
"641 74 LINE",
"644 74 LINE",
"798 698 LINE",
"860 698 LINE",
"678 0 LINE",
"608 0 LINE",
"441 631 LINE",
"439 631 LINE",
"270 0 LINE"
);
}
);
width = 884;
}
);
leftKerningGroup = W;
rightKerningGroup = W;
unicode = 0057;
},
{
glyphname = X;
layers = (
{
layerId = "5AF1D23B-5AA5-4E46-9E7A-B01C8844A7CF";
name = Light;
paths = (
{
closed = 1;
nodes = (
"566 0 LINE",
"494 0 LINE",
"296 309 LINE",
"294 309 LINE",
"95 0 LINE",
"26 0 LINE",
"257 355 LINE",
"33 698 LINE",
"104 698 LINE",
"295 403 LINE",
"297 403 LINE",
"490 698 LINE",
"559 698 LINE",
"333 358 LINE"
);
}
);
width = 592;
}
);
leftKerningGroup = X;
rightKerningGroup = X;
unicode = 0058;
},
{
glyphname = Y;
layers = (
{
layerId = "5AF1D23B-5AA5-4E46-9E7A-B01C8844A7CF";
name = Light;
paths = (
{
closed = 1;
nodes = (
"257 0 LINE",
"257 283 LINE",
"16 698 LINE",
"84 698 LINE",
"286 346 LINE",
"289 346 LINE",
"491 698 LINE",
"559 698 LINE",
"317 286 LINE",
"317 0 LINE"
);
}
);
width = 575;
}
);
leftKerningGroup = Y;
rightKerningGroup = Y;
unicode = 0059;
},
{
glyphname = Z;
layers = (
{
layerId = "5AF1D23B-5AA5-4E46-9E7A-B01C8844A7CF";
name = Light;
paths = (
{
closed = 1;
nodes = (
"537 0 LINE",
"37 0 LINE",
"37 55 LINE",
"456 645 LINE",
"59 645 LINE",
"59 698 LINE",
"521 698 LINE",
"521 643 LINE",
"101 53 LINE",
"537 53 LINE"
);
}
);
width = 570;
}
);
leftKerningGroup = Z;
rightKerningGroup = Z;
unicode = 005A;
},
{
glyphname = zero;
layers = (
{
layerId = "5AF1D23B-5AA5-4E46-9E7A-B01C8844A7CF";
name = Light;
paths = (
{
closed = 1;
nodes = (
"143 -12 OFFCURVE",
"64 108 OFFCURVE",
"64 349 CURVE SMOOTH",
"64 590 OFFCURVE",
"143 710 OFFCURVE",
"300 710 CURVE SMOOTH",
"457 710 OFFCURVE",
"536 590 OFFCURVE",
"536 349 CURVE SMOOTH",
"536 108 OFFCURVE",
"457 -12 OFFCURVE",
"300 -12 CURVE SMOOTH"
);
},
{
closed = 1;
nodes = (
"417 40 OFFCURVE",
"473 139 OFFCURVE",
"473 302 CURVE SMOOTH",
"473 396 LINE SMOOTH",
"473 559 OFFCURVE",
"417 658 OFFCURVE",
"300 658 CURVE SMOOTH",
"181 658 OFFCURVE",
"127 559 OFFCURVE",
"127 396 CURVE SMOOTH",
"127 302 LINE SMOOTH",
"127 139 OFFCURVE",
"181 40 OFFCURVE",
"300 40 CURVE SMOOTH"
);
}
);
width = 600;
}
);
unicode = 0030;
},
{
glyphname = one;
lastChange = "2018-11-04 17:08:35 +0000";
layers = (
{
layerId = "5AF1D23B-5AA5-4E46-9E7A-B01C8844A7CF";
name = Light;
paths = (
{
closed = 1;
nodes = (
"89 614 LINE",
"89 554 LINE",
"239 643 LINE",
"239 0 LINE",
"299 0 LINE",
"299 698 LINE",
"234 698 LINE"
);
}
);
width = 450;
}
);
unicode = 0031;
},
{
glyphname = two;
layers = (
{
layerId = "5AF1D23B-5AA5-4E46-9E7A-B01C8844A7CF";
name = Light;
paths = (
{
closed = 1;
nodes = (
"528 0 LINE",
"80 0 LINE",
"80 61 LINE",
"324 295 LINE SMOOTH",
"389 359 OFFCURVE",
"435 426 OFFCURVE",
"435 497 CURVE SMOOTH",
"435 516 LINE SMOOTH",
"435 599 OFFCURVE",
"387 656 OFFCURVE",
"291 656 CURVE SMOOTH",
"198 656 OFFCURVE",
"153 605 OFFCURVE",
"130 530 CURVE",
"76 550 LINE",
"89 593 OFFCURVE",
"111 633 OFFCURVE",
"147 662 CURVE SMOOTH",
"182 691 OFFCURVE",
"229 710 OFFCURVE",
"293 710 CURVE SMOOTH",
"358 710 OFFCURVE",
"410 690 OFFCURVE",
"446 655 CURVE SMOOTH",
"481 620 OFFCURVE",
"499 571 OFFCURVE",
"499 511 CURVE SMOOTH",
"499 460 OFFCURVE",
"485 416 OFFCURVE",
"461 376 CURVE SMOOTH",
"437 335 OFFCURVE",
"401 296 OFFCURVE",
"360 257 CURVE SMOOTH",
"145 53 LINE",
"528 53 LINE"
);
}
);
width = 600;
}
);
unicode = 0032;
},
{
glyphname = three;
layers = (
{
layerId = "5AF1D23B-5AA5-4E46-9E7A-B01C8844A7CF";
name = Light;
paths = (
{
closed = 1;
nodes = (
"268 392 LINE SMOOTH",
"364 392 OFFCURVE",
"421 444 OFFCURVE",
"421 520 CURVE SMOOTH",
"421 533 LINE SMOOTH",
"421 612 OFFCURVE",
"363 656 OFFCURVE",
"282 656 CURVE SMOOTH",
"201 656 OFFCURVE",
"155 621 OFFCURVE",
"126 565 CURVE",
"81 597 LINE",
"97 626 OFFCURVE",
"121 655 OFFCURVE",
"154 676 CURVE SMOOTH",
"186 697 OFFCURVE",
"228 710 OFFCURVE",
"283 710 CURVE SMOOTH",
"340 710 OFFCURVE",
"391 694 OFFCURVE",
"427 664 CURVE SMOOTH",
"463 634 OFFCURVE",
"485 590 OFFCURVE",
"485 535 CURVE SMOOTH",
"485 440 OFFCURVE",
"426 389 OFFCURVE",
"349 370 CURVE",
"349 366 LINE",
"390 359 OFFCURVE",
"427 341 OFFCURVE",
"455 312 CURVE SMOOTH",
"482 283 OFFCURVE",
"499 241 OFFCURVE",
"499 189 CURVE SMOOTH",
"499 129 OFFCURVE",
"477 78 OFFCURVE",
"438 43 CURVE SMOOTH",
"398 8 OFFCURVE",
"342 -12 OFFCURVE",
"274 -12 CURVE SMOOTH",
"162 -12 OFFCURVE",
"97 37 OFFCURVE",
"53 102 CURVE",
"98 136 LINE",
"137 76 OFFCURVE",
"186 42 OFFCURVE",
"273 42 CURVE SMOOTH",
"374 42 OFFCURVE",
"435 95 OFFCURVE",
"435 183 CURVE SMOOTH",
"435 199 LINE SMOOTH",
"435 287 OFFCURVE",
"377 340 OFFCURVE",
"273 340 CURVE SMOOTH",
"185 340 LINE",
"185 392 LINE"
);
}
);
width = 600;
}
);
unicode = 0033;
},
{
glyphname = four;
layers = (
{
layerId = "5AF1D23B-5AA5-4E46-9E7A-B01C8844A7CF";
name = Light;
paths = (
{
closed = 1;
nodes = (
"389 0 LINE",
"389 146 LINE",
"42 146 LINE",
"42 199 LINE",
"360 698 LINE",
"446 698 LINE",
"446 196 LINE",
"554 196 LINE",
"554 146 LINE",
"446 146 LINE",
"446 0 LINE"
);
},
{
closed = 1;
nodes = (
"98 196 LINE",
"389 196 LINE",
"389 647 LINE",
"386 647 LINE"
);
}
);
width = 600;
}
);
unicode = 0034;
},
{
glyphname = five;
layers = (
{
layerId = "5AF1D23B-5AA5-4E46-9E7A-B01C8844A7CF";
name = Light;
paths = (
{
closed = 1;
nodes = (
"491 645 LINE",
"179 645 LINE",
"157 353 LINE",
"163 352 LINE",
"198 401 OFFCURVE",
"240 426 OFFCURVE",
"315 426 CURVE SMOOTH",
"376 426 OFFCURVE",
"428 406 OFFCURVE",
"464 370 CURVE SMOOTH",
"500 333 OFFCURVE",
"520 280 OFFCURVE",
"520 213 CURVE SMOOTH",
"520 145 OFFCURVE",
"499 89 OFFCURVE",
"460 50 CURVE SMOOTH",
"421 10 OFFCURVE",
"365 -12 OFFCURVE",
"296 -12 CURVE SMOOTH",
"241 -12 OFFCURVE",
"198 0 OFFCURVE",
"163 21 CURVE SMOOTH",
"128 41 OFFCURVE",
"101 70 OFFCURVE",
"80 102 CURVE",
"125 136 LINE",
"164 76 OFFCURVE",
"209 42 OFFCURVE",
"296 42 CURVE SMOOTH",
"400 42 OFFCURVE",
"457 103 OFFCURVE",
"457 200 CURVE SMOOTH",
"457 217 LINE SMOOTH",
"457 314 OFFCURVE",
"402 375 OFFCURVE",
"299 375 CURVE SMOOTH",
"263 375 OFFCURVE",
"236 369 OFFCURVE",
"214 358 CURVE",
"192 346 OFFCURVE",
"174 331 OFFCURVE",
"157 311 CURVE",
"105 319 LINE",
"130 698 LINE",
"491 698 LINE"
);
}
);
width = 600;
}
);
unicode = 0035;
},
{
glyphname = six;
layers = (
{
layerId = "5AF1D23B-5AA5-4E46-9E7A-B01C8844A7CF";
name = Light;
paths = (
{
closed = 1;
nodes = (
"226 -12 OFFCURVE",
"171 14 OFFCURVE",
"133 59 CURVE SMOOTH",
"95 103 OFFCURVE",
"75 168 OFFCURVE",
"75 244 CURVE SMOOTH",
"75 352 OFFCURVE",
"108 445 OFFCURVE",
"156 521 CURVE SMOOTH",
"204 597 OFFCURVE",
"269 657 OFFCURVE",
"333 698 CURVE",
"412 698 LINE",
"335 645 OFFCURVE",
"275 593 OFFCURVE",
"230 534 CURVE SMOOTH",
"185 474 OFFCURVE",
"155 407 OFFCURVE",
"138 326 CURVE",
"142 325 LINE",
"177 388 OFFCURVE",
"232 427 OFFCURVE",
"316 427 CURVE SMOOTH",
"377 427 OFFCURVE",
"430 406 OFFCURVE",
"467 370 CURVE SMOOTH",
"503 333 OFFCURVE",
"524 279 OFFCURVE",
"524 214 CURVE SMOOTH",
"524 146 OFFCURVE",
"502 90 OFFCURVE",
"463 51 CURVE SMOOTH",
"424 11 OFFCURVE",
"369 -12 OFFCURVE",
"301 -12 CURVE SMOOTH"
);
},
{
closed = 1;
nodes = (
"401 40 OFFCURVE",
"462 103 OFFCURVE",
"462 200 CURVE SMOOTH",
"462 217 LINE SMOOTH",
"462 314 OFFCURVE",
"403 376 OFFCURVE",
"300 376 CURVE SMOOTH",
"196 376 OFFCURVE",
"137 314 OFFCURVE",
"137 217 CURVE SMOOTH",
"137 201 LINE SMOOTH",
"137 102 OFFCURVE",
"197 40 OFFCURVE",
"300 40 CURVE SMOOTH"
);
}
);
width = 600;
}
);
unicode = 0036;
},
{
glyphname = seven;
lastChange = "2018-11-02 04:45:22 +0000";
layers = (
{
layerId = "5AF1D23B-5AA5-4E46-9E7A-B01C8844A7CF";
name = Light;
paths = (
{
closed = 1;
nodes = (
"72 646 LINE",
"460 646 LINE",
"180 0 LINE",
"244 0 LINE",
"521 645 LINE",
"521 698 LINE",
"72 698 LINE"
);
}
);
width = 600;
}
);
unicode = 0037;
},
{
glyphname = eight;
layers = (
{
layerId = "5AF1D23B-5AA5-4E46-9E7A-B01C8844A7CF";
name = Light;
paths = (
{
closed = 1;
nodes = (
"224 -12 OFFCURVE",
"165 9 OFFCURVE",
"125 44 CURVE SMOOTH",
"84 79 OFFCURVE",
"63 129 OFFCURVE",
"63 186 CURVE SMOOTH",
"63 283 OFFCURVE",
"121 343 OFFCURVE",
"210 363 CURVE",
"210 370 LINE",
"134 391 OFFCURVE",
"86 451 OFFCURVE",
"86 535 CURVE SMOOTH",
"86 642 OFFCURVE",
"165 710 OFFCURVE",
"300 710 CURVE SMOOTH",
"435 710 OFFCURVE",
"514 642 OFFCURVE",
"514 535 CURVE SMOOTH",
"514 451 OFFCURVE",
"466 391 OFFCURVE",
"390 370 CURVE",
"390 363 LINE",
"479 343 OFFCURVE",
"537 283 OFFCURVE",
"537 186 CURVE SMOOTH",
"537 129 OFFCURVE",
"516 79 OFFCURVE",
"476 44 CURVE SMOOTH",
"435 9 OFFCURVE",
"376 -12 OFFCURVE",
"300 -12 CURVE SMOOTH"
);
},
{
closed = 1;
nodes = (
"408 40 OFFCURVE",
"473 94 OFFCURVE",
"473 179 CURVE SMOOTH",
"473 202 LINE SMOOTH",
"473 289 OFFCURVE",
"408 341 OFFCURVE",
"300 341 CURVE SMOOTH",
"192 341 OFFCURVE",
"127 289 OFFCURVE",
"127 202 CURVE SMOOTH",
"127 179 LINE SMOOTH",
"127 94 OFFCURVE",
"192 40 OFFCURVE",
"300 40 CURVE SMOOTH"
);
},
{
closed = 1;
nodes = (
"396 392 OFFCURVE",
"452 437 OFFCURVE",
"452 516 CURVE SMOOTH",
"452 534 LINE SMOOTH",
"452 611 OFFCURVE",
"396 658 OFFCURVE",
"300 658 CURVE SMOOTH",
"204 658 OFFCURVE",
"148 611 OFFCURVE",
"148 534 CURVE SMOOTH",
"148 516 LINE SMOOTH",
"148 437 OFFCURVE",
"204 392 OFFCURVE",
"300 392 CURVE SMOOTH"
);
}
);
width = 600;
}
);
unicode = 0038;
},
{
glyphname = nine;
layers = (
{
layerId = "5AF1D23B-5AA5-4E46-9E7A-B01C8844A7CF";
name = Light;
paths = (
{
closed = 1;
nodes = (
"525 346 OFFCURVE",
"492 253 OFFCURVE",
"444 177 CURVE SMOOTH",
"396 101 OFFCURVE",
"331 41 OFFCURVE",
"267 0 CURVE",
"189 0 LINE",
"266 53 OFFCURVE",
"326 105 OFFCURVE",
"371 165 CURVE SMOOTH",
"415 224 OFFCURVE",
"445 289 OFFCURVE",
"462 372 CURVE",
"458 373 LINE",
"423 310 OFFCURVE",
"368 271 OFFCURVE",
"284 271 CURVE SMOOTH",
"223 271 OFFCURVE",
"170 292 OFFCURVE",
"134 329 CURVE SMOOTH",
"97 365 OFFCURVE",
"76 419 OFFCURVE",
"76 484 CURVE SMOOTH",
"76 552 OFFCURVE",
"98 608 OFFCURVE",
"137 648 CURVE SMOOTH",
"176 687 OFFCURVE",
"232 710 OFFCURVE",
"300 710 CURVE SMOOTH",
"373 710 OFFCURVE",
"430 684 OFFCURVE",
"468 640 CURVE SMOOTH",
"506 595 OFFCURVE",
"525 530 OFFCURVE",
"525 454 CURVE SMOOTH"
);
},
{
closed = 1;
nodes = (
"404 322 OFFCURVE",
"463 384 OFFCURVE",
"463 481 CURVE SMOOTH",
"463 497 LINE SMOOTH",
"463 596 OFFCURVE",
"402 658 OFFCURVE",
"301 658 CURVE SMOOTH",
"198 658 OFFCURVE",
"138 595 OFFCURVE",
"138 498 CURVE SMOOTH",
"138 481 LINE SMOOTH",
"138 384 OFFCURVE",
"197 322 OFFCURVE",
"301 322 CURVE SMOOTH"
);
}
);
width = 600;
}
);
unicode = 0039;
},
{
glyphname = ampersand;
layers = (
{
layerId = "5AF1D23B-5AA5-4E46-9E7A-B01C8844A7CF";
name = Light;
paths = (
{
closed = 1;
nodes = (
"492 95 LINE",
"475 70 OFFCURVE",
"450 43 OFFCURVE",
"415 23 CURVE SMOOTH",
"379 2 OFFCURVE",
"335 -12 OFFCURVE",
"280 -12 CURVE SMOOTH",
"213 -12 OFFCURVE",
"162 8 OFFCURVE",
"126 41 CURVE SMOOTH",
"90 74 OFFCURVE",
"71 122 OFFCURVE",
"71 175 CURVE SMOOTH",
"71 228 OFFCURVE",
"90 268 OFFCURVE",
"118 300 CURVE SMOOTH",
"146 331 OFFCURVE",
"184 355 OFFCURVE",
"224 375 CURVE",
"171 434 OFFCURVE",
"138 483 OFFCURVE",
"138 547 CURVE SMOOTH",
"138 594 OFFCURVE",
"155 635 OFFCURVE",
"186 664 CURVE SMOOTH",
"217 692 OFFCURVE",
"261 710 OFFCURVE",
"314 710 CURVE SMOOTH",
"363 710 OFFCURVE",
"405 695 OFFCURVE",
"434 669 CURVE SMOOTH",
"462 643 OFFCURVE",
"479 607 OFFCURVE",
"479 564 CURVE SMOOTH",
"479 517 OFFCURVE",
"460 481 OFFCURVE",
"429 450 CURVE SMOOTH",
"398 418 OFFCURVE",
"354 392 OFFCURVE",
"305 367 CURVE",
"486 179 LINE",
"507 231 OFFCURVE",
"516 294 OFFCURVE",
"519 361 CURVE",
"644 361 LINE",
"644 311 LINE",
"566 311 LINE",
"560 248 OFFCURVE",
"545 191 OFFCURVE",
"522 141 CURVE",
"657 0 LINE",
"583 0 LINE"
);
},
{
closed = 1;
nodes = (
"240 662 OFFCURVE",
"195 615 OFFCURVE",
"195 555 CURVE SMOOTH",
"195 541 LINE SMOOTH",
"195 494 OFFCURVE",
"228 449 OFFCURVE",
"273 400 CURVE",
"313 420 OFFCURVE",
"351 442 OFFCURVE",
"379 467 CURVE SMOOTH",
"406 492 OFFCURVE",
"423 519 OFFCURVE",
"423 551 CURVE SMOOTH",
"423 564 LINE SMOOTH",
"423 595 OFFCURVE",
"410 620 OFFCURVE",
"390 637 CURVE",
"369 653 OFFCURVE",
"340 662 OFFCURVE",
"311 662 CURVE SMOOTH"
);
},
{
closed = 1;
nodes = (
"131 169 LINE SMOOTH",
"131 89 OFFCURVE",
"192 39 OFFCURVE",
"284 39 CURVE SMOOTH",
"365 39 OFFCURVE",
"422 73 OFFCURVE",
"459 130 CURVE",
"255 342 LINE",
"222 325 OFFCURVE",
"191 307 OFFCURVE",
"168 283 CURVE SMOOTH",
"145 259 OFFCURVE",
"131 229 OFFCURVE",
"131 186 CURVE SMOOTH"
);
}
);
width = 687;
}
);
leftKerningGroup = ampersand;
rightKerningGroup = ampersand;
unicode = 0026;
},
{
glyphname = at;
layers = (
{
layerId = "5AF1D23B-5AA5-4E46-9E7A-B01C8844A7CF";
name = Light;
paths = (
{
closed = 1;
nodes = (
"678 -121 LINE",
"444 -121 LINE SMOOTH",
"333 -121 OFFCURVE",
"240 -82 OFFCURVE",
"173 -10 CURVE SMOOTH",
"106 62 OFFCURVE",
"67 165 OFFCURVE",
"67 293 CURVE SMOOTH",
"67 418 OFFCURVE",
"106 522 OFFCURVE",
"174 595 CURVE SMOOTH",
"242 667 OFFCURVE",
"338 709 OFFCURVE",
"451 709 CURVE SMOOTH",
"547 709 OFFCURVE",
"640 680 OFFCURVE",
"708 617 CURVE SMOOTH",
"776 553 OFFCURVE",
"820 458 OFFCURVE",
"820 326 CURVE SMOOTH",
"820 255 OFFCURVE",
"809 192 OFFCURVE",
"783 145 CURVE SMOOTH",
"757 98 OFFCURVE",
"715 69 OFFCURVE",
"658 69 CURVE SMOOTH",
"599 69 OFFCURVE",
"567 103 OFFCURVE",
"560 152 CURVE",
"557 152 LINE",
"533 105 OFFCURVE",
"495 69 OFFCURVE",
"428 69 CURVE SMOOTH",
"379 69 OFFCURVE",
"336 87 OFFCURVE",
"305 124 CURVE SMOOTH",
"273 160 OFFCURVE",
"255 215 OFFCURVE",
"255 288 CURVE SMOOTH",
"255 361 OFFCURVE",
"273 417 OFFCURVE",
"305 454 CURVE SMOOTH",
"336 491 OFFCURVE",
"379 509 OFFCURVE",
"428 509 CURVE SMOOTH",
"495 509 OFFCURVE",
"531 473 OFFCURVE",
"550 432 CURVE",
"554 432 LINE",
"554 498 LINE",
"604 498 LINE",
"604 183 LINE SMOOTH",
"604 134 OFFCURVE",
"626 113 OFFCURVE",
"666 113 CURVE SMOOTH",
"733 113 OFFCURVE",
"771 187 OFFCURVE",
"771 308 CURVE SMOOTH",
"771 354 LINE SMOOTH",
"771 447 OFFCURVE",
"737 525 OFFCURVE",
"679 580 CURVE SMOOTH",
"621 635 OFFCURVE",
"541 665 OFFCURVE",
"450 665 CURVE SMOOTH",
"353 665 OFFCURVE",
"269 628 OFFCURVE",
"210 567 CURVE SMOOTH",
"151 506 OFFCURVE",
"116 420 OFFCURVE",
"116 323 CURVE SMOOTH",
"116 267 LINE SMOOTH",
"116 166 OFFCURVE",
"151 79 OFFCURVE",
"209 19 CURVE SMOOTH",
"267 -42 OFFCURVE",
"349 -77 OFFCURVE",
"445 -77 CURVE SMOOTH",
"678 -77 LINE"
);
},
{
closed = 1;
nodes = (
"509 117 OFFCURVE",
"554 157 OFFCURVE",
"554 224 CURVE SMOOTH",
"554 357 LINE SMOOTH",
"554 418 OFFCURVE",
"509 461 OFFCURVE",
"437 461 CURVE SMOOTH",
"354 461 OFFCURVE",
"315 408 OFFCURVE",
"315 320 CURVE SMOOTH",
"315 256 LINE SMOOTH",
"315 172 OFFCURVE",
"354 117 OFFCURVE",
"437 117 CURVE SMOOTH"
);
}
);
width = 887;
}
);
leftKerningGroup = at;
rightKerningGroup = at;
unicode = 0040;
},
{
glyphname = hyphen;
layers = (
{
layerId = "5AF1D23B-5AA5-4E46-9E7A-B01C8844A7CF";
name = Light;
paths = (
{
closed = 1;
nodes = (
"74 274 LINE",
"74 335 LINE",
"323 335 LINE",
"323 274 LINE"
);
}
);
width = 397;
}
);
leftKerningGroup = hyphen;
rightKerningGroup = hyphen;
unicode = 002D;
},
{
glyphname = uni00AD;
layers = (
{
layerId = "5AF1D23B-5AA5-4E46-9E7A-B01C8844A7CF";
name = Light;
paths = (
{
closed = 1;
nodes = (
"74 274 LINE",
"74 335 LINE",
"323 335 LINE",
"323 274 LINE"
);
}
);
width = 397;
}
);
leftKerningGroup = hyphen;
rightKerningGroup = hyphen;
unicode = 00AD;
},
{
glyphname = endash;
layers = (
{
layerId = "5AF1D23B-5AA5-4E46-9E7A-B01C8844A7CF";
name = Light;
paths = (
{
closed = 1;
nodes = (
"36 278 LINE",
"36 331 LINE",
"552 331 LINE",
"552 278 LINE"
);
}
);
width = 588;
}
);
leftKerningGroup = hyphen;
rightKerningGroup = hyphen;
unicode = 2013;
},
{
glyphname = emdash;
layers = (
{
layerId = "5AF1D23B-5AA5-4E46-9E7A-B01C8844A7CF";
name = Light;
paths = (
{
closed = 1;
nodes = (
"36 278 LINE",
"36 331 LINE",
"744 331 LINE",
"744 278 LINE"
);
}
);
width = 780;
}
);
leftKerningGroup = hyphen;
rightKerningGroup = hyphen;
unicode = 2014;
},
{
glyphname = underscore;
layers = (
{
layerId = "5AF1D23B-5AA5-4E46-9E7A-B01C8844A7CF";
name = Light;
paths = (
{
closed = 1;
nodes = (
"30 -156 LINE",
"30 -106 LINE",
"537 -106 LINE",
"537 -156 LINE"
);
}
);
width = 567;
}
);
leftKerningGroup = underscore;
rightKerningGroup = underscore;
unicode = 005F;
},
{
glyphname = period;
layers = (
{
layerId = "5AF1D23B-5AA5-4E46-9E7A-B01C8844A7CF";
name = Light;
paths = (
{
closed = 1;
nodes = (
"97 -9 OFFCURVE",
"82 9 OFFCURVE",
"82 36 CURVE SMOOTH",
"82 47 LINE SMOOTH",
"82 74 OFFCURVE",
"97 92 OFFCURVE",
"130 92 CURVE SMOOTH",
"162 92 OFFCURVE",
"178 74 OFFCURVE",
"178 47 CURVE SMOOTH",
"178 36 LINE SMOOTH",
"178 9 OFFCURVE",
"162 -9 OFFCURVE",
"130 -9 CURVE SMOOTH"
);
}
);
width = 260;
}
);
leftKerningGroup = period;
rightKerningGroup = period;
unicode = 002E;
},
{
glyphname = ellipsis;
layers = (
{
layerId = "5AF1D23B-5AA5-4E46-9E7A-B01C8844A7CF";
name = Light;
paths = (
{
closed = 1;
nodes = (
"97 -9 OFFCURVE",
"82 9 OFFCURVE",
"82 36 CURVE SMOOTH",
"82 47 LINE SMOOTH",
"82 74 OFFCURVE",
"97 92 OFFCURVE",
"130 92 CURVE SMOOTH",
"162 92 OFFCURVE",
"178 74 OFFCURVE",
"178 47 CURVE SMOOTH",
"178 36 LINE SMOOTH",
"178 9 OFFCURVE",
"162 -9 OFFCURVE",
"130 -9 CURVE SMOOTH"
);
},
{
closed = 1;
nodes = (
"357 -9 OFFCURVE",
"342 9 OFFCURVE",
"342 36 CURVE SMOOTH",
"342 47 LINE SMOOTH",
"342 74 OFFCURVE",
"357 92 OFFCURVE",
"390 92 CURVE SMOOTH",
"422 92 OFFCURVE",
"438 74 OFFCURVE",
"438 47 CURVE SMOOTH",
"438 36 LINE SMOOTH",
"438 9 OFFCURVE",
"422 -9 OFFCURVE",
"390 -9 CURVE SMOOTH"
);
},
{
closed = 1;
nodes = (
"617 -9 OFFCURVE",
"602 9 OFFCURVE",
"602 36 CURVE SMOOTH",
"602 47 LINE SMOOTH",
"602 74 OFFCURVE",
"617 92 OFFCURVE",
"650 92 CURVE SMOOTH",
"682 92 OFFCURVE",
"698 74 OFFCURVE",
"698 47 CURVE SMOOTH",
"698 36 LINE SMOOTH",
"698 9 OFFCURVE",
"682 -9 OFFCURVE",
"650 -9 CURVE SMOOTH"
);
}
);
width = 780;
}
);
leftKerningGroup = period;
rightKerningGroup = period;
unicode = 2026;
},
{
glyphname = colon;
layers = (
{
layerId = "5AF1D23B-5AA5-4E46-9E7A-B01C8844A7CF";
name = Light;
paths = (
{
closed = 1;
nodes = (
"107 -9 OFFCURVE",
"92 9 OFFCURVE",
"92 36 CURVE SMOOTH",
"92 47 LINE SMOOTH",
"92 74 OFFCURVE",
"107 92 OFFCURVE",
"140 92 CURVE SMOOTH",
"172 92 OFFCURVE",
"188 74 OFFCURVE",
"188 47 CURVE SMOOTH",
"188 36 LINE SMOOTH",
"188 9 OFFCURVE",
"172 -9 OFFCURVE",
"140 -9 CURVE SMOOTH"
);
},
{
closed = 1;
nodes = (
"107 411 OFFCURVE",
"92 429 OFFCURVE",
"92 456 CURVE SMOOTH",
"92 467 LINE SMOOTH",
"92 494 OFFCURVE",
"107 512 OFFCURVE",
"140 512 CURVE SMOOTH",
"172 512 OFFCURVE",
"188 494 OFFCURVE",
"188 467 CURVE SMOOTH",
"188 456 LINE SMOOTH",
"188 429 OFFCURVE",
"172 411 OFFCURVE",
"140 411 CURVE SMOOTH"
);
}
);
width = 280;
}
);
leftKerningGroup = colon;
unicode = 003A;
},
{
glyphname = comma;
layers = (
{
layerId = "5AF1D23B-5AA5-4E46-9E7A-B01C8844A7CF";
name = Light;
paths = (
{
closed = 1;
nodes = (
"163 92 OFFCURVE",
"178 73 OFFCURVE",
"178 46 CURVE SMOOTH",
"178 33 LINE SMOOTH",
"178 -23 OFFCURVE",
"144 -93 OFFCURVE",
"92 -138 CURVE",
"44 -138 LINE",
"88 -93 OFFCURVE",
"110 -51 OFFCURVE",
"118 -7 CURVE",
"91 -4 OFFCURVE",
"82 13 OFFCURVE",
"82 34 CURVE SMOOTH",
"82 46 LINE SMOOTH",
"82 73 OFFCURVE",
"97 92 OFFCURVE",
"130 92 CURVE SMOOTH"
);
}
);
width = 260;
}
);
leftKerningGroup = period;
rightKerningGroup = period;
unicode = 002C;
},
{
glyphname = semicolon;
layers = (
{
layerId = "5AF1D23B-5AA5-4E46-9E7A-B01C8844A7CF";
name = Light;
paths = (
{
closed = 1;
nodes = (
"173 92 OFFCURVE",
"188 73 OFFCURVE",
"188 46 CURVE SMOOTH",
"188 33 LINE SMOOTH",
"188 -23 OFFCURVE",
"154 -93 OFFCURVE",
"102 -138 CURVE",
"54 -138 LINE",
"98 -93 OFFCURVE",
"120 -51 OFFCURVE",
"128 -7 CURVE",
"101 -4 OFFCURVE",
"92 13 OFFCURVE",
"92 34 CURVE SMOOTH",
"92 46 LINE SMOOTH",
"92 73 OFFCURVE",
"107 92 OFFCURVE",
"140 92 CURVE SMOOTH"
);
},
{
closed = 1;
nodes = (
"106 411 OFFCURVE",
"91 429 OFFCURVE",
"91 456 CURVE SMOOTH",
"91 467 LINE SMOOTH",
"91 494 OFFCURVE",
"106 512 OFFCURVE",
"139 512 CURVE SMOOTH",
"171 512 OFFCURVE",
"187 494 OFFCURVE",
"187 467 CURVE SMOOTH",
"187 456 LINE SMOOTH",
"187 429 OFFCURVE",
"171 411 OFFCURVE",
"139 411 CURVE SMOOTH"
);
}
);
width = 280;
}
);
leftKerningGroup = colon;
unicode = 003B;
},
{
glyphname = quotesingle;
layers = (
{
layerId = "5AF1D23B-5AA5-4E46-9E7A-B01C8844A7CF";
name = Light;
paths = (
{
closed = 1;
nodes = (
"90 472 LINE",
"90 740 LINE",
"142 740 LINE",
"142 472 LINE"
);
}
);
width = 232;
}
);
leftKerningGroup = quotesingle;
rightKerningGroup = quotesingle;
unicode = 0027;
},
{
glyphname = quotedbl;
layers = (
{
layerId = "5AF1D23B-5AA5-4E46-9E7A-B01C8844A7CF";
name = Light;
paths = (
{
closed = 1;
nodes = (
"90 472 LINE",
"90 740 LINE",
"142 740 LINE",
"142 472 LINE"
);
},
{
closed = 1;
nodes = (
"258 472 LINE",
"258 740 LINE",
"310 740 LINE",
"310 472 LINE"
);
}
);
width = 400;
}
);
leftKerningGroup = quotesingle;
rightKerningGroup = quotesingle;
unicode = 0022;
},
{
glyphname = quoteleft;
layers = (
{
layerId = "5AF1D23B-5AA5-4E46-9E7A-B01C8844A7CF";
name = Light;
paths = (
{
closed = 1;
nodes = (
"93 510 OFFCURVE",
"78 528 OFFCURVE",
"78 556 CURVE SMOOTH",
"78 569 LINE SMOOTH",
"78 596 OFFCURVE",
"86 627 OFFCURVE",
"102 658 CURVE SMOOTH",
"117 689 OFFCURVE",
"137 717 OFFCURVE",
"164 740 CURVE",
"212 740 LINE",
"168 695 OFFCURVE",
"146 652 OFFCURVE",
"137 609 CURVE",
"164 605 OFFCURVE",
"174 589 OFFCURVE",
"174 568 CURVE SMOOTH",
"174 556 LINE SMOOTH",
"174 528 OFFCURVE",
"160 510 OFFCURVE",
"125 510 CURVE SMOOTH"
);
}
);
width = 260;
}
);
leftKerningGroup = quoteleft;
rightKerningGroup = quoteleft;
unicode = 2018;
},
{
glyphname = quoteright;
layers = (
{
layerId = "5AF1D23B-5AA5-4E46-9E7A-B01C8844A7CF";
name = Light;
paths = (
{
closed = 1;
nodes = (
"167 750 OFFCURVE",
"182 731 OFFCURVE",
"182 704 CURVE SMOOTH",
"182 691 LINE SMOOTH",
"182 635 OFFCURVE",
"148 565 OFFCURVE",
"96 520 CURVE",
"48 520 LINE",
"92 565 OFFCURVE",
"114 607 OFFCURVE",
"122 651 CURVE",
"97 654 OFFCURVE",
"86 671 OFFCURVE",
"86 692 CURVE SMOOTH",
"86 704 LINE SMOOTH",
"86 731 OFFCURVE",
"101 750 OFFCURVE",
"134 750 CURVE SMOOTH"
);
}
);
width = 260;
}
);
leftKerningGroup = quoteright;
rightKerningGroup = quoteright;
unicode = 2019;
},
{
glyphname = quotedblleft;
layers = (
{
layerId = "5AF1D23B-5AA5-4E46-9E7A-B01C8844A7CF";
name = Light;
paths = (
{
closed = 1;
nodes = (
"93 510 OFFCURVE",
"78 528 OFFCURVE",
"78 556 CURVE SMOOTH",
"78 569 LINE SMOOTH",
"78 596 OFFCURVE",
"86 627 OFFCURVE",
"102 658 CURVE SMOOTH",
"117 689 OFFCURVE",
"137 717 OFFCURVE",
"164 740 CURVE",
"212 740 LINE",
"168 695 OFFCURVE",
"146 652 OFFCURVE",
"137 609 CURVE",
"164 605 OFFCURVE",
"174 589 OFFCURVE",
"174 568 CURVE SMOOTH",
"174 556 LINE SMOOTH",
"174 528 OFFCURVE",
"160 510 OFFCURVE",
"125 510 CURVE SMOOTH"
);
},
{
closed = 1;
nodes = (
"279 510 OFFCURVE",
"264 528 OFFCURVE",
"264 556 CURVE SMOOTH",
"264 569 LINE SMOOTH",
"264 596 OFFCURVE",
"272 627 OFFCURVE",
"288 658 CURVE SMOOTH",
"303 689 OFFCURVE",
"323 717 OFFCURVE",
"350 740 CURVE",
"398 740 LINE",
"354 695 OFFCURVE",
"332 652 OFFCURVE",
"323 609 CURVE",
"350 605 OFFCURVE",
"360 589 OFFCURVE",
"360 568 CURVE SMOOTH",
"360 556 LINE SMOOTH",
"360 528 OFFCURVE",
"346 510 OFFCURVE",
"311 510 CURVE SMOOTH"
);
}
);
width = 446;
}
);
leftKerningGroup = quoteleft;
rightKerningGroup = quoteleft;
unicode = 201C;
},
{
glyphname = quotedblright;
layers = (
{
layerId = "5AF1D23B-5AA5-4E46-9E7A-B01C8844A7CF";
name = Light;
paths = (
{
closed = 1;
nodes = (
"167 750 OFFCURVE",
"182 731 OFFCURVE",
"182 704 CURVE SMOOTH",
"182 691 LINE SMOOTH",
"182 635 OFFCURVE",
"148 565 OFFCURVE",
"96 520 CURVE",
"48 520 LINE",
"92 565 OFFCURVE",
"114 607 OFFCURVE",
"122 651 CURVE",
"97 654 OFFCURVE",
"86 671 OFFCURVE",
"86 692 CURVE SMOOTH",
"86 704 LINE SMOOTH",
"86 731 OFFCURVE",
"101 750 OFFCURVE",
"134 750 CURVE SMOOTH"
);
},
{
closed = 1;
nodes = (
"352 750 OFFCURVE",
"367 731 OFFCURVE",
"367 704 CURVE SMOOTH",
"367 691 LINE SMOOTH",
"367 635 OFFCURVE",
"333 565 OFFCURVE",
"281 520 CURVE",
"233 520 LINE",
"277 565 OFFCURVE",
"299 607 OFFCURVE",
"307 651 CURVE",
"282 654 OFFCURVE",
"271 671 OFFCURVE",
"271 692 CURVE SMOOTH",
"271 704 LINE SMOOTH",
"271 731 OFFCURVE",
"286 750 OFFCURVE",
"319 750 CURVE SMOOTH"
);
}
);
width = 445;
}
);
leftKerningGroup = quoteright;
rightKerningGroup = quoteright;
unicode = 201D;
},
{
glyphname = quotesinglbase;
layers = (
{
layerId = "5AF1D23B-5AA5-4E46-9E7A-B01C8844A7CF";
name = Light;
paths = (
{
closed = 1;
nodes = (
"161 107 OFFCURVE",
"176 88 OFFCURVE",
"176 61 CURVE SMOOTH",
"176 48 LINE SMOOTH",
"176 -8 OFFCURVE",
"142 -78 OFFCURVE",
"90 -123 CURVE",
"42 -123 LINE",
"86 -78 OFFCURVE",
"108 -36 OFFCURVE",
"116 8 CURVE",
"91 11 OFFCURVE",
"80 28 OFFCURVE",
"80 49 CURVE SMOOTH",
"80 61 LINE SMOOTH",
"80 88 OFFCURVE",
"95 107 OFFCURVE",
"128 107 CURVE SMOOTH"
);
}
);
width = 260;
}
);
leftKerningGroup = period;
rightKerningGroup = period;
unicode = 201A;
},
{
glyphname = quotedblbase;
layers = (
{
layerId = "5AF1D23B-5AA5-4E46-9E7A-B01C8844A7CF";
name = Light;
paths = (
{
closed = 1;
nodes = (
"161 107 OFFCURVE",
"176 88 OFFCURVE",
"176 61 CURVE SMOOTH",
"176 48 LINE SMOOTH",
"176 -8 OFFCURVE",
"142 -78 OFFCURVE",
"90 -123 CURVE",
"42 -123 LINE",
"86 -78 OFFCURVE",
"108 -36 OFFCURVE",
"116 8 CURVE",
"91 11 OFFCURVE",
"80 28 OFFCURVE",
"80 49 CURVE SMOOTH",
"80 61 LINE SMOOTH",
"80 88 OFFCURVE",
"95 107 OFFCURVE",
"128 107 CURVE SMOOTH"
);
},
{
closed = 1;
nodes = (
"346 107 OFFCURVE",
"361 88 OFFCURVE",
"361 61 CURVE SMOOTH",
"361 48 LINE SMOOTH",
"361 -8 OFFCURVE",
"327 -78 OFFCURVE",
"275 -123 CURVE",
"227 -123 LINE",
"271 -78 OFFCURVE",
"293 -36 OFFCURVE",
"301 8 CURVE",
"276 11 OFFCURVE",
"265 28 OFFCURVE",
"265 49 CURVE SMOOTH",
"265 61 LINE SMOOTH",
"265 88 OFFCURVE",
"280 107 OFFCURVE",
"313 107 CURVE SMOOTH"
);
}
);
width = 445;
}
);
leftKerningGroup = period;
rightKerningGroup = period;
unicode = 201E;
},
{
glyphname = guilsinglleft;
layers = (
{
layerId = "5AF1D23B-5AA5-4E46-9E7A-B01C8844A7CF";
name = Light;
paths = (
{
closed = 1;
nodes = (
"230 90 LINE",
"35 261 LINE",
"35 315 LINE",
"230 486 LINE",
"248 447 LINE",
"92 288 LINE",
"248 129 LINE"
);
}
);
width = 299;
}
);
leftKerningGroup = guilsinglleft;
rightKerningGroup = guilsinglleft;
unicode = 2039;
},
{
glyphname = guilsinglright;
layers = (
{
layerId = "5AF1D23B-5AA5-4E46-9E7A-B01C8844A7CF";
name = Light;
paths = (
{
closed = 1;
nodes = (
"51 129 LINE",
"207 288 LINE",
"51 447 LINE",
"69 486 LINE",
"264 315 LINE",
"264 261 LINE",
"69 90 LINE"
);
}
);
width = 299;
}
);
leftKerningGroup = guilsinglright;
rightKerningGroup = guilsinglright;
unicode = 203A;
},
{
glyphname = guillemotleft;
layers = (
{
layerId = "5AF1D23B-5AA5-4E46-9E7A-B01C8844A7CF";
name = Light;
paths = (
{
closed = 1;
nodes = (
"230 90 LINE",
"35 261 LINE",
"35 315 LINE",
"230 486 LINE",
"248 447 LINE",
"92 288 LINE",
"248 129 LINE"
);
},
{
closed = 1;
nodes = (
"428 90 LINE",
"233 261 LINE",
"233 315 LINE",
"428 486 LINE",
"446 447 LINE",
"290 288 LINE",
"446 129 LINE"
);
}
);
width = 497;
}
);
leftKerningGroup = guilsinglleft;
rightKerningGroup = guilsinglleft;
unicode = 00AB;
},
{
glyphname = guillemotright;
layers = (
{
layerId = "5AF1D23B-5AA5-4E46-9E7A-B01C8844A7CF";
name = Light;
paths = (
{
closed = 1;
nodes = (
"51 129 LINE",
"207 288 LINE",
"51 447 LINE",
"69 486 LINE",
"264 315 LINE",
"264 261 LINE",
"69 90 LINE"
);
},
{
closed = 1;
nodes = (
"249 129 LINE",
"405 288 LINE",
"249 447 LINE",
"267 486 LINE",
"462 315 LINE",
"462 261 LINE",
"267 90 LINE"
);
}
);
width = 497;
}
);
leftKerningGroup = guilsinglright;
rightKerningGroup = guilsinglright;
unicode = 00BB;
},
{
glyphname = exclamdown;
layers = (
{
layerId = "5AF1D23B-5AA5-4E46-9E7A-B01C8844A7CF";
name = Light;
paths = (
{
closed = 1;
nodes = (
"104 -185 LINE",
"104 49 LINE",
"121 331 LINE",
"150 331 LINE",
"166 49 LINE",
"166 -185 LINE"
);
},
{
closed = 1;
nodes = (
"103 420 OFFCURVE",
"88 438 OFFCURVE",
"88 465 CURVE SMOOTH",
"88 476 LINE SMOOTH",
"88 503 OFFCURVE",
"103 521 OFFCURVE",
"136 521 CURVE SMOOTH",
"168 521 OFFCURVE",
"184 503 OFFCURVE",
"184 476 CURVE SMOOTH",
"184 465 LINE SMOOTH",
"184 438 OFFCURVE",
"168 420 OFFCURVE",
"136 420 CURVE SMOOTH"
);
}
);
width = 272;
}
);
rightKerningGroup = exclamdown;
unicode = 00A1;
},
{
glyphname = exclam;
layers = (
{
layerId = "5AF1D23B-5AA5-4E46-9E7A-B01C8844A7CF";
name = Light;
paths = (
{
closed = 1;
nodes = (
"121 181 LINE",
"105 464 LINE",
"105 698 LINE",
"167 698 LINE",
"167 464 LINE",
"150 181 LINE"
);
},
{
closed = 1;
nodes = (
"103 -9 OFFCURVE",
"88 9 OFFCURVE",
"88 36 CURVE SMOOTH",
"88 47 LINE SMOOTH",
"88 74 OFFCURVE",
"103 92 OFFCURVE",
"136 92 CURVE SMOOTH",
"168 92 OFFCURVE",
"184 74 OFFCURVE",
"184 47 CURVE SMOOTH",
"184 36 LINE SMOOTH",
"184 9 OFFCURVE",
"168 -9 OFFCURVE",
"136 -9 CURVE SMOOTH"
);
}
);
width = 272;
}
);
leftKerningGroup = exclam;
unicode = 0021;
},
{
glyphname = questiondown;
layers = (
{
layerId = "5AF1D23B-5AA5-4E46-9E7A-B01C8844A7CF";
name = Light;
paths = (
{
closed = 1;
nodes = (
"110 -198 OFFCURVE",
"36 -126 OFFCURVE",
"36 -13 CURVE SMOOTH",
"36 48 OFFCURVE",
"57 96 OFFCURVE",
"93 129 CURVE SMOOTH",
"128 162 OFFCURVE",
"175 182 OFFCURVE",
"227 190 CURVE",
"227 316 LINE",
"282 316 LINE",
"282 149 LINE",
"165 145 OFFCURVE",
"98 88 OFFCURVE",
"98 -1 CURVE SMOOTH",
"98 -20 LINE SMOOTH",
"98 -96 OFFCURVE",
"149 -146 OFFCURVE",
"233 -146 CURVE SMOOTH",
"318 -146 OFFCURVE",
"368 -97 OFFCURVE",
"387 -21 CURVE",
"440 -40 LINE",
"428 -85 OFFCURVE",
"405 -125 OFFCURVE",
"371 -153 CURVE SMOOTH",
"337 -181 OFFCURVE",
"290 -198 OFFCURVE",
"231 -198 CURVE SMOOTH"
);
},
{
closed = 1;
nodes = (
"223 420 OFFCURVE",
"208 438 OFFCURVE",
"208 465 CURVE SMOOTH",
"208 476 LINE SMOOTH",
"208 503 OFFCURVE",
"223 521 OFFCURVE",
"256 521 CURVE SMOOTH",
"288 521 OFFCURVE",
"304 503 OFFCURVE",
"304 476 CURVE SMOOTH",
"304 465 LINE SMOOTH",
"304 438 OFFCURVE",
"288 420 OFFCURVE",
"256 420 CURVE SMOOTH"
);
}
);
width = 463;
}
);
leftKerningGroup = questiondown;
rightKerningGroup = questiondown;
unicode = 00BF;
},
{
glyphname = question;
layers = (
{
layerId = "5AF1D23B-5AA5-4E46-9E7A-B01C8844A7CF";
name = Light;
paths = (
{
closed = 1;
nodes = (
"186 196 LINE",
"186 363 LINE",
"303 367 OFFCURVE",
"371 424 OFFCURVE",
"371 513 CURVE SMOOTH",
"371 532 LINE SMOOTH",
"371 608 OFFCURVE",
"320 658 OFFCURVE",
"236 658 CURVE SMOOTH",
"149 658 OFFCURVE",
"101 609 OFFCURVE",
"81 533 CURVE",
"28 552 LINE",
"41 597 OFFCURVE",
"65 637 OFFCURVE",
"99 665 CURVE SMOOTH",
"133 693 OFFCURVE",
"179 710 OFFCURVE",
"238 710 CURVE SMOOTH",
"359 710 OFFCURVE",
"433 638 OFFCURVE",
"433 525 CURVE SMOOTH",
"433 464 OFFCURVE",
"412 417 OFFCURVE",
"377 383 CURVE SMOOTH",
"341 349 OFFCURVE",
"294 329 OFFCURVE",
"242 321 CURVE",
"242 196 LINE"
);
},
{
closed = 1;
nodes = (
"182 -9 OFFCURVE",
"167 8 OFFCURVE",
"167 36 CURVE SMOOTH",
"167 47 LINE SMOOTH",
"167 75 OFFCURVE",
"182 92 OFFCURVE",
"214 92 CURVE SMOOTH",
"247 92 OFFCURVE",
"262 75 OFFCURVE",
"262 47 CURVE SMOOTH",
"262 36 LINE SMOOTH",
"262 8 OFFCURVE",
"247 -9 OFFCURVE",
"214 -9 CURVE SMOOTH"
);
}
);
width = 469;
}
);
leftKerningGroup = question;
rightKerningGroup = question;
unicode = 003F;
},
{
glyphname = parenleft;
layers = (
{
layerId = "5AF1D23B-5AA5-4E46-9E7A-B01C8844A7CF";
name = Light;
paths = (
{
closed = 1;
nodes = (
"92 411 OFFCURVE",
"113 501 OFFCURVE",
"146 578 CURVE SMOOTH",
"179 654 OFFCURVE",
"225 717 OFFCURVE",
"274 760 CURVE",
"330 760 LINE",
"277 712 OFFCURVE",
"231 648 OFFCURVE",
"199 576 CURVE SMOOTH",
"166 503 OFFCURVE",
"146 423 OFFCURVE",
"146 344 CURVE SMOOTH",
"146 278 LINE SMOOTH",
"146 199 OFFCURVE",
"166 119 OFFCURVE",
"199 47 CURVE SMOOTH",
"232 -26 OFFCURVE",
"278 -92 OFFCURVE",
"330 -137 CURVE",
"274 -137 LINE",
"226 -96 OFFCURVE",
"180 -32 OFFCURVE",
"147 45 CURVE SMOOTH",
"114 121 OFFCURVE",
"92 212 OFFCURVE",
"92 312 CURVE SMOOTH"
);
}
);
width = 334;
}
);
rightKerningGroup = parenleft;
unicode = 0028;
},
{
glyphname = parenright;
layers = (
{
layerId = "5AF1D23B-5AA5-4E46-9E7A-B01C8844A7CF";
name = Light;
paths = (
{
closed = 1;
nodes = (
"242 212 OFFCURVE",
"220 121 OFFCURVE",
"187 45 CURVE SMOOTH",
"154 -32 OFFCURVE",
"108 -96 OFFCURVE",
"60 -137 CURVE",
"4 -137 LINE",
"56 -92 OFFCURVE",
"102 -26 OFFCURVE",
"135 47 CURVE SMOOTH",
"168 119 OFFCURVE",
"188 199 OFFCURVE",
"188 278 CURVE SMOOTH",
"188 344 LINE SMOOTH",
"188 423 OFFCURVE",
"168 503 OFFCURVE",
"136 576 CURVE SMOOTH",
"103 648 OFFCURVE",
"57 712 OFFCURVE",
"4 760 CURVE",
"60 760 LINE",
"109 717 OFFCURVE",
"155 654 OFFCURVE",
"188 578 CURVE SMOOTH",
"221 501 OFFCURVE",
"242 411 OFFCURVE",
"242 312 CURVE SMOOTH"
);
}
);
width = 334;
}
);
leftKerningGroup = parenright;
unicode = 0029;
},
{
glyphname = bracketleft;
layers = (
{
layerId = "5AF1D23B-5AA5-4E46-9E7A-B01C8844A7CF";
name = Light;
paths = (
{
closed = 1;
nodes = (
"99 -138 LINE",
"99 760 LINE",
"247 760 LINE",
"247 715 LINE",
"149 715 LINE",
"149 -93 LINE",
"247 -93 LINE",
"247 -138 LINE"
);
}
);
width = 311;
}
);
rightKerningGroup = bracketleft;
unicode = 005B;
},
{
glyphname = bracketright;
layers = (
{
layerId = "5AF1D23B-5AA5-4E46-9E7A-B01C8844A7CF";
name = Light;
paths = (
{
closed = 1;
nodes = (
"212 760 LINE",
"212 -138 LINE",
"64 -138 LINE",
"64 -93 LINE",
"162 -93 LINE",
"162 715 LINE",
"64 715 LINE",
"64 760 LINE"
);
}
);
width = 311;
}
);
leftKerningGroup = bracketright;
unicode = 005D;
},
{
glyphname = braceleft;
layers = (
{
layerId = "5AF1D23B-5AA5-4E46-9E7A-B01C8844A7CF";
name = Light;
paths = (
{
closed = 1;
nodes = (
"179 -138 LINE SMOOTH",
"140 -138 OFFCURVE",
"120 -113 OFFCURVE",
"120 -78 CURVE SMOOTH",
"120 191 LINE SMOOTH",
"120 250 OFFCURVE",
"82 278 OFFCURVE",
"23 278 CURVE",
"23 344 LINE",
"82 344 OFFCURVE",
"120 372 OFFCURVE",
"120 431 CURVE SMOOTH",
"120 700 LINE SMOOTH",
"120 735 OFFCURVE",
"140 760 OFFCURVE",
"179 760 CURVE SMOOTH",
"269 760 LINE",
"269 715 LINE",
"170 715 LINE",
"170 437 LINE SMOOTH",
"170 373 OFFCURVE",
"131 326 OFFCURVE",
"74 319 CURVE",
"74 303 LINE",
"131 296 OFFCURVE",
"170 249 OFFCURVE",
"170 185 CURVE SMOOTH",
"170 -93 LINE",
"269 -93 LINE",
"269 -138 LINE"
);
}
);
width = 332;
}
);
rightKerningGroup = bracketleft;
unicode = 007B;
},
{
glyphname = braceright;
layers = (
{
layerId = "5AF1D23B-5AA5-4E46-9E7A-B01C8844A7CF";
name = Light;
paths = (
{
closed = 1;
nodes = (
"153 760 LINE SMOOTH",
"192 760 OFFCURVE",
"212 735 OFFCURVE",
"212 700 CURVE SMOOTH",
"212 431 LINE SMOOTH",
"212 372 OFFCURVE",
"250 344 OFFCURVE",
"309 344 CURVE",
"309 278 LINE",
"250 278 OFFCURVE",
"212 250 OFFCURVE",
"212 191 CURVE SMOOTH",
"212 -78 LINE SMOOTH",
"212 -113 OFFCURVE",
"192 -138 OFFCURVE",
"153 -138 CURVE SMOOTH",
"63 -138 LINE",
"63 -93 LINE",
"162 -93 LINE",
"162 185 LINE SMOOTH",
"162 249 OFFCURVE",
"200 296 OFFCURVE",
"259 303 CURVE",
"259 319 LINE",
"200 326 OFFCURVE",
"162 373 OFFCURVE",
"162 437 CURVE SMOOTH",
"162 715 LINE",
"63 715 LINE",
"63 760 LINE"
);
}
);
width = 332;
}
);
leftKerningGroup = bracketright;
unicode = 007D;
},
{
glyphname = slash;
layers = (
{
layerId = "5AF1D23B-5AA5-4E46-9E7A-B01C8844A7CF";
name = Light;
paths = (
{
closed = 1;
nodes = (
"11 -151 LINE",
"263 740 LINE",
"314 740 LINE",
"62 -151 LINE"
);
}
);
width = 356;
}
);
leftKerningGroup = slash;
rightKerningGroup = slash;
unicode = 002F;
},
{
glyphname = backslash;
layers = (
{
layerId = "5AF1D23B-5AA5-4E46-9E7A-B01C8844A7CF";
name = Light;
paths = (
{
closed = 1;
nodes = (
"289 -151 LINE",
"40 740 LINE",
"92 740 LINE",
"341 -151 LINE"
);
}
);
width = 356;
}
);
unicode = 005C;
},
{
glyphname = fraction;
layers = (
{
layerId = "5AF1D23B-5AA5-4E46-9E7A-B01C8844A7CF";
name = Light;
paths = (
{
closed = 1;
nodes = (
"-186 0 LINE",
"285 698 LINE",
"334 698 LINE",
"-137 0 LINE"
);
}
);
width = 147;
}
);
unicode = 2044;
},
{
glyphname = percent;
layers = (
{
layerId = "5AF1D23B-5AA5-4E46-9E7A-B01C8844A7CF";
name = Light;
paths = (
{
closed = 1;
nodes = (
"185 0 LINE",
"669 698 LINE",
"725 698 LINE",
"241 0 LINE"
);
},
{
closed = 1;
nodes = (
"129 319 OFFCURVE",
"69 382 OFFCURVE",
"69 514 CURVE SMOOTH",
"69 647 OFFCURVE",
"129 710 OFFCURVE",
"221 710 CURVE SMOOTH",
"313 710 OFFCURVE",
"373 647 OFFCURVE",
"373 514 CURVE SMOOTH",
"373 382 OFFCURVE",
"313 319 OFFCURVE",
"221 319 CURVE SMOOTH"
);
},
{
closed = 1;
nodes = (
"281 357 OFFCURVE",
"321 398 OFFCURVE",
"321 490 CURVE SMOOTH",
"321 539 LINE SMOOTH",
"321 631 OFFCURVE",
"281 672 OFFCURVE",
"221 672 CURVE SMOOTH",
"161 672 OFFCURVE",
"121 631 OFFCURVE",
"121 539 CURVE SMOOTH",
"121 490 LINE SMOOTH",
"121 398 OFFCURVE",
"161 357 OFFCURVE",
"221 357 CURVE SMOOTH"
);
},
{
closed = 1;
nodes = (
"595 -12 OFFCURVE",
"535 51 OFFCURVE",
"535 183 CURVE SMOOTH",
"535 316 OFFCURVE",
"595 379 OFFCURVE",
"687 379 CURVE SMOOTH",
"779 379 OFFCURVE",
"839 316 OFFCURVE",
"839 183 CURVE SMOOTH",
"839 51 OFFCURVE",
"779 -12 OFFCURVE",
"687 -12 CURVE SMOOTH"
);
},
{
closed = 1;
nodes = (
"747 26 OFFCURVE",
"787 67 OFFCURVE",
"787 159 CURVE SMOOTH",
"787 208 LINE SMOOTH",
"787 300 OFFCURVE",
"747 341 OFFCURVE",
"687 341 CURVE SMOOTH",
"627 341 OFFCURVE",
"587 300 OFFCURVE",
"587 208 CURVE SMOOTH",
"587 159 LINE SMOOTH",
"587 67 OFFCURVE",
"627 26 OFFCURVE",
"687 26 CURVE SMOOTH"
);
}
);
width = 908;
}
);
rightKerningGroup = percent;
unicode = 0025;
},
{
glyphname = perthousand;
layers = (
{
layerId = "5AF1D23B-5AA5-4E46-9E7A-B01C8844A7CF";
name = Light;
paths = (
{
closed = 1;
nodes = (
"185 0 LINE",
"669 698 LINE",
"725 698 LINE",
"241 0 LINE"
);
},
{
closed = 1;
nodes = (
"129 319 OFFCURVE",
"69 382 OFFCURVE",
"69 514 CURVE SMOOTH",
"69 647 OFFCURVE",
"129 710 OFFCURVE",
"221 710 CURVE SMOOTH",
"313 710 OFFCURVE",
"373 647 OFFCURVE",
"373 514 CURVE SMOOTH",
"373 382 OFFCURVE",
"313 319 OFFCURVE",
"221 319 CURVE SMOOTH"
);
},
{
closed = 1;
nodes = (
"281 357 OFFCURVE",
"321 398 OFFCURVE",
"321 490 CURVE SMOOTH",
"321 539 LINE SMOOTH",
"321 631 OFFCURVE",
"281 672 OFFCURVE",
"221 672 CURVE SMOOTH",
"161 672 OFFCURVE",
"121 631 OFFCURVE",
"121 539 CURVE SMOOTH",
"121 490 LINE SMOOTH",
"121 398 OFFCURVE",
"161 357 OFFCURVE",
"221 357 CURVE SMOOTH"
);
},
{
closed = 1;
nodes = (
"595 -12 OFFCURVE",
"535 51 OFFCURVE",
"535 183 CURVE SMOOTH",
"535 316 OFFCURVE",
"595 379 OFFCURVE",
"687 379 CURVE SMOOTH",
"779 379 OFFCURVE",
"839 316 OFFCURVE",
"839 183 CURVE SMOOTH",
"839 51 OFFCURVE",
"779 -12 OFFCURVE",
"687 -12 CURVE SMOOTH"
);
},
{
closed = 1;
nodes = (
"747 26 OFFCURVE",
"787 67 OFFCURVE",
"787 159 CURVE SMOOTH",
"787 208 LINE SMOOTH",
"787 300 OFFCURVE",
"747 341 OFFCURVE",
"687 341 CURVE SMOOTH",
"627 341 OFFCURVE",
"587 300 OFFCURVE",
"587 208 CURVE SMOOTH",
"587 159 LINE SMOOTH",
"587 67 OFFCURVE",
"627 26 OFFCURVE",
"687 26 CURVE SMOOTH"
);
},
{
closed = 1;
nodes = (
"966 -12 OFFCURVE",
"906 51 OFFCURVE",
"906 183 CURVE SMOOTH",
"906 316 OFFCURVE",
"966 379 OFFCURVE",
"1058 379 CURVE SMOOTH",
"1150 379 OFFCURVE",
"1210 316 OFFCURVE",
"1210 183 CURVE SMOOTH",
"1210 51 OFFCURVE",
"1150 -12 OFFCURVE",
"1058 -12 CURVE SMOOTH"
);
},
{
closed = 1;
nodes = (
"1118 26 OFFCURVE",
"1158 67 OFFCURVE",
"1158 159 CURVE SMOOTH",
"1158 208 LINE SMOOTH",
"1158 300 OFFCURVE",
"1118 341 OFFCURVE",
"1058 341 CURVE SMOOTH",
"998 341 OFFCURVE",
"958 300 OFFCURVE",
"958 208 CURVE SMOOTH",
"958 159 LINE SMOOTH",
"958 67 OFFCURVE",
"998 26 OFFCURVE",
"1058 26 CURVE SMOOTH"
);
}
);
width = 1279;
}
);
rightKerningGroup = perthousand;
unicode = 2030;
},
{
glyphname = bar;
layers = (
{
layerId = "5AF1D23B-5AA5-4E46-9E7A-B01C8844A7CF";
name = Light;
paths = (
{
closed = 1;
nodes = (
"118 -138 LINE",
"118 760 LINE",
"167 760 LINE",
"167 -138 LINE"
);
}
);
width = 285;
}
);
unicode = 007C;
},
{
glyphname = brokenbar;
layers = (
{
layerId = "5AF1D23B-5AA5-4E46-9E7A-B01C8844A7CF";
name = Light;
paths = (
{
closed = 1;
nodes = (
"118 404 LINE",
"118 760 LINE",
"167 760 LINE",
"167 404 LINE"
);
},
{
closed = 1;
nodes = (
"118 -138 LINE",
"118 218 LINE",
"167 218 LINE",
"167 -138 LINE"
);
}
);
width = 285;
}
);
unicode = 00A6;
},
{
glyphname = section;
layers = (
{
layerId = "5AF1D23B-5AA5-4E46-9E7A-B01C8844A7CF";
name = Light;
paths = (
{
closed = 1;
nodes = (
"442 326 OFFCURVE",
"403 361 OFFCURVE",
"319 385 CURVE SMOOTH",
"255 404 LINE",
"242 407 OFFCURVE",
"230 412 OFFCURVE",
"218 417 CURVE",
"167 389 OFFCURVE",
"136 350 OFFCURVE",
"136 294 CURVE SMOOTH",
"136 229 OFFCURVE",
"175 194 OFFCURVE",
"258 170 CURVE SMOOTH",
"322 152 LINE SMOOTH",
"335 148 OFFCURVE",
"347 143 OFFCURVE",
"359 138 CURVE",
"410 167 OFFCURVE",
"442 205 OFFCURVE",
"442 261 CURVE SMOOTH"
);
},
{
closed = 1;
nodes = (
"462 -51 OFFCURVE",
"442 -89 OFFCURVE",
"409 -115 CURVE SMOOTH",
"376 -141 OFFCURVE",
"329 -155 OFFCURVE",
"274 -155 CURVE SMOOTH",
"207 -155 OFFCURVE",
"153 -135 OFFCURVE",
"112 -99 CURVE",
"145 -59 LINE",
"177 -86 OFFCURVE",
"218 -105 OFFCURVE",
"275 -105 CURVE SMOOTH",
"358 -105 OFFCURVE",
"406 -68 OFFCURVE",
"406 -4 CURVE SMOOTH",
"406 57 OFFCURVE",
"359 86 OFFCURVE",
"294 106 CURVE SMOOTH",
"229 126 LINE SMOOTH",
"129 157 OFFCURVE",
"80 204 OFFCURVE",
"80 281 CURVE SMOOTH",
"80 349 OFFCURVE",
"121 399 OFFCURVE",
"189 426 CURVE",
"189 432 LINE",
"144 461 OFFCURVE",
"115 502 OFFCURVE",
"115 559 CURVE SMOOTH",
"115 607 OFFCURVE",
"135 645 OFFCURVE",
"168 671 CURVE SMOOTH",
"201 697 OFFCURVE",
"248 710 OFFCURVE",
"303 710 CURVE SMOOTH",
"370 710 OFFCURVE",
"424 691 OFFCURVE",
"465 654 CURVE",
"432 614 LINE",
"400 642 OFFCURVE",
"359 660 OFFCURVE",
"302 660 CURVE SMOOTH",
"219 660 OFFCURVE",
"171 623 OFFCURVE",
"171 559 CURVE SMOOTH",
"171 498 OFFCURVE",
"218 470 OFFCURVE",
"283 450 CURVE SMOOTH",
"347 430 LINE SMOOTH",
"448 398 OFFCURVE",
"498 351 OFFCURVE",
"498 275 CURVE SMOOTH",
"498 206 OFFCURVE",
"456 156 OFFCURVE",
"388 129 CURVE",
"388 124 LINE",
"435 95 OFFCURVE",
"462 53 OFFCURVE",
"462 -3 CURVE SMOOTH"
);
}
);
width = 578;
}
);
unicode = 00A7;
},
{
glyphname = paragraph;
layers = (
{
layerId = "5AF1D23B-5AA5-4E46-9E7A-B01C8844A7CF";
name = Light;
paths = (
{
closed = 1;
nodes = (
"248 312 LINE",
"193 312 OFFCURVE",
"145 333 OFFCURVE",
"110 367 CURVE SMOOTH",
"74 401 OFFCURVE",
"52 449 OFFCURVE",
"52 505 CURVE SMOOTH",
"52 561 OFFCURVE",
"74 608 OFFCURVE",
"110 643 CURVE SMOOTH",
"145 678 OFFCURVE",
"193 698 OFFCURVE",
"248 698 CURVE SMOOTH",
"540 698 LINE",
"540 650 LINE",
"472 650 LINE",
"472 -149 LINE",
"419 -149 LINE",
"419 650 LINE",
"301 650 LINE",
"301 -149 LINE",
"248 -149 LINE"
);
}
);
width = 628;
}
);
unicode = 00B6;
},
{
glyphname = copyright;
layers = (
{
layerId = "5AF1D23B-5AA5-4E46-9E7A-B01C8844A7CF";
name = Light;
paths = (
{
closed = 1;
nodes = (
"279 -11 OFFCURVE",
"198 23 OFFCURVE",
"139 86 CURVE SMOOTH",
"80 149 OFFCURVE",
"45 238 OFFCURVE",
"45 349 CURVE SMOOTH",
"45 460 OFFCURVE",
"80 549 OFFCURVE",
"139 612 CURVE SMOOTH",
"198 675 OFFCURVE",
"279 709 OFFCURVE",
"374 709 CURVE SMOOTH",
"467 709 OFFCURVE",
"550 675 OFFCURVE",
"609 612 CURVE SMOOTH",
"668 549 OFFCURVE",
"703 460 OFFCURVE",
"703 349 CURVE SMOOTH",
"703 238 OFFCURVE",
"668 149 OFFCURVE",
"609 86 CURVE SMOOTH",
"550 23 OFFCURVE",
"467 -11 OFFCURVE",
"374 -11 CURVE SMOOTH"
);
},
{
closed = 1;
nodes = (
"457 32 OFFCURVE",
"527 63 OFFCURVE",
"576 115 CURVE SMOOTH",
"624 167 OFFCURVE",
"653 239 OFFCURVE",
"653 322 CURVE SMOOTH",
"653 376 LINE SMOOTH",
"653 459 OFFCURVE",
"624 531 OFFCURVE",
"576 583 CURVE SMOOTH",
"527 635 OFFCURVE",
"457 666 OFFCURVE",
"374 666 CURVE SMOOTH",
"291 666 OFFCURVE",
"221 635 OFFCURVE",
"173 583 CURVE SMOOTH",
"124 531 OFFCURVE",
"95 459 OFFCURVE",
"95 376 CURVE SMOOTH",
"95 322 LINE SMOOTH",
"95 239 OFFCURVE",
"124 167 OFFCURVE",
"173 115 CURVE SMOOTH",
"221 63 OFFCURVE",
"291 32 OFFCURVE",
"374 32 CURVE SMOOTH"
);
},
{
closed = 1;
nodes = (
"278 153 OFFCURVE",
"219 225 OFFCURVE",
"219 348 CURVE SMOOTH",
"219 471 OFFCURVE",
"278 543 OFFCURVE",
"378 543 CURVE SMOOTH",
"445 543 OFFCURVE",
"487 509 OFFCURVE",
"507 458 CURVE",
"466 437 LINE",
"451 476 OFFCURVE",
"423 498 OFFCURVE",
"378 498 CURVE SMOOTH",
"311 498 OFFCURVE",
"273 451 OFFCURVE",
"273 371 CURVE SMOOTH",
"273 324 LINE SMOOTH",
"273 244 OFFCURVE",
"311 198 OFFCURVE",
"378 198 CURVE SMOOTH",
"425 198 OFFCURVE",
"453 222 OFFCURVE",
"473 261 CURVE",
"513 238 LINE",
"490 189 OFFCURVE",
"445 153 OFFCURVE",
"377 153 CURVE SMOOTH"
);
}
);
width = 748;
}
);
leftKerningGroup = copyright;
unicode = 00A9;
},
{
glyphname = registered;
layers = (
{
layerId = "5AF1D23B-5AA5-4E46-9E7A-B01C8844A7CF";
name = Light;
paths = (
{
closed = 1;
nodes = (
"180 298 OFFCURVE",
"131 320 OFFCURVE",
"96 357 CURVE SMOOTH",
"60 393 OFFCURVE",
"38 444 OFFCURVE",
"38 504 CURVE SMOOTH",
"38 564 OFFCURVE",
"60 615 OFFCURVE",
"96 652 CURVE SMOOTH",
"131 688 OFFCURVE",
"180 710 OFFCURVE",
"236 710 CURVE SMOOTH",
"292 710 OFFCURVE",
"341 688 OFFCURVE",
"377 652 CURVE SMOOTH",
"412 615 OFFCURVE",
"434 564 OFFCURVE",
"434 504 CURVE SMOOTH",
"434 444 OFFCURVE",
"412 393 OFFCURVE",
"377 357 CURVE SMOOTH",
"341 320 OFFCURVE",
"292 298 OFFCURVE",
"236 298 CURVE SMOOTH"
);
},
{
closed = 1;
nodes = (
"284 329 OFFCURVE",
"325 348 OFFCURVE",
"354 378 CURVE SMOOTH",
"383 408 OFFCURVE",
"400 449 OFFCURVE",
"400 493 CURVE SMOOTH",
"400 515 LINE SMOOTH",
"400 559 OFFCURVE",
"383 601 OFFCURVE",
"354 631 CURVE SMOOTH",
"325 661 OFFCURVE",
"284 679 OFFCURVE",
"236 679 CURVE SMOOTH",
"188 679 OFFCURVE",
"147 661 OFFCURVE",
"118 631 CURVE SMOOTH",
"89 601 OFFCURVE",
"72 559 OFFCURVE",
"72 515 CURVE SMOOTH",
"72 493 LINE SMOOTH",
"72 449 OFFCURVE",
"89 408 OFFCURVE",
"118 378 CURVE SMOOTH",
"147 348 OFFCURVE",
"188 329 OFFCURVE",
"236 329 CURVE SMOOTH"
);
},
{
closed = 1;
nodes = (
"196 396 LINE",
"165 396 LINE",
"165 607 LINE",
"251 607 LINE SMOOTH",
"291 607 OFFCURVE",
"315 584 OFFCURVE",
"315 544 CURVE SMOOTH",
"315 509 OFFCURVE",
"297 491 OFFCURVE",
"273 484 CURVE",
"323 396 LINE",
"289 396 LINE",
"242 481 LINE",
"196 481 LINE"
);
},
{
closed = 1;
nodes = (
"250 506 LINE SMOOTH",
"271 506 OFFCURVE",
"282 516 OFFCURVE",
"282 535 CURVE SMOOTH",
"282 551 LINE SMOOTH",
"282 571 OFFCURVE",
"271 581 OFFCURVE",
"250 581 CURVE SMOOTH",
"196 581 LINE",
"196 506 LINE"
);
}
);
width = 472;
}
);
leftKerningGroup = registered;
rightKerningGroup = registered;
unicode = 00AE;
},
{
glyphname = trademark;
layers = (
{
layerId = "5AF1D23B-5AA5-4E46-9E7A-B01C8844A7CF";
name = Light;
paths = (
{
closed = 1;
nodes = (
"125 423 LINE",
"125 664 LINE",
"28 664 LINE",
"28 698 LINE",
"258 698 LINE",
"258 664 LINE",
"163 664 LINE",
"163 423 LINE"
);
},
{
closed = 1;
nodes = (
"318 423 LINE",
"318 698 LINE",
"365 698 LINE",
"441 551 LINE",
"444 551 LINE",
"520 698 LINE",
"565 698 LINE",
"565 423 LINE",
"531 423 LINE",
"531 643 LINE",
"528 643 LINE",
"442 481 LINE",
"356 643 LINE",
"353 643 LINE",
"353 423 LINE"
);
}
);
width = 650;
}
);
leftKerningGroup = trademark;
rightKerningGroup = trademark;
unicode = 2122;
},
{
glyphname = ordfeminine;
lastChange = "2018-11-02 02:42:07 +0000";
layers = (
{
layerId = "5AF1D23B-5AA5-4E46-9E7A-B01C8844A7CF";
name = Light;
paths = (
{
closed = 1;
nodes = (
"111 710 OFFCURVE",
"70 678 OFFCURVE",
"51 641 CURVE",
"83 617 LINE",
"98 652 OFFCURVE",
"132 671 OFFCURVE",
"177 671 CURVE SMOOTH",
"232 671 OFFCURVE",
"261 645 OFFCURVE",
"261 589 CURVE SMOOTH",
"261 550 LINE",
"180 550 LINE SMOOTH",
"87 550 OFFCURVE",
"40 517 OFFCURVE",
"40 450 CURVE SMOOTH",
"40 394 OFFCURVE",
"78 356 OFFCURVE",
"149 356 CURVE SMOOTH",
"212 356 OFFCURVE",
"245 385 OFFCURVE",
"260 414 CURVE",
"264 414 LINE",
"264 363 LINE",
"307 363 LINE",
"307 592 LINE SMOOTH",
"307 668 OFFCURVE",
"259 710 OFFCURVE",
"179 710 CURVE SMOOTH"
);
},
{
closed = 1;
nodes = (
"261 442 OFFCURVE",
"249 424 OFFCURVE",
"230 412 CURVE SMOOTH",
"210 400 OFFCURVE",
"185 393 OFFCURVE",
"158 393 CURVE SMOOTH",
"113 393 OFFCURVE",
"87 412 OFFCURVE",
"87 449 CURVE SMOOTH",
"87 460 LINE SMOOTH",
"87 497 OFFCURVE",
"118 515 OFFCURVE",
"179 515 CURVE SMOOTH",
"261 515 LINE",
"261 466 LINE SMOOTH"
);
}
);
width = 361;
}
);
unicode = 00AA;
},
{
glyphname = ordmasculine;
layers = (
{
layerId = "5AF1D23B-5AA5-4E46-9E7A-B01C8844A7CF";
name = Light;
paths = (
{
closed = 1;
nodes = (
"100 356 OFFCURVE",
"45 423 OFFCURVE",
"45 534 CURVE SMOOTH",
"45 642 OFFCURVE",
"100 710 OFFCURVE",
"193 710 CURVE SMOOTH",
"286 710 OFFCURVE",
"341 642 OFFCURVE",
"341 534 CURVE SMOOTH",
"341 423 OFFCURVE",
"286 356 OFFCURVE",
"193 356 CURVE SMOOTH"
);
},
{
closed = 1;
nodes = (
"258 395 OFFCURVE",
"292 444 OFFCURVE",
"292 508 CURVE SMOOTH",
"292 559 LINE SMOOTH",
"292 623 OFFCURVE",
"258 671 OFFCURVE",
"193 671 CURVE SMOOTH",
"128 671 OFFCURVE",
"94 623 OFFCURVE",
"94 559 CURVE SMOOTH",
"94 508 LINE SMOOTH",
"94 444 OFFCURVE",
"128 395 OFFCURVE",
"193 395 CURVE SMOOTH"
);
}
);
width = 386;
}
);
unicode = 00BA;
},
{
glyphname = degree;
layers = (
{
layerId = "5AF1D23B-5AA5-4E46-9E7A-B01C8844A7CF";
name = Light;
paths = (
{
closed = 1;
nodes = (
"185 370 OFFCURVE",
"145 388 OFFCURVE",
"115 419 CURVE SMOOTH",
"85 450 OFFCURVE",
"67 492 OFFCURVE",
"67 540 CURVE SMOOTH",
"67 588 OFFCURVE",
"85 630 OFFCURVE",
"115 661 CURVE SMOOTH",
"145 692 OFFCURVE",
"185 710 OFFCURVE",
"233 710 CURVE SMOOTH",
"281 710 OFFCURVE",
"322 692 OFFCURVE",
"352 661 CURVE SMOOTH",
"382 630 OFFCURVE",
"399 588 OFFCURVE",
"399 540 CURVE SMOOTH",
"399 492 OFFCURVE",
"382 450 OFFCURVE",
"352 419 CURVE SMOOTH",
"322 388 OFFCURVE",
"281 370 OFFCURVE",
"233 370 CURVE SMOOTH"
);
},
{
closed = 1;
nodes = (
"269 416 OFFCURVE",
"297 431 OFFCURVE",
"317 453 CURVE SMOOTH",
"337 475 OFFCURVE",
"348 505 OFFCURVE",
"348 540 CURVE SMOOTH",
"348 573 OFFCURVE",
"337 606 OFFCURVE",
"317 628 CURVE SMOOTH",
"297 650 OFFCURVE",
"269 664 OFFCURVE",
"233 664 CURVE SMOOTH",
"197 664 OFFCURVE",
"169 650 OFFCURVE",
"149 628 CURVE SMOOTH",
"129 606 OFFCURVE",
"118 573 OFFCURVE",
"118 540 CURVE SMOOTH",
"118 505 OFFCURVE",
"129 475 OFFCURVE",
"149 453 CURVE SMOOTH",
"169 431 OFFCURVE",
"197 416 OFFCURVE",
"233 416 CURVE SMOOTH"
);
}
);
width = 466;
}
);
unicode = 00B0;
},
{
glyphname = asterisk;
layers = (
{
layerId = "5AF1D23B-5AA5-4E46-9E7A-B01C8844A7CF";
name = Light;
paths = (
{
closed = 1;
nodes = (
"122 407 LINE",
"82 436 LINE",
"174 557 LINE",
"29 598 LINE",
"44 647 LINE",
"187 596 LINE",
"183 747 LINE",
"233 747 LINE",
"229 596 LINE",
"371 647 LINE",
"387 598 LINE",
"242 557 LINE",
"334 436 LINE",
"294 407 LINE",
"208 532 LINE"
);
}
);
width = 416;
}
);
leftKerningGroup = quotesingle;
rightKerningGroup = quotesingle;
unicode = 002A;
},
{
glyphname = dagger;
layers = (
{
layerId = "5AF1D23B-5AA5-4E46-9E7A-B01C8844A7CF";
name = Light;
paths = (
{
closed = 1;
nodes = (
"253 -200 LINE",
"253 466 LINE",
"54 466 LINE",
"54 512 LINE",
"253 512 LINE",
"253 740 LINE",
"304 740 LINE",
"304 512 LINE",
"503 512 LINE",
"503 466 LINE",
"304 466 LINE",
"304 -200 LINE"
);
}
);
width = 557;
}
);
unicode = 2020;
},
{
glyphname = daggerdbl;
layers = (
{
layerId = "5AF1D23B-5AA5-4E46-9E7A-B01C8844A7CF";
name = Light;
paths = (
{
closed = 1;
nodes = (
"253 -200 LINE",
"253 28 LINE",
"54 28 LINE",
"54 74 LINE",
"253 74 LINE",
"253 466 LINE",
"54 466 LINE",
"54 512 LINE",
"253 512 LINE",
"253 740 LINE",
"304 740 LINE",
"304 512 LINE",
"503 512 LINE",
"503 466 LINE",
"304 466 LINE",
"304 74 LINE",
"503 74 LINE",
"503 28 LINE",
"304 28 LINE",
"304 -200 LINE"
);
}
);
width = 557;
}
);
unicode = 2021;
},
{
glyphname = numbersign;
layers = (
{
layerId = "5AF1D23B-5AA5-4E46-9E7A-B01C8844A7CF";
name = Light;
paths = (
{
closed = 1;
nodes = (
"416 211 LINE",
"250 211 LINE",
"213 0 LINE",
"166 0 LINE",
"202 211 LINE",
"66 211 LINE",
"66 255 LINE",
"210 255 LINE",
"242 443 LINE",
"105 443 LINE",
"105 487 LINE",
"250 487 LINE",
"286 698 LINE",
"333 698 LINE",
"297 487 LINE",
"463 487 LINE",
"499 698 LINE",
"547 698 LINE",
"510 487 LINE",
"647 487 LINE",
"647 443 LINE",
"502 443 LINE",
"471 255 LINE",
"608 255 LINE",
"608 211 LINE",
"463 211 LINE",
"427 0 LINE",
"379 0 LINE"
);
},
{
closed = 1;
nodes = (
"423 255 LINE",
"455 443 LINE",
"289 443 LINE",
"257 255 LINE"
);
}
);
width = 713;
}
);
unicode = 0023;
},
{
glyphname = asciicircum;
layers = (
{
layerId = "5AF1D23B-5AA5-4E46-9E7A-B01C8844A7CF";
name = Light;
paths = (
{
closed = 1;
nodes = (
"499 306 LINE",
"302 644 LINE",
"298 644 LINE",
"101 306 LINE",
"57 330 LINE",
"269 698 LINE",
"331 698 LINE",
"543 330 LINE"
);
}
);
width = 600;
}
);
unicode = 005E;
},
{
glyphname = asciitilde;
layers = (
{
layerId = "5AF1D23B-5AA5-4E46-9E7A-B01C8844A7CF";
name = Light;
paths = (
{
closed = 1;
nodes = (
"376 245 OFFCURVE",
"344 258 OFFCURVE",
"292 282 CURVE SMOOTH",
"245 303 OFFCURVE",
"215 317 OFFCURVE",
"176 317 CURVE SMOOTH",
"141 317 OFFCURVE",
"119 306 OFFCURVE",
"88 281 CURVE",
"63 313 LINE",
"92 346 OFFCURVE",
"124 365 OFFCURVE",
"179 365 CURVE SMOOTH",
"224 365 OFFCURVE",
"256 352 OFFCURVE",
"308 328 CURVE SMOOTH",
"355 307 OFFCURVE",
"385 293 OFFCURVE",
"424 293 CURVE SMOOTH",
"459 293 OFFCURVE",
"481 304 OFFCURVE",
"512 329 CURVE",
"537 297 LINE",
"508 264 OFFCURVE",
"476 245 OFFCURVE",
"421 245 CURVE SMOOTH"
);
}
);
width = 600;
}
);
unicode = 007E;
},
{
glyphname = plus;
layers = (
{
layerId = "5AF1D23B-5AA5-4E46-9E7A-B01C8844A7CF";
name = Light;
paths = (
{
closed = 1;
nodes = (
"273 63 LINE",
"273 281 LINE",
"65 281 LINE",
"65 330 LINE",
"273 330 LINE",
"273 548 LINE",
"327 548 LINE",
"327 330 LINE",
"535 330 LINE",
"535 281 LINE",
"327 281 LINE",
"327 63 LINE"
);
}
);
width = 600;
}
);
unicode = 002B;
},
{
glyphname = minus;
layers = (
{
layerId = "5AF1D23B-5AA5-4E46-9E7A-B01C8844A7CF";
name = Light;
paths = (
{
closed = 1;
nodes = (
"65 281 LINE",
"65 330 LINE",
"535 330 LINE",
"535 281 LINE"
);
}
);
width = 600;
}
);
unicode = 2212;
},
{
glyphname = plusminus;
layers = (
{
layerId = "5AF1D23B-5AA5-4E46-9E7A-B01C8844A7CF";
name = Light;
paths = (
{
closed = 1;
nodes = (
"273 137 LINE",
"273 350 LINE",
"65 350 LINE",
"65 399 LINE",
"273 399 LINE",
"273 612 LINE",
"327 612 LINE",
"327 399 LINE",
"535 399 LINE",
"535 350 LINE",
"327 350 LINE",
"327 137 LINE"
);
},
{
closed = 1;
nodes = (
"65 0 LINE",
"65 49 LINE",
"535 49 LINE",
"535 0 LINE"
);
}
);
width = 600;
}
);
unicode = 00B1;
},
{
glyphname = multiply;
layers = (
{
layerId = "5AF1D23B-5AA5-4E46-9E7A-B01C8844A7CF";
name = Light;
paths = (
{
closed = 1;
nodes = (
"300 270 LINE",
"132 100 LINE",
"97 135 LINE",
"265 305 LINE",
"97 475 LINE",
"132 510 LINE",
"300 340 LINE",
"468 510 LINE",
"503 475 LINE",
"335 305 LINE",
"503 135 LINE",
"468 100 LINE"
);
}
);
width = 600;
}
);
unicode = 00D7;
},
{
glyphname = divide;
layers = (
{
layerId = "5AF1D23B-5AA5-4E46-9E7A-B01C8844A7CF";
name = Light;
paths = (
{
closed = 1;
nodes = (
"65 281 LINE",
"65 330 LINE",
"535 330 LINE",
"535 281 LINE"
);
},
{
closed = 1;
nodes = (
"263 63 OFFCURVE",
"249 80 OFFCURVE",
"249 103 CURVE SMOOTH",
"249 120 LINE SMOOTH",
"249 143 OFFCURVE",
"263 159 OFFCURVE",
"300 159 CURVE SMOOTH",
"337 159 OFFCURVE",
"351 143 OFFCURVE",
"351 120 CURVE SMOOTH",
"351 103 LINE SMOOTH",
"351 80 OFFCURVE",
"337 63 OFFCURVE",
"300 63 CURVE SMOOTH"
);
},
{
closed = 1;
nodes = (
"263 451 OFFCURVE",
"249 468 OFFCURVE",
"249 491 CURVE SMOOTH",
"249 507 LINE SMOOTH",
"249 530 OFFCURVE",
"263 547 OFFCURVE",
"300 547 CURVE SMOOTH",
"337 547 OFFCURVE",
"351 530 OFFCURVE",
"351 507 CURVE SMOOTH",
"351 491 LINE SMOOTH",
"351 468 OFFCURVE",
"337 451 OFFCURVE",
"300 451 CURVE SMOOTH"
);
}
);
width = 600;
}
);
unicode = 00F7;
},
{
glyphname = equal;
layers = (
{
layerId = "5AF1D23B-5AA5-4E46-9E7A-B01C8844A7CF";
name = Light;
paths = (
{
closed = 1;
nodes = (
"65 377 LINE",
"65 426 LINE",
"535 426 LINE",
"535 377 LINE"
);
},
{
closed = 1;
nodes = (
"65 186 LINE",
"65 235 LINE",
"535 235 LINE",
"535 186 LINE"
);
}
);
width = 600;
}
);
unicode = 003D;
},
{
glyphname = approxequal;
layers = (
{
layerId = "5AF1D23B-5AA5-4E46-9E7A-B01C8844A7CF";
name = Light;
paths = (
{
closed = 1;
nodes = (
"376 338 OFFCURVE",
"344 351 OFFCURVE",
"292 375 CURVE SMOOTH",
"245 396 OFFCURVE",
"215 410 OFFCURVE",
"176 410 CURVE SMOOTH",
"141 410 OFFCURVE",
"119 399 OFFCURVE",
"88 374 CURVE",
"63 406 LINE",
"92 439 OFFCURVE",
"124 458 OFFCURVE",
"179 458 CURVE SMOOTH",
"224 458 OFFCURVE",
"256 445 OFFCURVE",
"308 421 CURVE SMOOTH",
"355 400 OFFCURVE",
"385 386 OFFCURVE",
"424 386 CURVE SMOOTH",
"459 386 OFFCURVE",
"481 397 OFFCURVE",
"512 422 CURVE",
"537 390 LINE",
"508 357 OFFCURVE",
"476 338 OFFCURVE",
"421 338 CURVE SMOOTH"
);
},
{
closed = 1;
nodes = (
"376 153 OFFCURVE",
"344 166 OFFCURVE",
"292 190 CURVE SMOOTH",
"245 211 OFFCURVE",
"215 225 OFFCURVE",
"176 225 CURVE SMOOTH",
"141 225 OFFCURVE",
"119 214 OFFCURVE",
"88 189 CURVE",
"63 221 LINE",
"92 254 OFFCURVE",
"124 273 OFFCURVE",
"179 273 CURVE SMOOTH",
"224 273 OFFCURVE",
"256 260 OFFCURVE",
"308 236 CURVE SMOOTH",
"355 215 OFFCURVE",
"385 201 OFFCURVE",
"424 201 CURVE SMOOTH",
"459 201 OFFCURVE",
"481 212 OFFCURVE",
"512 237 CURVE",
"537 205 LINE",
"508 172 OFFCURVE",
"476 153 OFFCURVE",
"421 153 CURVE SMOOTH"
);
}
);
width = 600;
}
);
unicode = 2248;
},
{
glyphname = notequal;
layers = (
{
layerId = "5AF1D23B-5AA5-4E46-9E7A-B01C8844A7CF";
name = Light;
paths = (
{
closed = 1;
nodes = (
"147 80 LINE",
"207 186 LINE",
"65 186 LINE",
"65 235 LINE",
"234 235 LINE",
"314 377 LINE",
"65 377 LINE",
"65 426 LINE",
"341 426 LINE",
"401 532 LINE",
"453 532 LINE",
"393 426 LINE",
"535 426 LINE",
"535 377 LINE",
"366 377 LINE",
"286 235 LINE",
"535 235 LINE",
"535 186 LINE",
"259 186 LINE",
"199 80 LINE"
);
}
);
width = 600;
}
);
unicode = 2260;
},
{
glyphname = less;
layers = (
{
layerId = "5AF1D23B-5AA5-4E46-9E7A-B01C8844A7CF";
name = Light;
paths = (
{
closed = 1;
nodes = (
"88 260 LINE",
"88 316 LINE",
"512 568 LINE",
"512 508 LINE",
"143 291 LINE",
"143 285 LINE",
"512 68 LINE",
"512 8 LINE"
);
}
);
width = 600;
}
);
unicode = 003C;
},
{
glyphname = greater;
layers = (
{
layerId = "5AF1D23B-5AA5-4E46-9E7A-B01C8844A7CF";
name = Light;
paths = (
{
closed = 1;
nodes = (
"88 68 LINE",
"457 285 LINE",
"457 291 LINE",
"88 508 LINE",
"88 568 LINE",
"512 316 LINE",
"512 260 LINE",
"88 8 LINE"
);
}
);
width = 600;
}
);
unicode = 003E;
},
{
glyphname = lessequal;
layers = (
{
layerId = "5AF1D23B-5AA5-4E46-9E7A-B01C8844A7CF";
name = Light;
paths = (
{
closed = 1;
nodes = (
"88 0 LINE",
"88 49 LINE",
"512 49 LINE",
"512 0 LINE"
);
},
{
closed = 1;
nodes = (
"512 534 LINE",
"143 355 LINE",
"143 349 LINE",
"512 170 LINE",
"512 112 LINE",
"88 321 LINE",
"88 383 LINE",
"512 591 LINE"
);
}
);
width = 600;
}
);
unicode = 2264;
},
{
glyphname = greaterequal;
layers = (
{
layerId = "5AF1D23B-5AA5-4E46-9E7A-B01C8844A7CF";
name = Light;
paths = (
{
closed = 1;
nodes = (
"88 170 LINE",
"457 349 LINE",
"457 355 LINE",
"88 534 LINE",
"88 591 LINE",
"512 383 LINE",
"512 321 LINE",
"88 112 LINE"
);
},
{
closed = 1;
nodes = (
"88 49 LINE",
"512 49 LINE",
"512 0 LINE",
"88 0 LINE"
);
}
);
width = 600;
}
);
unicode = 2265;
},
{
glyphname = periodcentered;
layers = (
{
layerId = "5AF1D23B-5AA5-4E46-9E7A-B01C8844A7CF";
name = Light;
paths = (
{
closed = 1;
nodes = (
"125 255 OFFCURVE",
"110 273 OFFCURVE",
"110 300 CURVE SMOOTH",
"110 311 LINE SMOOTH",
"110 338 OFFCURVE",
"125 356 OFFCURVE",
"158 356 CURVE SMOOTH",
"190 356 OFFCURVE",
"206 338 OFFCURVE",
"206 311 CURVE SMOOTH",
"206 300 LINE SMOOTH",
"206 273 OFFCURVE",
"190 255 OFFCURVE",
"158 255 CURVE SMOOTH"
);
}
);
width = 316;
}
);
unicode = 00B7;
},
{
glyphname = bullet;
layers = (
{
layerId = "5AF1D23B-5AA5-4E46-9E7A-B01C8844A7CF";
name = Light;
paths = (
{
closed = 1;
nodes = (
"107 198 OFFCURVE",
"78 239 OFFCURVE",
"78 291 CURVE SMOOTH",
"78 317 LINE SMOOTH",
"78 369 OFFCURVE",
"107 410 OFFCURVE",
"186 410 CURVE SMOOTH",
"265 410 OFFCURVE",
"294 369 OFFCURVE",
"294 317 CURVE SMOOTH",
"294 291 LINE SMOOTH",
"294 239 OFFCURVE",
"265 198 OFFCURVE",
"186 198 CURVE SMOOTH"
);
}
);
width = 372;
}
);
unicode = 2022;
},
{
glyphname = lozenge;
layers = (
{
layerId = "5AF1D23B-5AA5-4E46-9E7A-B01C8844A7CF";
name = Light;
paths = (
{
closed = 1;
nodes = (
"272 0 LINE",
"50 349 LINE",
"272 698 LINE",
"329 698 LINE",
"550 349 LINE",
"329 0 LINE"
);
},
{
closed = 1;
nodes = (
"303 54 LINE",
"490 349 LINE",
"303 644 LINE",
"297 644 LINE",
"111 349 LINE",
"297 54 LINE"
);
}
);
width = 600;
}
);
unicode = 25CA;
},
{
glyphname = logicalnot;
layers = (
{
layerId = "5AF1D23B-5AA5-4E46-9E7A-B01C8844A7CF";
name = Light;
paths = (
{
closed = 1;
nodes = (
"478 88 LINE",
"478 281 LINE",
"65 281 LINE",
"65 330 LINE",
"529 330 LINE",
"529 88 LINE"
);
}
);
width = 600;
}
);
unicode = 00AC;
},
{
glyphname = radical;
layers = (
{
layerId = "5AF1D23B-5AA5-4E46-9E7A-B01C8844A7CF";
name = Light;
paths = (
{
closed = 1;
nodes = (
"267 0 LINE",
"136 466 LINE",
"28 466 LINE",
"28 512 LINE",
"179 512 LINE",
"306 51 LINE",
"310 51 LINE",
"499 698 LINE",
"555 698 LINE",
"347 0 LINE"
);
}
);
width = 600;
}
);
unicode = 221A;
},
{
glyphname = integral;
layers = (
{
layerId = "5AF1D23B-5AA5-4E46-9E7A-B01C8844A7CF";
name = Light;
paths = (
{
closed = 1;
nodes = (
"51 -150 LINE",
"171 -150 LINE",
"171 657 LINE SMOOTH",
"171 708 OFFCURVE",
"195 740 OFFCURVE",
"251 740 CURVE SMOOTH",
"348 740 LINE",
"348 690 LINE",
"228 690 LINE",
"228 -117 LINE SMOOTH",
"228 -168 OFFCURVE",
"203 -200 OFFCURVE",
"147 -200 CURVE SMOOTH",
"51 -200 LINE"
);
}
);
width = 398;
}
);
unicode = 222B;
},
{
glyphname = infinity;
layers = (
{
layerId = "5AF1D23B-5AA5-4E46-9E7A-B01C8844A7CF";
name = Light;
paths = (
{
closed = 1;
nodes = (
"138 119 OFFCURVE",
"95 138 OFFCURVE",
"66 171 CURVE SMOOTH",
"37 203 OFFCURVE",
"21 249 OFFCURVE",
"21 305 CURVE SMOOTH",
"21 361 OFFCURVE",
"37 407 OFFCURVE",
"66 440 CURVE SMOOTH",
"95 472 OFFCURVE",
"138 491 OFFCURVE",
"193 491 CURVE SMOOTH",
"289 491 OFFCURVE",
"351 440 OFFCURVE",
"379 344 CURVE",
"383 344 LINE",
"406 443 OFFCURVE",
"468 491 OFFCURVE",
"544 491 CURVE SMOOTH",
"599 491 OFFCURVE",
"642 472 OFFCURVE",
"671 440 CURVE SMOOTH",
"700 407 OFFCURVE",
"716 361 OFFCURVE",
"716 305 CURVE SMOOTH",
"716 249 OFFCURVE",
"700 203 OFFCURVE",
"671 171 CURVE SMOOTH",
"642 138 OFFCURVE",
"599 119 OFFCURVE",
"544 119 CURVE SMOOTH",
"448 119 OFFCURVE",
"386 170 OFFCURVE",
"358 266 CURVE",
"353 266 LINE",
"332 167 OFFCURVE",
"269 119 OFFCURVE",
"193 119 CURVE SMOOTH"
);
},
{
closed = 1;
nodes = (
"260 168 OFFCURVE",
"312 210 OFFCURVE",
"339 305 CURVE",
"312 402 OFFCURVE",
"260 442 OFFCURVE",
"192 442 CURVE SMOOTH",
"124 442 OFFCURVE",
"79 399 OFFCURVE",
"79 327 CURVE SMOOTH",
"79 283 LINE SMOOTH",
"79 211 OFFCURVE",
"124 168 OFFCURVE",
"192 168 CURVE SMOOTH"
);
},
{
closed = 1;
nodes = (
"612 168 OFFCURVE",
"658 211 OFFCURVE",
"658 283 CURVE SMOOTH",
"658 327 LINE SMOOTH",
"658 399 OFFCURVE",
"612 442 OFFCURVE",
"545 442 CURVE SMOOTH",
"477 442 OFFCURVE",
"423 400 OFFCURVE",
"398 305 CURVE",
"423 208 OFFCURVE",
"477 168 OFFCURVE",
"545 168 CURVE SMOOTH"
);
}
);
width = 737;
}
);
unicode = 221E;
},
{
glyphname = uni212E;
layers = (
{
layerId = "5AF1D23B-5AA5-4E46-9E7A-B01C8844A7CF";
name = Light;
paths = (
{
closed = 1;
nodes = (
"148 142 LINE",
"187 77 OFFCURVE",
"260 27 OFFCURVE",
"359 27 CURVE SMOOTH",
"482 27 OFFCURVE",
"557 86 OFFCURVE",
"605 174 CURVE",
"641 155 LINE",
"616 107 OFFCURVE",
"580 66 OFFCURVE",
"533 36 CURVE SMOOTH",
"486 6 OFFCURVE",
"428 -12 OFFCURVE",
"359 -12 CURVE SMOOTH",
"264 -12 OFFCURVE",
"185 24 OFFCURVE",
"129 88 CURVE SMOOTH",
"72 151 OFFCURVE",
"39 241 OFFCURVE",
"39 349 CURVE SMOOTH",
"39 457 OFFCURVE",
"72 547 OFFCURVE",
"128 611 CURVE SMOOTH",
"184 674 OFFCURVE",
"264 710 OFFCURVE",
"357 710 CURVE SMOOTH",
"450 710 OFFCURVE",
"530 674 OFFCURVE",
"586 611 CURVE SMOOTH",
"642 547 OFFCURVE",
"675 457 OFFCURVE",
"675 349 CURVE",
"148 349 LINE"
);
},
{
closed = 1;
nodes = (
"567 386 LINE",
"567 559 LINE",
"528 626 OFFCURVE",
"456 673 OFFCURVE",
"357 673 CURVE SMOOTH",
"260 673 OFFCURVE",
"187 626 OFFCURVE",
"148 559 CURVE",
"148 386 LINE"
);
}
);
width = 714;
}
);
unicode = 212E;
},
{
glyphname = uni2113;
layers = (
{
layerId = "5AF1D23B-5AA5-4E46-9E7A-B01C8844A7CF";
name = Light;
paths = (
{
closed = 1;
nodes = (
"168 -12 OFFCURVE",
"123 57 OFFCURVE",
"123 161 CURVE SMOOTH",
"123 181 LINE",
"103 165 OFFCURVE",
"82 151 OFFCURVE",
"62 138 CURVE",
"38 178 LINE",
"65 195 OFFCURVE",
"95 214 OFFCURVE",
"122 237 CURVE",
"122 565 LINE SMOOTH",
"122 700 OFFCURVE",
"172 752 OFFCURVE",
"251 752 CURVE SMOOTH",
"336 752 OFFCURVE",
"378 700 OFFCURVE",
"378 595 CURVE SMOOTH",
"378 458 OFFCURVE",
"301 332 OFFCURVE",
"177 219 CURVE",
"177 173 LINE SMOOTH",
"177 78 OFFCURVE",
"206 38 OFFCURVE",
"269 38 CURVE SMOOTH",
"336 38 OFFCURVE",
"373 86 OFFCURVE",
"404 147 CURVE",
"445 122 LINE",
"428 86 OFFCURVE",
"406 52 OFFCURVE",
"377 28 CURVE SMOOTH",
"348 4 OFFCURVE",
"310 -12 OFFCURVE",
"265 -12 CURVE SMOOTH"
);
},
{
closed = 1;
nodes = (
"230 704 OFFCURVE",
"213 696 OFFCURVE",
"199 676 CURVE SMOOTH",
"185 655 OFFCURVE",
"177 621 OFFCURVE",
"177 570 CURVE SMOOTH",
"177 281 LINE",
"266 373 OFFCURVE",
"325 482 OFFCURVE",
"325 587 CURVE SMOOTH",
"325 602 LINE SMOOTH",
"325 675 OFFCURVE",
"297 704 OFFCURVE",
"253 704 CURVE SMOOTH"
);
}
);
width = 477;
}
);
unicode = 2113;
},
{
glyphname = uni2116;
layers = (
{
layerId = "5AF1D23B-5AA5-4E46-9E7A-B01C8844A7CF";
name = Light;
paths = (
{
closed = 1;
nodes = (
"735 365 OFFCURVE",
"672 429 OFFCURVE",
"672 538 CURVE SMOOTH",
"672 591 OFFCURVE",
"688 635 OFFCURVE",
"716 665 CURVE SMOOTH",
"743 695 OFFCURVE",
"782 710 OFFCURVE",
"827 710 CURVE SMOOTH",
"872 710 OFFCURVE",
"911 695 OFFCURVE",
"939 665 CURVE SMOOTH",
"966 635 OFFCURVE",
"982 591 OFFCURVE",
"982 538 CURVE SMOOTH",
"982 429 OFFCURVE",
"919 365 OFFCURVE",
"827 365 CURVE SMOOTH"
);
},
{
closed = 1;
nodes = (
"99 0 LINE",
"99 698 LINE",
"169 698 LINE",
"527 81 LINE",
"530 81 LINE",
"530 698 LINE",
"586 698 LINE",
"586 0 LINE",
"515 0 LINE",
"158 612 LINE",
"155 612 LINE",
"155 0 LINE"
);
},
{
closed = 1;
nodes = (
"894 404 OFFCURVE",
"931 453 OFFCURVE",
"931 514 CURVE SMOOTH",
"931 561 LINE SMOOTH",
"931 621 OFFCURVE",
"894 671 OFFCURVE",
"827 671 CURVE SMOOTH",
"760 671 OFFCURVE",
"723 621 OFFCURVE",
"723 561 CURVE SMOOTH",
"723 514 LINE SMOOTH",
"723 453 OFFCURVE",
"760 404 OFFCURVE",
"827 404 CURVE SMOOTH"
);
},
{
closed = 1;
nodes = (
"690 259 LINE",
"690 307 LINE",
"964 307 LINE",
"964 259 LINE"
);
}
);
width = 1020;
}
);
unicode = 2116;
},
{
glyphname = partialdiff;
layers = (
{
layerId = "5AF1D23B-5AA5-4E46-9E7A-B01C8844A7CF";
name = Light;
paths = (
{
closed = 1;
nodes = (
"512 170 OFFCURVE",
"491 102 OFFCURVE",
"453 57 CURVE SMOOTH",
"415 12 OFFCURVE",
"359 -12 OFFCURVE",
"292 -12 CURVE SMOOTH",
"223 -12 OFFCURVE",
"167 13 OFFCURVE",
"128 57 CURVE SMOOTH",
"89 101 OFFCURVE",
"68 166 OFFCURVE",
"68 246 CURVE SMOOTH",
"68 326 OFFCURVE",
"90 391 OFFCURVE",
"128 435 CURVE SMOOTH",
"166 479 OFFCURVE",
"219 504 OFFCURVE",
"284 504 CURVE SMOOTH",
"347 504 OFFCURVE",
"391 480 OFFCURVE",
"423 439 CURVE",
"426 441 LINE",
"407 493 OFFCURVE",
"368 541 OFFCURVE",
"320 585 CURVE SMOOTH",
"271 628 OFFCURVE",
"211 666 OFFCURVE",
"148 698 CURVE",
"240 698 LINE",
"291 667 OFFCURVE",
"359 625 OFFCURVE",
"415 556 CURVE SMOOTH",
"470 487 OFFCURVE",
"512 393 OFFCURVE",
"512 261 CURVE SMOOTH"
);
},
{
closed = 1;
nodes = (
"386 37 OFFCURVE",
"452 100 OFFCURVE",
"452 216 CURVE SMOOTH",
"452 276 LINE SMOOTH",
"452 392 OFFCURVE",
"386 455 OFFCURVE",
"290 455 CURVE SMOOTH",
"194 455 OFFCURVE",
"129 392 OFFCURVE",
"129 276 CURVE SMOOTH",
"129 216 LINE SMOOTH",
"129 100 OFFCURVE",
"194 37 OFFCURVE",
"290 37 CURVE SMOOTH"
);
}
);
width = 585;
}
);
unicode = 2202;
},
{
glyphname = cent;
layers = (
{
layerId = "5AF1D23B-5AA5-4E46-9E7A-B01C8844A7CF";
name = Light;
paths = (
{
closed = 1;
nodes = (
"242 -114 LINE",
"242 -10 LINE",
"121 3 OFFCURVE",
"52 99 OFFCURVE",
"52 256 CURVE SMOOTH",
"52 413 OFFCURVE",
"121 509 OFFCURVE",
"242 522 CURVE",
"242 626 LINE",
"292 626 LINE",
"292 523 LINE",
"373 519 OFFCURVE",
"426 475 OFFCURVE",
"455 411 CURVE",
"409 388 LINE",
"385 439 OFFCURVE",
"348 469 OFFCURVE",
"291 473 CURVE",
"291 39 LINE",
"352 43 OFFCURVE",
"394 75 OFFCURVE",
"421 127 CURVE",
"463 99 LINE",
"432 35 OFFCURVE",
"376 -7 OFFCURVE",
"292 -11 CURVE",
"292 -114 LINE"
);
},
{
closed = 1;
nodes = (
"113 220 LINE SMOOTH",
"113 123 OFFCURVE",
"159 53 OFFCURVE",
"243 42 CURVE",
"243 471 LINE",
"159 459 OFFCURVE",
"113 391 OFFCURVE",
"113 292 CURVE SMOOTH"
);
}
);
width = 497;
}
);
unicode = 00A2;
},
{
glyphname = Euro;
layers = (
{
layerId = "5AF1D23B-5AA5-4E46-9E7A-B01C8844A7CF";
name = Light;
paths = (
{
closed = 1;
nodes = (
"550 99 OFFCURVE",
"522 60 OFFCURVE",
"483 32 CURVE SMOOTH",
"443 4 OFFCURVE",
"395 -12 OFFCURVE",
"335 -12 CURVE SMOOTH",
"163 -12 OFFCURVE",
"64 112 OFFCURVE",
"64 349 CURVE SMOOTH",
"64 586 OFFCURVE",
"163 710 OFFCURVE",
"335 710 CURVE SMOOTH",
"447 710 OFFCURVE",
"522 653 OFFCURVE",
"565 561 CURVE",
"518 533 LINE",
"487 609 OFFCURVE",
"423 657 OFFCURVE",
"335 657 CURVE SMOOTH",
"219 657 OFFCURVE",
"146 581 OFFCURVE",
"130 452 CURVE",
"389 452 LINE",
"389 404 LINE",
"126 404 LINE",
"126 386 LINE",
"126 312 LINE",
"126 294 LINE",
"389 294 LINE",
"389 246 LINE",
"130 246 LINE",
"147 117 OFFCURVE",
"220 41 OFFCURVE",
"335 41 CURVE SMOOTH",
"428 41 OFFCURVE",
"492 93 OFFCURVE",
"523 173 CURVE",
"570 144 LINE"
);
}
);
width = 616;
}
);
unicode = 20AC;
},
{
glyphname = florin;
layers = (
{
layerId = "5AF1D23B-5AA5-4E46-9E7A-B01C8844A7CF";
name = Light;
paths = (
{
closed = 1;
nodes = (
"2 -84 LINE",
"160 -84 LINE",
"199 305 LINE",
"44 305 LINE",
"50 357 LINE",
"204 357 LINE",
"230 615 LINE SMOOTH",
"235 666 OFFCURVE",
"264 698 OFFCURVE",
"320 698 CURVE SMOOTH",
"462 698 LINE",
"457 648 LINE",
"291 648 LINE",
"262 357 LINE",
"447 357 LINE",
"441 305 LINE",
"256 305 LINE",
"221 -51 LINE SMOOTH",
"216 -102 OFFCURVE",
"187 -134 OFFCURVE",
"131 -134 CURVE SMOOTH",
"-3 -134 LINE"
);
}
);
width = 486;
}
);
unicode = 0192;
},
{
glyphname = sterling;
layers = (
{
layerId = "5AF1D23B-5AA5-4E46-9E7A-B01C8844A7CF";
name = Light;
paths = (
{
closed = 1;
nodes = (
"82 0 LINE",
"82 71 LINE",
"138 102 OFFCURVE",
"164 162 OFFCURVE",
"164 230 CURVE SMOOTH",
"164 254 OFFCURVE",
"160 276 OFFCURVE",
"156 296 CURVE",
"64 296 LINE",
"64 346 LINE",
"142 346 LINE",
"125 397 OFFCURVE",
"105 443 OFFCURVE",
"105 503 CURVE SMOOTH",
"105 566 OFFCURVE",
"126 617 OFFCURVE",
"165 653 CURVE SMOOTH",
"204 689 OFFCURVE",
"258 710 OFFCURVE",
"326 710 CURVE SMOOTH",
"422 710 OFFCURVE",
"489 670 OFFCURVE",
"534 594 CURVE",
"488 562 LINE",
"451 625 OFFCURVE",
"399 657 OFFCURVE",
"324 657 CURVE SMOOTH",
"228 657 OFFCURVE",
"166 602 OFFCURVE",
"166 498 CURVE SMOOTH",
"166 441 OFFCURVE",
"186 394 OFFCURVE",
"202 346 CURVE",
"419 346 LINE",
"419 296 LINE",
"215 296 LINE",
"219 277 OFFCURVE",
"222 259 OFFCURVE",
"222 236 CURVE SMOOTH",
"222 159 OFFCURVE",
"188 92 OFFCURVE",
"140 57 CURVE",
"140 54 LINE",
"520 54 LINE",
"520 0 LINE"
);
}
);
width = 589;
}
);
unicode = 00A3;
},
{
glyphname = dollar;
layers = (
{
layerId = "5AF1D23B-5AA5-4E46-9E7A-B01C8844A7CF";
name = Light;
paths = (
{
closed = 1;
nodes = (
"270 -82 LINE",
"270 0 LINE",
"165 5 OFFCURVE",
"97 52 OFFCURVE",
"48 117 CURVE",
"91 154 LINE",
"136 95 OFFCURVE",
"190 58 OFFCURVE",
"270 51 CURVE",
"270 337 LINE",
"258 339 LINE SMOOTH",
"187 351 OFFCURVE",
"141 373 OFFCURVE",
"110 405 CURVE SMOOTH",
"79 436 OFFCURVE",
"67 476 OFFCURVE",
"67 523 CURVE SMOOTH",
"67 578 OFFCURVE",
"87 620 OFFCURVE",
"123 649 CURVE SMOOTH",
"159 678 OFFCURVE",
"210 694 OFFCURVE",
"270 698 CURVE",
"270 780 LINE",
"314 780 LINE",
"314 699 LINE",
"406 692 OFFCURVE",
"469 654 OFFCURVE",
"512 593 CURVE",
"468 560 LINE",
"433 609 OFFCURVE",
"385 640 OFFCURVE",
"314 647 CURVE",
"314 384 LINE",
"331 381 LINE SMOOTH",
"402 369 OFFCURVE",
"449 346 OFFCURVE",
"479 314 CURVE SMOOTH",
"509 282 OFFCURVE",
"520 242 OFFCURVE",
"520 194 CURVE SMOOTH",
"520 77 OFFCURVE",
"441 9 OFFCURVE",
"314 0 CURVE",
"314 -82 LINE"
);
},
{
closed = 1;
nodes = (
"463 276 OFFCURVE",
"413 316 OFFCURVE",
"321 329 CURVE SMOOTH",
"314 330 LINE",
"314 51 LINE",
"407 59 OFFCURVE",
"463 108 OFFCURVE",
"463 191 CURVE SMOOTH"
);
},
{
closed = 1;
nodes = (
"124 485 OFFCURVE",
"137 456 OFFCURVE",
"161 435 CURVE SMOOTH",
"184 414 OFFCURVE",
"217 401 OFFCURVE",
"260 393 CURVE SMOOTH",
"270 391 LINE",
"270 647 LINE",
"179 640 OFFCURVE",
"124 601 OFFCURVE",
"124 526 CURVE SMOOTH"
);
}
);
width = 578;
}
);
unicode = 0024;
},
{
glyphname = yen;
layers = (
{
layerId = "5AF1D23B-5AA5-4E46-9E7A-B01C8844A7CF";
name = Light;
paths = (
{
closed = 1;
nodes = (
"327 154 LINE",
"327 0 LINE",
"268 0 LINE",
"268 154 LINE",
"83 154 LINE",
"83 202 LINE",
"268 202 LINE",
"268 315 LINE",
"83 315 LINE",
"83 363 LINE",
"239 363 LINE",
"39 698 LINE",
"107 698 LINE",
"298 369 LINE",
"302 369 LINE",
"490 698 LINE",
"556 698 LINE",
"356 363 LINE",
"512 363 LINE",
"512 315 LINE",
"327 315 LINE",
"327 202 LINE",
"512 202 LINE",
"512 154 LINE"
);
}
);
width = 595;
}
);
unicode = 00A5;
},
{
glyphname = uni0E3F;
layers = (
{
layerId = "5AF1D23B-5AA5-4E46-9E7A-B01C8844A7CF";
name = Light;
paths = (
{
closed = 1;
nodes = (
"333 -82 LINE",
"284 -82 LINE",
"284 21 LINE",
"99 21 LINE",
"99 677 LINE",
"284 677 LINE",
"284 780 LINE",
"333 780 LINE",
"333 677 LINE",
"363 677 LINE SMOOTH",
"472 677 OFFCURVE",
"537 614 OFFCURVE",
"537 511 CURVE SMOOTH",
"537 424 OFFCURVE",
"491 384 OFFCURVE",
"428 369 CURVE",
"428 364 LINE",
"465 359 OFFCURVE",
"499 344 OFFCURVE",
"524 320 CURVE SMOOTH",
"549 295 OFFCURVE",
"565 258 OFFCURVE",
"565 206 CURVE SMOOTH",
"565 151 OFFCURVE",
"547 106 OFFCURVE",
"516 73 CURVE SMOOTH",
"485 40 OFFCURVE",
"440 21 OFFCURVE",
"387 21 CURVE SMOOTH",
"333 21 LINE"
);
},
{
closed = 1;
nodes = (
"284 386 LINE",
"284 623 LINE",
"158 623 LINE",
"158 386 LINE"
);
},
{
closed = 1;
nodes = (
"332 386 LINE",
"364 386 LINE SMOOTH",
"440 386 OFFCURVE",
"475 427 OFFCURVE",
"475 488 CURVE SMOOTH",
"475 523 LINE SMOOTH",
"475 584 OFFCURVE",
"440 623 OFFCURVE",
"364 623 CURVE SMOOTH",
"332 623 LINE"
);
},
{
closed = 1;
nodes = (
"284 75 LINE",
"284 336 LINE",
"158 336 LINE",
"158 75 LINE"
);
},
{
closed = 1;
nodes = (
"332 75 LINE",
"373 75 LINE SMOOTH",
"457 75 OFFCURVE",
"503 118 OFFCURVE",
"503 186 CURVE SMOOTH",
"503 224 LINE SMOOTH",
"503 292 OFFCURVE",
"457 336 OFFCURVE",
"373 336 CURVE SMOOTH",
"332 336 LINE"
);
}
);
width = 629;
}
);
unicode = 0E3F;
},
{
glyphname = uni20A1;
layers = (
{
layerId = "5AF1D23B-5AA5-4E46-9E7A-B01C8844A7CF";
name = Light;
paths = (
{
closed = 1;
nodes = (
"321 -1 LINE",
"293 0 OFFCURVE",
"267 4 OFFCURVE",
"244 13 CURVE",
"233 -82 LINE",
"185 -82 LINE",
"198 30 LINE",
"111 78 OFFCURVE",
"64 183 OFFCURVE",
"64 348 CURVE SMOOTH",
"64 555 OFFCURVE",
"139 668 OFFCURVE",
"272 695 CURVE",
"281 780 LINE",
"329 780 LINE",
"320 699 LINE",
"323 700 OFFCURVE",
"326 700 OFFCURVE",
"329 700 CURVE SMOOTH",
"331 700 OFFCURVE",
"333 700 OFFCURVE",
"336 700 CURVE SMOOTH",
"357 700 OFFCURVE",
"378 697 OFFCURVE",
"398 692 CURVE",
"408 780 LINE",
"456 780 LINE",
"445 679 LINE",
"501 655 OFFCURVE",
"540 611 OFFCURVE",
"567 551 CURVE",
"518 522 LINE",
"499 566 OFFCURVE",
"474 600 OFFCURVE",
"437 621 CURVE",
"373 55 LINE",
"448 66 OFFCURVE",
"496 113 OFFCURVE",
"523 184 CURVE",
"572 154 LINE",
"535 70 OFFCURVE",
"470 11 OFFCURVE",
"369 0 CURVE",
"360 -82 LINE",
"312 -82 LINE"
);
},
{
closed = 1;
nodes = (
"314 646 LINE",
"250 69 LINE",
"273 58 OFFCURVE",
"298 52 OFFCURVE",
"326 52 CURVE",
"392 638 LINE",
"374 643 OFFCURVE",
"356 646 OFFCURVE",
"337 646 CURVE SMOOTH"
);
},
{
closed = 1;
nodes = (
"128 307 LINE SMOOTH",
"128 205 OFFCURVE",
"154 134 OFFCURVE",
"206 93 CURVE",
"266 637 LINE",
"178 610 OFFCURVE",
"128 527 OFFCURVE",
"128 392 CURVE SMOOTH"
);
}
);
width = 618;
}
);
unicode = 20A1;
},
{
glyphname = uni20A4;
layers = (
{
layerId = "5AF1D23B-5AA5-4E46-9E7A-B01C8844A7CF";
name = Light;
paths = (
{
closed = 1;
nodes = (
"520 0 LINE",
"82 0 LINE",
"82 71 LINE",
"138 102 OFFCURVE",
"164 163 OFFCURVE",
"164 231 CURVE SMOOTH",
"164 243 LINE",
"64 243 LINE",
"64 291 LINE",
"157 291 LINE",
"154 310 OFFCURVE",
"149 329 OFFCURVE",
"142 347 CURVE SMOOTH",
"135 364 OFFCURVE",
"129 382 OFFCURVE",
"123 399 CURVE",
"64 399 LINE",
"64 447 LINE",
"111 447 LINE",
"107 464 OFFCURVE",
"105 482 OFFCURVE",
"105 503 CURVE SMOOTH",
"105 566 OFFCURVE",
"126 617 OFFCURVE",
"165 653 CURVE SMOOTH",
"204 689 OFFCURVE",
"258 710 OFFCURVE",
"326 710 CURVE SMOOTH",
"422 710 OFFCURVE",
"489 670 OFFCURVE",
"534 594 CURVE",
"488 562 LINE",
"451 625 OFFCURVE",
"399 657 OFFCURVE",
"324 657 CURVE SMOOTH",
"228 657 OFFCURVE",
"166 602 OFFCURVE",
"166 498 CURVE SMOOTH",
"166 479 OFFCURVE",
"169 463 OFFCURVE",
"173 447 CURVE",
"426 447 LINE",
"426 399 LINE",
"184 399 LINE",
"189 382 OFFCURVE",
"195 364 OFFCURVE",
"202 347 CURVE SMOOTH",
"209 329 OFFCURVE",
"214 310 OFFCURVE",
"217 291 CURVE",
"426 291 LINE",
"426 243 LINE",
"222 243 LINE",
"222 232 LINE SMOOTH",
"221 156 OFFCURVE",
"187 92 OFFCURVE",
"140 57 CURVE",
"140 54 LINE",
"520 54 LINE"
);
}
);
width = 589;
}
);
unicode = 20A4;
},
{
glyphname = uni20A6;
layers = (
{
layerId = "5AF1D23B-5AA5-4E46-9E7A-B01C8844A7CF";
name = Light;
paths = (
{
closed = 1;
nodes = (
"367 246 LINE",
"160 246 LINE",
"160 0 LINE",
"102 0 LINE",
"102 245 LINE",
"16 245 LINE",
"16 293 LINE",
"102 293 LINE",
"102 405 LINE",
"16 405 LINE",
"16 453 LINE",
"102 453 LINE",
"102 698 LINE",
"172 698 LINE",
"316 452 LINE",
"526 452 LINE",
"526 698 LINE",
"584 698 LINE",
"584 453 LINE",
"670 453 LINE",
"670 405 LINE",
"584 405 LINE",
"584 293 LINE",
"670 293 LINE",
"670 245 LINE",
"584 245 LINE",
"584 0 LINE",
"512 0 LINE"
);
},
{
closed = 1;
nodes = (
"344 291 LINE",
"163 607 LINE",
"160 607 LINE",
"160 291 LINE"
);
},
{
closed = 1;
nodes = (
"523 84 LINE",
"526 84 LINE",
"526 407 LINE",
"339 407 LINE"
);
}
);
width = 686;
}
);
unicode = 20A6;
},
{
glyphname = uni20A8;
layers = (
{
layerId = "5AF1D23B-5AA5-4E46-9E7A-B01C8844A7CF";
name = Light;
paths = (
{
closed = 1;
nodes = (
"681 39 OFFCURVE",
"630 -12 OFFCURVE",
"535 -12 CURVE SMOOTH",
"459 -12 OFFCURVE",
"408 16 OFFCURVE",
"373 88 CURVE SMOOTH",
"256 327 LINE",
"251 326 OFFCURVE",
"248 326 OFFCURVE",
"245 326 CURVE SMOOTH",
"242 326 OFFCURVE",
"239 326 OFFCURVE",
"236 326 CURVE SMOOTH",
"156 326 LINE",
"156 0 LINE",
"99 0 LINE",
"99 698 LINE",
"249 698 LINE SMOOTH",
"370 698 OFFCURVE",
"426 630 OFFCURVE",
"426 513 CURVE SMOOTH",
"426 420 OFFCURVE",
"390 357 OFFCURVE",
"313 336 CURVE",
"424 117 LINE SMOOTH",
"452 62 OFFCURVE",
"483 37 OFFCURVE",
"539 37 CURVE SMOOTH",
"592 37 OFFCURVE",
"627 66 OFFCURVE",
"627 114 CURVE SMOOTH",
"627 131 OFFCURVE",
"624 144 OFFCURVE",
"616 157 CURVE SMOOTH",
"608 170 OFFCURVE",
"593 185 OFFCURVE",
"569 206 CURVE SMOOTH",
"542 229 LINE SMOOTH",
"483 281 OFFCURVE",
"463 317 OFFCURVE",
"463 366 CURVE SMOOTH",
"463 395 OFFCURVE",
"473 423 OFFCURVE",
"493 443 CURVE SMOOTH",
"512 463 OFFCURVE",
"540 475 OFFCURVE",
"579 475 CURVE SMOOTH",
"615 475 OFFCURVE",
"649 467 OFFCURVE",
"678 444 CURVE",
"653 403 LINE",
"633 419 OFFCURVE",
"610 429 OFFCURVE",
"582 429 CURVE SMOOTH",
"539 429 OFFCURVE",
"517 404 OFFCURVE",
"517 367 CURVE SMOOTH",
"517 328 OFFCURVE",
"535 306 OFFCURVE",
"580 266 CURVE SMOOTH",
"605 245 LINE",
"634 218 OFFCURVE",
"653 199 OFFCURVE",
"665 180 CURVE SMOOTH",
"677 160 OFFCURVE",
"681 141 OFFCURVE",
"681 114 CURVE SMOOTH"
);
},
{
closed = 1;
nodes = (
"156 376 LINE",
"244 376 LINE SMOOTH",
"321 376 OFFCURVE",
"366 416 OFFCURVE",
"366 489 CURVE SMOOTH",
"366 534 LINE SMOOTH",
"366 607 OFFCURVE",
"321 645 OFFCURVE",
"244 645 CURVE SMOOTH",
"156 645 LINE"
);
}
);
width = 715;
}
);
unicode = 20A8;
},
{
glyphname = uni20A9;
layers = (
{
layerId = "5AF1D23B-5AA5-4E46-9E7A-B01C8844A7CF";
name = Light;
paths = (
{
closed = 1;
nodes = (
"567 245 LINE",
"359 245 LINE",
"292 0 LINE",
"225 0 LINE",
"164 243 LINE",
"39 243 LINE",
"39 291 LINE",
"153 291 LINE",
"125 404 LINE",
"39 404 LINE",
"39 452 LINE",
"113 452 LINE",
"51 698 LINE",
"111 698 LINE",
"171 450 LINE",
"363 450 LINE",
"430 698 LINE",
"501 698 LINE",
"566 450 LINE",
"761 450 LINE",
"822 698 LINE",
"882 698 LINE",
"818 452 LINE",
"893 452 LINE",
"893 404 LINE",
"806 404 LINE",
"777 291 LINE",
"893 291 LINE",
"893 243 LINE",
"764 243 LINE",
"701 0 LINE",
"633 0 LINE"
);
},
{
closed = 1;
nodes = (
"263 73 LINE",
"350 405 LINE",
"181 405 LINE",
"261 73 LINE"
);
},
{
closed = 1;
nodes = (
"668 74 LINE",
"750 405 LINE",
"578 405 LINE",
"665 74 LINE"
);
},
{
closed = 1;
nodes = (
"371 290 LINE",
"556 290 LINE",
"465 636 LINE",
"463 636 LINE"
);
}
);
width = 932;
}
);
unicode = 20A9;
},
{
glyphname = uni20AA;
layers = (
{
layerId = "5AF1D23B-5AA5-4E46-9E7A-B01C8844A7CF";
name = Light;
paths = (
{
closed = 1;
nodes = (
"270 552 LINE",
"327 552 LINE",
"327 50 LINE",
"505 50 LINE SMOOTH",
"533 50 OFFCURVE",
"559 57 OFFCURVE",
"579 76 CURVE SMOOTH",
"599 95 OFFCURVE",
"612 125 OFFCURVE",
"612 172 CURVE SMOOTH",
"612 698 LINE",
"669 698 LINE",
"669 182 LINE SMOOTH",
"669 58 OFFCURVE",
"604 0 OFFCURVE",
"505 0 CURVE SMOOTH",
"270 0 LINE"
);
},
{
closed = 1;
nodes = (
"99 0 LINE",
"99 698 LINE",
"331 698 LINE SMOOTH",
"380 698 OFFCURVE",
"422 684 OFFCURVE",
"451 654 CURVE SMOOTH",
"480 624 OFFCURVE",
"498 577 OFFCURVE",
"498 516 CURVE SMOOTH",
"498 146 LINE",
"441 146 LINE",
"441 526 LINE SMOOTH",
"441 573 OFFCURVE",
"427 603 OFFCURVE",
"407 622 CURVE SMOOTH",
"386 641 OFFCURVE",
"359 648 OFFCURVE",
"331 648 CURVE SMOOTH",
"156 648 LINE",
"156 0 LINE"
);
}
);
width = 768;
}
);
unicode = 20AA;
},
{
glyphname = uni20AB;
layers = (
{
layerId = "5AF1D23B-5AA5-4E46-9E7A-B01C8844A7CF";
name = Light;
paths = (
{
closed = 1;
nodes = (
"406 199 LINE",
"403 199 LINE",
"378 152 OFFCURVE",
"329 118 OFFCURVE",
"256 118 CURVE SMOOTH",
"140 118 OFFCURVE",
"70 194 OFFCURVE",
"70 337 CURVE SMOOTH",
"70 480 OFFCURVE",
"140 556 OFFCURVE",
"256 556 CURVE SMOOTH",
"329 556 OFFCURVE",
"378 521 OFFCURVE",
"403 474 CURVE",
"406 474 LINE",
"406 629 LINE",
"251 629 LINE",
"251 674 LINE",
"406 674 LINE",
"406 740 LINE",
"461 740 LINE",
"461 674 LINE",
"531 674 LINE",
"531 629 LINE",
"461 629 LINE",
"461 128 LINE",
"406 128 LINE"
);
},
{
closed = 1;
nodes = (
"310 165 OFFCURVE",
"343 175 OFFCURVE",
"367 195 CURVE SMOOTH",
"391 214 OFFCURVE",
"406 240 OFFCURVE",
"406 272 CURVE SMOOTH",
"406 401 LINE SMOOTH",
"406 433 OFFCURVE",
"391 460 OFFCURVE",
"367 480 CURVE SMOOTH",
"343 499 OFFCURVE",
"310 509 OFFCURVE",
"273 509 CURVE SMOOTH",
"184 509 OFFCURVE",
"129 455 OFFCURVE",
"129 368 CURVE SMOOTH",
"129 307 LINE SMOOTH",
"129 220 OFFCURVE",
"184 165 OFFCURVE",
"273 165 CURVE SMOOTH"
);
},
{
closed = 1;
nodes = (
"70 0 LINE",
"70 49 LINE",
"493 49 LINE",
"493 0 LINE"
);
}
);
width = 573;
}
);
unicode = 20AB;
},
{
glyphname = uni20AD;
layers = (
{
layerId = "5AF1D23B-5AA5-4E46-9E7A-B01C8844A7CF";
name = Light;
paths = (
{
closed = 1;
nodes = (
"162 0 LINE",
"102 0 LINE",
"102 339 LINE",
"13 339 LINE",
"13 389 LINE",
"102 389 LINE",
"102 698 LINE",
"162 698 LINE",
"162 389 LINE",
"247 389 LINE",
"487 698 LINE",
"554 698 LINE",
"311 389 LINE",
"539 389 LINE",
"539 339 LINE",
"315 339 LINE",
"570 0 LINE",
"499 0 LINE",
"248 339 LINE",
"162 339 LINE"
);
}
);
width = 599;
}
);
unicode = 20AD;
},
{
glyphname = uni20AE;
layers = (
{
layerId = "5AF1D23B-5AA5-4E46-9E7A-B01C8844A7CF";
name = Light;
paths = (
{
closed = 1;
nodes = (
"325 231 LINE",
"325 0 LINE",
"265 0 LINE",
"265 203 LINE",
"123 134 LINE",
"123 184 LINE",
"265 253 LINE",
"265 358 LINE",
"123 290 LINE",
"123 340 LINE",
"265 409 LINE",
"265 645 LINE",
"31 645 LINE",
"31 698 LINE",
"559 698 LINE",
"559 645 LINE",
"325 645 LINE",
"325 437 LINE",
"467 506 LINE",
"467 456 LINE",
"325 387 LINE",
"325 281 LINE",
"467 351 LINE",
"467 300 LINE"
);
}
);
width = 590;
}
);
unicode = 20AE;
},
{
glyphname = uni20B1;
layers = (
{
layerId = "5AF1D23B-5AA5-4E46-9E7A-B01C8844A7CF";
name = Light;
paths = (
{
closed = 1;
nodes = (
"162 0 LINE",
"102 0 LINE",
"102 356 LINE",
"17 356 LINE",
"17 404 LINE",
"102 404 LINE",
"102 512 LINE",
"17 512 LINE",
"17 560 LINE",
"102 560 LINE",
"102 698 LINE",
"331 698 LINE SMOOTH",
"427 698 OFFCURVE",
"484 645 OFFCURVE",
"505 560 CURVE",
"595 560 LINE",
"595 512 LINE",
"513 512 LINE",
"514 507 OFFCURVE",
"514 498 OFFCURVE",
"514 485 CURVE SMOOTH",
"514 472 OFFCURVE",
"514 463 OFFCURVE",
"514 458 CURVE SMOOTH",
"514 455 OFFCURVE",
"514 452 OFFCURVE",
"514 447 CURVE SMOOTH",
"514 442 OFFCURVE",
"514 436 OFFCURVE",
"514 431 CURVE SMOOTH",
"514 425 OFFCURVE",
"514 420 OFFCURVE",
"514 415 CURVE",
"513 410 OFFCURVE",
"513 406 OFFCURVE",
"513 404 CURVE",
"595 404 LINE",
"595 356 LINE",
"505 356 LINE",
"484 271 OFFCURVE",
"427 219 OFFCURVE",
"331 219 CURVE SMOOTH",
"162 219 LINE"
);
},
{
closed = 1;
nodes = (
"162 558 LINE",
"450 558 LINE",
"435 607 OFFCURVE",
"395 646 OFFCURVE",
"331 646 CURVE SMOOTH",
"162 646 LINE"
);
},
{
closed = 1;
nodes = (
"455 402 LINE",
"455 514 LINE",
"162 514 LINE",
"162 402 LINE"
);
},
{
closed = 1;
nodes = (
"331 271 LINE SMOOTH",
"396 271 OFFCURVE",
"438 307 OFFCURVE",
"451 358 CURVE",
"162 358 LINE",
"162 271 LINE"
);
}
);
width = 612;
}
);
unicode = 20B1;
},
{
glyphname = uni20B2;
layers = (
{
layerId = "5AF1D23B-5AA5-4E46-9E7A-B01C8844A7CF";
name = Light;
paths = (
{
closed = 1;
nodes = (
"233 -82 LINE",
"250 9 LINE",
"131 44 OFFCURVE",
"64 156 OFFCURVE",
"64 351 CURVE SMOOTH",
"64 584 OFFCURVE",
"163 700 OFFCURVE",
"338 700 CURVE SMOOTH",
"347 700 OFFCURVE",
"355 699 OFFCURVE",
"363 698 CURVE",
"377 780 LINE",
"429 780 LINE",
"414 691 LINE",
"487 672 OFFCURVE",
"543 625 OFFCURVE",
"574 554 CURVE",
"526 526 LINE",
"503 582 OFFCURVE",
"460 622 OFFCURVE",
"404 638 CURVE",
"356 348 LINE",
"590 348 LINE",
"590 239 LINE SMOOTH",
"590 151 OFFCURVE",
"558 92 OFFCURVE",
"510 53 CURVE SMOOTH",
"462 14 OFFCURVE",
"399 -2 OFFCURVE",
"338 -2 CURVE SMOOTH",
"323 -2 OFFCURVE",
"311 -1 OFFCURVE",
"299 0 CURVE",
"285 -82 LINE"
);
},
{
closed = 1;
nodes = (
"128 307 LINE SMOOTH",
"128 178 OFFCURVE",
"176 97 OFFCURVE",
"260 66 CURVE",
"355 646 LINE",
"353 647 OFFCURVE",
"351 647 OFFCURVE",
"348 647 CURVE SMOOTH",
"345 647 OFFCURVE",
"341 647 OFFCURVE",
"338 647 CURVE SMOOTH",
"205 647 OFFCURVE",
"128 557 OFFCURVE",
"128 392 CURVE SMOOTH"
);
},
{
closed = 1;
nodes = (
"347 294 LINE",
"307 53 LINE",
"320 52 OFFCURVE",
"332 51 OFFCURVE",
"345 51 CURVE SMOOTH",
"457 51 OFFCURVE",
"532 115 OFFCURVE",
"532 227 CURVE SMOOTH",
"532 294 LINE"
);
}
);
width = 665;
}
);
unicode = 20B2;
},
{
glyphname = uni20B4;
layers = (
{
layerId = "5AF1D23B-5AA5-4E46-9E7A-B01C8844A7CF";
name = Light;
paths = (
{
closed = 1;
nodes = (
"254 -12 OFFCURVE",
"203 6 OFFCURVE",
"168 38 CURVE SMOOTH",
"132 69 OFFCURVE",
"112 114 OFFCURVE",
"112 169 CURVE SMOOTH",
"112 206 OFFCURVE",
"123 233 OFFCURVE",
"136 257 CURVE",
"48 257 LINE",
"48 305 LINE",
"173 305 LINE",
"364 417 LINE",
"48 417 LINE",
"48 465 LINE",
"424 465 LINE",
"439 485 OFFCURVE",
"443 508 OFFCURVE",
"443 537 CURVE SMOOTH",
"443 616 OFFCURVE",
"391 657 OFFCURVE",
"307 657 CURVE SMOOTH",
"251 657 OFFCURVE",
"202 637 OFFCURVE",
"155 585 CURVE",
"117 624 LINE",
"173 685 OFFCURVE",
"240 710 OFFCURVE",
"311 710 CURVE SMOOTH",
"367 710 OFFCURVE",
"416 694 OFFCURVE",
"450 665 CURVE SMOOTH",
"484 636 OFFCURVE",
"503 593 OFFCURVE",
"503 541 CURVE SMOOTH",
"503 509 OFFCURVE",
"496 484 OFFCURVE",
"485 465 CURVE",
"573 465 LINE",
"573 417 LINE",
"449 417 LINE",
"259 305 LINE",
"573 305 LINE",
"573 257 LINE",
"199 257 LINE",
"182 233 OFFCURVE",
"172 208 OFFCURVE",
"172 173 CURVE SMOOTH",
"172 86 OFFCURVE",
"227 41 OFFCURVE",
"318 41 CURVE SMOOTH",
"378 41 OFFCURVE",
"431 65 OFFCURVE",
"488 125 CURVE",
"525 85 LINE",
"468 20 OFFCURVE",
"395 -12 OFFCURVE",
"315 -12 CURVE SMOOTH"
);
}
);
width = 621;
}
);
unicode = 20B4;
},
{
glyphname = uni20B5;
layers = (
{
layerId = "5AF1D23B-5AA5-4E46-9E7A-B01C8844A7CF";
name = Light;
paths = (
{
closed = 1;
nodes = (
"230 -82 LINE",
"246 10 LINE",
"130 45 OFFCURVE",
"64 157 OFFCURVE",
"64 349 CURVE SMOOTH",
"64 585 OFFCURVE",
"166 700 OFFCURVE",
"335 700 CURVE SMOOTH",
"339 700 OFFCURVE",
"343 700 OFFCURVE",
"347 700 CURVE SMOOTH",
"350 700 OFFCURVE",
"355 700 OFFCURVE",
"360 699 CURVE",
"373 780 LINE",
"425 780 LINE",
"410 690 LINE",
"482 671 OFFCURVE",
"535 623 OFFCURVE",
"567 552 CURVE",
"518 524 LINE",
"495 580 OFFCURVE",
"456 618 OFFCURVE",
"400 637 CURVE",
"304 54 LINE",
"309 53 OFFCURVE",
"315 52 OFFCURVE",
"320 52 CURVE SMOOTH",
"325 52 OFFCURVE",
"330 52 OFFCURVE",
"335 52 CURVE SMOOTH",
"430 52 OFFCURVE",
"492 103 OFFCURVE",
"523 183 CURVE",
"572 154 LINE",
"552 109 OFFCURVE",
"523 70 OFFCURVE",
"484 42 CURVE SMOOTH",
"445 14 OFFCURVE",
"396 -2 OFFCURVE",
"335 -2 CURVE SMOOTH",
"321 -2 OFFCURVE",
"308 -1 OFFCURVE",
"296 1 CURVE",
"281 -82 LINE"
);
},
{
closed = 1;
nodes = (
"128 307 LINE SMOOTH",
"128 178 OFFCURVE",
"175 97 OFFCURVE",
"256 66 CURVE",
"352 646 LINE",
"348 647 OFFCURVE",
"345 647 OFFCURVE",
"342 647 CURVE SMOOTH",
"339 647 OFFCURVE",
"337 647 OFFCURVE",
"335 647 CURVE SMOOTH",
"204 647 OFFCURVE",
"128 557 OFFCURVE",
"128 392 CURVE SMOOTH"
);
}
);
width = 618;
}
);
unicode = 20B5;
},
{
glyphname = uni20B8;
layers = (
{
layerId = "5AF1D23B-5AA5-4E46-9E7A-B01C8844A7CF";
name = Light;
paths = (
{
closed = 1;
nodes = (
"39 648 LINE",
"39 698 LINE",
"567 698 LINE",
"567 648 LINE"
);
},
{
closed = 1;
nodes = (
"333 492 LINE",
"333 0 LINE",
"273 0 LINE",
"273 492 LINE",
"39 492 LINE",
"39 542 LINE",
"567 542 LINE",
"567 492 LINE"
);
}
);
width = 606;
}
);
unicode = 20B8;
},
{
glyphname = uni20B9;
layers = (
{
layerId = "5AF1D23B-5AA5-4E46-9E7A-B01C8844A7CF";
name = Light;
paths = (
{
closed = 1;
nodes = (
"408 0 LINE",
"179 307 LINE",
"37 307 LINE",
"37 357 LINE",
"259 357 LINE SMOOTH",
"340 357 OFFCURVE",
"389 404 OFFCURVE",
"389 477 CURVE SMOOTH",
"389 482 LINE",
"37 482 LINE",
"37 532 LINE",
"389 532 LINE",
"386 603 OFFCURVE",
"339 648 OFFCURVE",
"260 648 CURVE SMOOTH",
"37 648 LINE",
"37 698 LINE",
"552 698 LINE",
"552 648 LINE",
"370 648 LINE",
"370 644 LINE",
"386 639 OFFCURVE",
"403 630 OFFCURVE",
"418 613 CURVE SMOOTH",
"433 596 OFFCURVE",
"443 569 OFFCURVE",
"447 532 CURVE",
"552 532 LINE",
"552 482 LINE",
"447 482 LINE",
"447 479 LINE SMOOTH",
"447 431 OFFCURVE",
"428 388 OFFCURVE",
"396 357 CURVE SMOOTH",
"363 325 OFFCURVE",
"315 307 OFFCURVE",
"258 307 CURVE SMOOTH",
"248 307 LINE",
"480 0 LINE"
);
}
);
width = 584;
}
);
unicode = 20B9;
},
{
glyphname = uni20BA;
layers = (
{
layerId = "5AF1D23B-5AA5-4E46-9E7A-B01C8844A7CF";
name = Light;
paths = (
{
closed = 1;
nodes = (
"127 270 LINE",
"17 217 LINE",
"17 267 LINE",
"127 320 LINE",
"127 426 LINE",
"17 372 LINE",
"17 423 LINE",
"127 476 LINE",
"127 698 LINE",
"187 698 LINE",
"187 504 LINE",
"400 607 LINE",
"400 556 LINE",
"187 453 LINE",
"187 348 LINE",
"400 451 LINE",
"400 401 LINE",
"187 298 LINE",
"187 52 LINE",
"306 52 LINE SMOOTH",
"367 52 OFFCURVE",
"416 78 OFFCURVE",
"449 123 CURVE SMOOTH",
"482 167 OFFCURVE",
"500 230 OFFCURVE",
"500 305 CURVE",
"559 305 LINE",
"559 220 OFFCURVE",
"538 144 OFFCURVE",
"496 89 CURVE SMOOTH",
"454 33 OFFCURVE",
"391 0 OFFCURVE",
"310 0 CURVE SMOOTH",
"127 0 LINE"
);
}
);
width = 608;
}
);
unicode = 20BA;
},
{
glyphname = uni20BD;
layers = (
{
layerId = "5AF1D23B-5AA5-4E46-9E7A-B01C8844A7CF";
name = Light;
paths = (
{
closed = 1;
nodes = (
"162 147 LINE",
"162 0 LINE",
"102 0 LINE",
"102 147 LINE",
"17 147 LINE",
"17 197 LINE",
"102 197 LINE",
"102 308 LINE",
"17 308 LINE",
"17 358 LINE",
"102 358 LINE",
"102 698 LINE",
"376 698 LINE SMOOTH",
"497 698 OFFCURVE",
"563 623 OFFCURVE",
"563 503 CURVE SMOOTH",
"563 383 OFFCURVE",
"497 308 OFFCURVE",
"376 308 CURVE SMOOTH",
"162 308 LINE",
"162 197 LINE",
"426 197 LINE",
"426 147 LINE"
);
},
{
closed = 1;
nodes = (
"162 358 LINE",
"376 358 LINE SMOOTH",
"457 358 OFFCURVE",
"499 408 OFFCURVE",
"499 476 CURVE SMOOTH",
"499 526 LINE SMOOTH",
"499 595 OFFCURVE",
"457 644 OFFCURVE",
"376 644 CURVE SMOOTH",
"162 644 LINE"
);
}
);
width = 604;
}
);
unicode = 20BD;
},
{
glyphname = uni20BF;
layers = (
{
layerId = "5AF1D23B-5AA5-4E46-9E7A-B01C8844A7CF";
name = Light;
paths = (
{
closed = 1;
nodes = (
"339 21 LINE",
"260 21 LINE",
"260 -82 LINE",
"210 -82 LINE",
"210 21 LINE",
"99 21 LINE",
"99 677 LINE",
"210 677 LINE",
"210 780 LINE",
"260 780 LINE",
"260 677 LINE",
"339 677 LINE",
"339 780 LINE",
"389 780 LINE",
"389 676 LINE",
"482 667 OFFCURVE",
"537 607 OFFCURVE",
"537 511 CURVE SMOOTH",
"537 424 OFFCURVE",
"492 384 OFFCURVE",
"428 369 CURVE",
"428 364 LINE",
"465 359 OFFCURVE",
"499 344 OFFCURVE",
"524 320 CURVE SMOOTH",
"549 295 OFFCURVE",
"565 258 OFFCURVE",
"565 206 CURVE SMOOTH",
"565 151 OFFCURVE",
"548 106 OFFCURVE",
"517 73 CURVE SMOOTH",
"486 40 OFFCURVE",
"442 21 OFFCURVE",
"389 21 CURVE",
"389 -82 LINE",
"339 -82 LINE"
);
},
{
closed = 1;
nodes = (
"158 387 LINE",
"364 387 LINE SMOOTH",
"441 387 OFFCURVE",
"475 428 OFFCURVE",
"475 488 CURVE SMOOTH",
"475 522 LINE SMOOTH",
"475 583 OFFCURVE",
"441 623 OFFCURVE",
"364 623 CURVE SMOOTH",
"158 623 LINE"
);
},
{
closed = 1;
nodes = (
"158 75 LINE",
"373 75 LINE SMOOTH",
"457 75 OFFCURVE",
"503 120 OFFCURVE",
"503 187 CURVE SMOOTH",
"503 224 LINE SMOOTH",
"503 291 OFFCURVE",
"457 336 OFFCURVE",
"373 336 CURVE SMOOTH",
"158 336 LINE"
);
}
);
width = 629;
}
);
unicode = 20BF;
},
{
glyphname = fi;
layers = (
{
layerId = "5AF1D23B-5AA5-4E46-9E7A-B01C8844A7CF";
name = Light;
paths = (
{
closed = 1;
nodes = (
"117 462 LINE",
"29 462 LINE",
"29 512 LINE",
"117 512 LINE",
"117 655 LINE SMOOTH",
"117 707 OFFCURVE",
"142 740 OFFCURVE",
"197 740 CURVE SMOOTH",
"287 740 LINE",
"287 690 LINE",
"174 690 LINE",
"174 512 LINE",
"452 512 LINE",
"452 0 LINE",
"395 0 LINE",
"395 462 LINE",
"174 462 LINE",
"174 0 LINE",
"117 0 LINE"
);
},
{
closed = 1;
nodes = (
"396 651 OFFCURVE",
"385 666 OFFCURVE",
"385 687 CURVE SMOOTH",
"385 697 LINE SMOOTH",
"385 718 OFFCURVE",
"396 733 OFFCURVE",
"424 733 CURVE SMOOTH",
"451 733 OFFCURVE",
"463 718 OFFCURVE",
"463 697 CURVE SMOOTH",
"463 687 LINE SMOOTH",
"463 666 OFFCURVE",
"451 651 OFFCURVE",
"424 651 CURVE SMOOTH"
);
}
);
width = 546;
}
);
leftKerningGroup = f;
rightKerningGroup = i;
unicode = FB01;
},
{
glyphname = fl;
lastChange = "2018-11-02 14:42:14 +0000";
layers = (
{
layerId = "5AF1D23B-5AA5-4E46-9E7A-B01C8844A7CF";
name = Light;
paths = (
{
closed = 1;
nodes = (
"117 462 LINE",
"29 462 LINE",
"29 512 LINE",
"117 512 LINE",
"117 655 LINE SMOOTH",
"117 707 OFFCURVE",
"142 740 OFFCURVE",
"197 740 CURVE SMOOTH",
"287 740 LINE",
"287 690 LINE",
"174 690 LINE",
"174 512 LINE",
"287 512 LINE",
"287 462 LINE",
"174 462 LINE",
"174 0 LINE",
"117 0 LINE"
);
},
{
closed = 1;
nodes = (
"465 0 LINE SMOOTH",
"424 0 OFFCURVE",
"402 25 OFFCURVE",
"402 62 CURVE SMOOTH",
"402 740 LINE",
"459 740 LINE",
"459 50 LINE",
"538 50 LINE",
"538 0 LINE"
);
}
);
width = 573;
}
);
leftKerningGroup = f;
rightKerningGroup = l;
unicode = FB02;
},
{
glyphname = aacute;
lastChange = "2018-11-02 02:18:56 +0000";
layers = (
{
layerId = "5AF1D23B-5AA5-4E46-9E7A-B01C8844A7CF";
name = Light;
paths = (
{
closed = 1;
nodes = (
"249 586 LINE",
"212 604 LINE",
"307 768 LINE",
"359 742 LINE"
);
},
{
closed = 1;
nodes = (
"155 524 OFFCURVE",
"98 481 OFFCURVE",
"70 421 CURVE",
"106 391 LINE",
"134 444 OFFCURVE",
"178 474 OFFCURVE",
"246 474 CURVE SMOOTH",
"333 474 OFFCURVE",
"377 432 OFFCURVE",
"377 347 CURVE SMOOTH",
"377 287 LINE",
"259 287 LINE SMOOTH",
"111 287 OFFCURVE",
"51 230 OFFCURVE",
"51 139 CURVE SMOOTH",
"51 43 OFFCURVE",
"112 -12 OFFCURVE",
"220 -12 CURVE SMOOTH",
"300 -12 OFFCURVE",
"352 24 OFFCURVE",
"375 81 CURVE",
"380 81 LINE",
"380 0 LINE",
"434 0 LINE",
"434 353 LINE SMOOTH",
"434 461 OFFCURVE",
"368 524 OFFCURVE",
"248 524 CURVE SMOOTH"
);
},
{
closed = 1;
nodes = (
"377 114 OFFCURVE",
"361 87 OFFCURVE",
"334 68 CURVE SMOOTH",
"306 48 OFFCURVE",
"269 37 OFFCURVE",
"228 37 CURVE SMOOTH",
"157 37 OFFCURVE",
"111 68 OFFCURVE",
"111 128 CURVE SMOOTH",
"111 152 LINE SMOOTH",
"111 209 OFFCURVE",
"154 244 OFFCURVE",
"257 244 CURVE SMOOTH",
"377 244 LINE",
"377 149 LINE SMOOTH"
);
}
);
width = 520;
}
);
leftKerningGroup = a;
rightKerningGroup = a;
unicode = 00E1;
},
{
glyphname = abreve;
lastChange = "2018-11-02 02:18:57 +0000";
layers = (
{
layerId = "5AF1D23B-5AA5-4E46-9E7A-B01C8844A7CF";
name = Light;
paths = (
{
closed = 1;
nodes = (
"205 600 OFFCURVE",
"176 615 OFFCURVE",
"155 638 CURVE SMOOTH",
"134 661 OFFCURVE",
"120 691 OFFCURVE",
"108 722 CURVE",
"141 738 LINE",
"160 707 LINE SMOOTH",
"185 664 OFFCURVE",
"204 646 OFFCURVE",
"252 646 CURVE SMOOTH",
"300 646 OFFCURVE",
"319 664 OFFCURVE",
"344 707 CURVE SMOOTH",
"363 738 LINE",
"396 722 LINE",
"384 691 OFFCURVE",
"370 661 OFFCURVE",
"349 638 CURVE SMOOTH",
"328 615 OFFCURVE",
"297 600 OFFCURVE",
"252 600 CURVE SMOOTH"
);
},
{
closed = 1;
nodes = (
"155 524 OFFCURVE",
"98 481 OFFCURVE",
"70 421 CURVE",
"106 391 LINE",
"134 444 OFFCURVE",
"178 474 OFFCURVE",
"246 474 CURVE SMOOTH",
"333 474 OFFCURVE",
"377 432 OFFCURVE",
"377 347 CURVE SMOOTH",
"377 287 LINE",
"259 287 LINE SMOOTH",
"111 287 OFFCURVE",
"51 230 OFFCURVE",
"51 139 CURVE SMOOTH",
"51 43 OFFCURVE",
"112 -12 OFFCURVE",
"220 -12 CURVE SMOOTH",
"300 -12 OFFCURVE",
"352 24 OFFCURVE",
"375 81 CURVE",
"380 81 LINE",
"380 0 LINE",
"434 0 LINE",
"434 353 LINE SMOOTH",
"434 461 OFFCURVE",
"368 524 OFFCURVE",
"248 524 CURVE SMOOTH"
);
},
{
closed = 1;
nodes = (
"377 114 OFFCURVE",
"361 87 OFFCURVE",
"334 68 CURVE SMOOTH",
"306 48 OFFCURVE",
"269 37 OFFCURVE",
"228 37 CURVE SMOOTH",
"157 37 OFFCURVE",
"111 68 OFFCURVE",
"111 128 CURVE SMOOTH",
"111 152 LINE SMOOTH",
"111 209 OFFCURVE",
"154 244 OFFCURVE",
"257 244 CURVE SMOOTH",
"377 244 LINE",
"377 149 LINE SMOOTH"
);
}
);
width = 520;
}
);
leftKerningGroup = a;
rightKerningGroup = a;
unicode = 0103;
},
{
glyphname = acircumflex;
lastChange = "2018-11-02 02:18:58 +0000";
layers = (
{
layerId = "5AF1D23B-5AA5-4E46-9E7A-B01C8844A7CF";
name = Light;
paths = (
{
closed = 1;
nodes = (
"287 756 LINE",
"405 617 LINE",
"373 594 LINE",
"252 715 LINE",
"131 594 LINE",
"99 617 LINE",
"217 756 LINE"
);
},
{
closed = 1;
nodes = (
"155 524 OFFCURVE",
"98 481 OFFCURVE",
"70 421 CURVE",
"106 391 LINE",
"134 444 OFFCURVE",
"178 474 OFFCURVE",
"246 474 CURVE SMOOTH",
"333 474 OFFCURVE",
"377 432 OFFCURVE",
"377 347 CURVE SMOOTH",
"377 287 LINE",
"259 287 LINE SMOOTH",
"111 287 OFFCURVE",
"51 230 OFFCURVE",
"51 139 CURVE SMOOTH",
"51 43 OFFCURVE",
"112 -12 OFFCURVE",
"220 -12 CURVE SMOOTH",
"300 -12 OFFCURVE",
"352 24 OFFCURVE",
"375 81 CURVE",
"380 81 LINE",
"380 0 LINE",
"434 0 LINE",
"434 353 LINE SMOOTH",
"434 461 OFFCURVE",
"368 524 OFFCURVE",
"248 524 CURVE SMOOTH"
);
},
{
closed = 1;
nodes = (
"377 114 OFFCURVE",
"361 87 OFFCURVE",
"334 68 CURVE SMOOTH",
"306 48 OFFCURVE",
"269 37 OFFCURVE",
"228 37 CURVE SMOOTH",
"157 37 OFFCURVE",
"111 68 OFFCURVE",
"111 128 CURVE SMOOTH",
"111 152 LINE SMOOTH",
"111 209 OFFCURVE",
"154 244 OFFCURVE",
"257 244 CURVE SMOOTH",
"377 244 LINE",
"377 149 LINE SMOOTH"
);
}
);
width = 520;
}
);
leftKerningGroup = a;
rightKerningGroup = a;
unicode = 00E2;
},
{
glyphname = adieresis;
lastChange = "2018-11-02 02:18:58 +0000";
layers = (
{
layerId = "5AF1D23B-5AA5-4E46-9E7A-B01C8844A7CF";
name = Light;
paths = (
{
closed = 1;
nodes = (
"132 627 OFFCURVE",
"121 642 OFFCURVE",
"121 663 CURVE SMOOTH",
"121 673 LINE SMOOTH",
"121 694 OFFCURVE",
"132 709 OFFCURVE",
"160 709 CURVE SMOOTH",
"187 709 OFFCURVE",
"199 694 OFFCURVE",
"199 673 CURVE SMOOTH",
"199 663 LINE SMOOTH",
"199 642 OFFCURVE",
"187 627 OFFCURVE",
"160 627 CURVE SMOOTH"
);
},
{
closed = 1;
nodes = (
"317 627 OFFCURVE",
"305 642 OFFCURVE",
"305 663 CURVE SMOOTH",
"305 673 LINE SMOOTH",
"305 694 OFFCURVE",
"317 709 OFFCURVE",
"344 709 CURVE SMOOTH",
"372 709 OFFCURVE",
"383 694 OFFCURVE",
"383 673 CURVE SMOOTH",
"383 663 LINE SMOOTH",
"383 642 OFFCURVE",
"372 627 OFFCURVE",
"344 627 CURVE SMOOTH"
);
},
{
closed = 1;
nodes = (
"155 524 OFFCURVE",
"98 481 OFFCURVE",
"70 421 CURVE",
"106 391 LINE",
"134 444 OFFCURVE",
"178 474 OFFCURVE",
"246 474 CURVE SMOOTH",
"333 474 OFFCURVE",
"377 432 OFFCURVE",
"377 347 CURVE SMOOTH",
"377 287 LINE",
"259 287 LINE SMOOTH",
"111 287 OFFCURVE",
"51 230 OFFCURVE",
"51 139 CURVE SMOOTH",
"51 43 OFFCURVE",
"112 -12 OFFCURVE",
"220 -12 CURVE SMOOTH",
"300 -12 OFFCURVE",
"352 24 OFFCURVE",
"375 81 CURVE",
"380 81 LINE",
"380 0 LINE",
"434 0 LINE",
"434 353 LINE SMOOTH",
"434 461 OFFCURVE",
"368 524 OFFCURVE",
"248 524 CURVE SMOOTH"
);
},
{
closed = 1;
nodes = (
"377 114 OFFCURVE",
"361 87 OFFCURVE",
"334 68 CURVE SMOOTH",
"306 48 OFFCURVE",
"269 37 OFFCURVE",
"228 37 CURVE SMOOTH",
"157 37 OFFCURVE",
"111 68 OFFCURVE",
"111 128 CURVE SMOOTH",
"111 152 LINE SMOOTH",
"111 209 OFFCURVE",
"154 244 OFFCURVE",
"257 244 CURVE SMOOTH",
"377 244 LINE",
"377 149 LINE SMOOTH"
);
}
);
width = 520;
}
);
leftKerningGroup = a;
rightKerningGroup = a;
unicode = 00E4;
},
{
glyphname = uni1EA1;
lastChange = "2018-11-02 02:18:59 +0000";
layers = (
{
layerId = "5AF1D23B-5AA5-4E46-9E7A-B01C8844A7CF";
name = Light;
paths = (
{
closed = 1;
nodes = (
"210 -155 OFFCURVE",
"197 -141 OFFCURVE",
"197 -118 CURVE SMOOTH",
"197 -110 LINE SMOOTH",
"197 -87 OFFCURVE",
"210 -73 OFFCURVE",
"237 -73 CURVE SMOOTH",
"264 -73 OFFCURVE",
"277 -87 OFFCURVE",
"277 -110 CURVE SMOOTH",
"277 -118 LINE SMOOTH",
"277 -141 OFFCURVE",
"264 -155 OFFCURVE",
"237 -155 CURVE SMOOTH"
);
},
{
closed = 1;
nodes = (
"155 524 OFFCURVE",
"98 481 OFFCURVE",
"70 421 CURVE",
"106 391 LINE",
"134 444 OFFCURVE",
"178 474 OFFCURVE",
"246 474 CURVE SMOOTH",
"333 474 OFFCURVE",
"377 432 OFFCURVE",
"377 347 CURVE SMOOTH",
"377 287 LINE",
"259 287 LINE SMOOTH",
"111 287 OFFCURVE",
"51 230 OFFCURVE",
"51 139 CURVE SMOOTH",
"51 43 OFFCURVE",
"112 -12 OFFCURVE",
"220 -12 CURVE SMOOTH",
"300 -12 OFFCURVE",
"352 24 OFFCURVE",
"375 81 CURVE",
"380 81 LINE",
"380 0 LINE",
"434 0 LINE",
"434 353 LINE SMOOTH",
"434 461 OFFCURVE",
"368 524 OFFCURVE",
"248 524 CURVE SMOOTH"
);
},
{
closed = 1;
nodes = (
"377 114 OFFCURVE",
"361 87 OFFCURVE",
"334 68 CURVE SMOOTH",
"306 48 OFFCURVE",
"269 37 OFFCURVE",
"228 37 CURVE SMOOTH",
"157 37 OFFCURVE",
"111 68 OFFCURVE",
"111 128 CURVE SMOOTH",
"111 152 LINE SMOOTH",
"111 209 OFFCURVE",
"154 244 OFFCURVE",
"257 244 CURVE SMOOTH",
"377 244 LINE",
"377 149 LINE SMOOTH"
);
}
);
width = 520;
}
);
leftKerningGroup = a;
rightKerningGroup = a;
unicode = 1EA1;
},
{
glyphname = agrave;
lastChange = "2018-11-02 02:18:59 +0000";
layers = (
{
layerId = "5AF1D23B-5AA5-4E46-9E7A-B01C8844A7CF";
name = Light;
paths = (
{
closed = 1;
nodes = (
"145 742 LINE",
"197 768 LINE",
"292 604 LINE",
"254 586 LINE"
);
},
{
closed = 1;
nodes = (
"155 524 OFFCURVE",
"98 481 OFFCURVE",
"70 421 CURVE",
"106 391 LINE",
"134 444 OFFCURVE",
"178 474 OFFCURVE",
"246 474 CURVE SMOOTH",
"333 474 OFFCURVE",
"377 432 OFFCURVE",
"377 347 CURVE SMOOTH",
"377 287 LINE",
"259 287 LINE SMOOTH",
"111 287 OFFCURVE",
"51 230 OFFCURVE",
"51 139 CURVE SMOOTH",
"51 43 OFFCURVE",
"112 -12 OFFCURVE",
"220 -12 CURVE SMOOTH",
"300 -12 OFFCURVE",
"352 24 OFFCURVE",
"375 81 CURVE",
"380 81 LINE",
"380 0 LINE",
"434 0 LINE",
"434 353 LINE SMOOTH",
"434 461 OFFCURVE",
"368 524 OFFCURVE",
"248 524 CURVE SMOOTH"
);
},
{
closed = 1;
nodes = (
"377 114 OFFCURVE",
"361 87 OFFCURVE",
"334 68 CURVE SMOOTH",
"306 48 OFFCURVE",
"269 37 OFFCURVE",
"228 37 CURVE SMOOTH",
"157 37 OFFCURVE",
"111 68 OFFCURVE",
"111 128 CURVE SMOOTH",
"111 152 LINE SMOOTH",
"111 209 OFFCURVE",
"154 244 OFFCURVE",
"257 244 CURVE SMOOTH",
"377 244 LINE",
"377 149 LINE SMOOTH"
);
}
);
width = 520;
}
);
leftKerningGroup = a;
rightKerningGroup = a;
unicode = 00E0;
},
{
glyphname = uni1EA3;
lastChange = "2018-11-02 02:18:59 +0000";
layers = (
{
layerId = "5AF1D23B-5AA5-4E46-9E7A-B01C8844A7CF";
name = Light;
paths = (
{
closed = 1;
nodes = (
"171 754 LINE",
"291 754 LINE SMOOTH",
"328 754 OFFCURVE",
"342 737 OFFCURVE",
"342 714 CURVE SMOOTH",
"342 693 OFFCURVE",
"330 667 OFFCURVE",
"301 628 CURVE SMOOTH",
"267 580 LINE",
"232 597 LINE",
"298 710 LINE",
"171 710 LINE"
);
},
{
closed = 1;
nodes = (
"155 524 OFFCURVE",
"98 481 OFFCURVE",
"70 421 CURVE",
"106 391 LINE",
"134 444 OFFCURVE",
"178 474 OFFCURVE",
"246 474 CURVE SMOOTH",
"333 474 OFFCURVE",
"377 432 OFFCURVE",
"377 347 CURVE SMOOTH",
"377 287 LINE",
"259 287 LINE SMOOTH",
"111 287 OFFCURVE",
"51 230 OFFCURVE",
"51 139 CURVE SMOOTH",
"51 43 OFFCURVE",
"112 -12 OFFCURVE",
"220 -12 CURVE SMOOTH",
"300 -12 OFFCURVE",
"352 24 OFFCURVE",
"375 81 CURVE",
"380 81 LINE",
"380 0 LINE",
"434 0 LINE",
"434 353 LINE SMOOTH",
"434 461 OFFCURVE",
"368 524 OFFCURVE",
"248 524 CURVE SMOOTH"
);
},
{
closed = 1;
nodes = (
"377 114 OFFCURVE",
"361 87 OFFCURVE",
"334 68 CURVE SMOOTH",
"306 48 OFFCURVE",
"269 37 OFFCURVE",
"228 37 CURVE SMOOTH",
"157 37 OFFCURVE",
"111 68 OFFCURVE",
"111 128 CURVE SMOOTH",
"111 152 LINE SMOOTH",
"111 209 OFFCURVE",
"154 244 OFFCURVE",
"257 244 CURVE SMOOTH",
"377 244 LINE",
"377 149 LINE SMOOTH"
);
}
);
width = 520;
}
);
leftKerningGroup = a;
rightKerningGroup = a;
unicode = 1EA3;
},
{
glyphname = amacron;
lastChange = "2018-11-02 02:19:00 +0000";
layers = (
{
layerId = "5AF1D23B-5AA5-4E46-9E7A-B01C8844A7CF";
name = Light;
paths = (
{
closed = 1;
nodes = (
"116 694 LINE",
"388 694 LINE",
"388 645 LINE",
"116 645 LINE"
);
},
{
closed = 1;
nodes = (
"155 524 OFFCURVE",
"98 481 OFFCURVE",
"70 421 CURVE",
"106 391 LINE",
"134 444 OFFCURVE",
"178 474 OFFCURVE",
"246 474 CURVE SMOOTH",
"333 474 OFFCURVE",
"377 432 OFFCURVE",
"377 347 CURVE SMOOTH",
"377 287 LINE",
"259 287 LINE SMOOTH",
"111 287 OFFCURVE",
"51 230 OFFCURVE",
"51 139 CURVE SMOOTH",
"51 43 OFFCURVE",
"112 -12 OFFCURVE",
"220 -12 CURVE SMOOTH",
"300 -12 OFFCURVE",
"352 24 OFFCURVE",
"375 81 CURVE",
"380 81 LINE",
"380 0 LINE",
"434 0 LINE",
"434 353 LINE SMOOTH",
"434 461 OFFCURVE",
"368 524 OFFCURVE",
"248 524 CURVE SMOOTH"
);
},
{
closed = 1;
nodes = (
"377 114 OFFCURVE",
"361 87 OFFCURVE",
"334 68 CURVE SMOOTH",
"306 48 OFFCURVE",
"269 37 OFFCURVE",
"228 37 CURVE SMOOTH",
"157 37 OFFCURVE",
"111 68 OFFCURVE",
"111 128 CURVE SMOOTH",
"111 152 LINE SMOOTH",
"111 209 OFFCURVE",
"154 244 OFFCURVE",
"257 244 CURVE SMOOTH",
"377 244 LINE",
"377 149 LINE SMOOTH"
);
}
);
width = 520;
}
);
leftKerningGroup = a;
rightKerningGroup = a;
unicode = 0101;
},
{
glyphname = aogonek;
lastChange = "2018-11-02 02:29:45 +0000";
layers = (
{
layerId = "5AF1D23B-5AA5-4E46-9E7A-B01C8844A7CF";
name = Light;
paths = (
{
closed = 1;
nodes = (
"423 -156 OFFCURVE",
"405 -165 OFFCURVE",
"381 -165 CURVE SMOOTH",
"356 -165 OFFCURVE",
"339 -154 OFFCURVE",
"339 -126 CURVE SMOOTH",
"339 -110 OFFCURVE",
"345 -96 OFFCURVE",
"359 -77 CURVE SMOOTH",
"373 -58 OFFCURVE",
"397 -35 OFFCURVE",
"434 0 CURVE",
"434 353 LINE SMOOTH",
"434 461 OFFCURVE",
"368 524 OFFCURVE",
"248 524 CURVE SMOOTH",
"155 524 OFFCURVE",
"98 481 OFFCURVE",
"70 421 CURVE",
"106 391 LINE",
"134 444 OFFCURVE",
"178 474 OFFCURVE",
"246 474 CURVE SMOOTH",
"333 474 OFFCURVE",
"377 432 OFFCURVE",
"377 347 CURVE SMOOTH",
"377 287 LINE",
"259 287 LINE SMOOTH",
"111 287 OFFCURVE",
"51 230 OFFCURVE",
"51 139 CURVE SMOOTH",
"51 43 OFFCURVE",
"112 -12 OFFCURVE",
"220 -12 CURVE SMOOTH",
"300 -12 OFFCURVE",
"352 24 OFFCURVE",
"375 81 CURVE",
"380 81 LINE",
"380 0 LINE",
"388 0 LINE",
"389 -2 LINE",
"332 -46 OFFCURVE",
"292 -83 OFFCURVE",
"292 -132 CURVE SMOOTH",
"292 -181 OFFCURVE",
"330 -205 OFFCURVE",
"381 -205 CURVE SMOOTH",
"424 -205 OFFCURVE",
"451 -189 OFFCURVE",
"464 -169 CURVE",
"434 -141 LINE"
);
},
{
closed = 1;
nodes = (
"377 114 OFFCURVE",
"361 87 OFFCURVE",
"334 68 CURVE SMOOTH",
"306 48 OFFCURVE",
"269 37 OFFCURVE",
"228 37 CURVE SMOOTH",
"157 37 OFFCURVE",
"111 68 OFFCURVE",
"111 128 CURVE SMOOTH",
"111 152 LINE SMOOTH",
"111 209 OFFCURVE",
"154 244 OFFCURVE",
"257 244 CURVE SMOOTH",
"377 244 LINE",
"377 149 LINE SMOOTH"
);
}
);
width = 520;
}
);
leftKerningGroup = a;
rightKerningGroup = a;
unicode = 0105;
},
{
glyphname = aring;
lastChange = "2018-11-02 02:19:01 +0000";
layers = (
{
layerId = "5AF1D23B-5AA5-4E46-9E7A-B01C8844A7CF";
name = Light;
paths = (
{
closed = 1;
nodes = (
"191 581 OFFCURVE",
"146 624 OFFCURVE",
"146 687 CURVE SMOOTH",
"146 748 OFFCURVE",
"191 792 OFFCURVE",
"252 792 CURVE SMOOTH",
"313 792 OFFCURVE",
"358 748 OFFCURVE",
"358 687 CURVE SMOOTH",
"358 624 OFFCURVE",
"313 581 OFFCURVE",
"252 581 CURVE SMOOTH"
);
},
{
closed = 1;
nodes = (
"291 618 OFFCURVE",
"315 641 OFFCURVE",
"315 678 CURVE SMOOTH",
"315 695 LINE SMOOTH",
"315 734 OFFCURVE",
"291 755 OFFCURVE",
"252 755 CURVE SMOOTH",
"213 755 OFFCURVE",
"189 734 OFFCURVE",
"189 695 CURVE SMOOTH",
"189 678 LINE SMOOTH",
"189 641 OFFCURVE",
"213 618 OFFCURVE",
"252 618 CURVE SMOOTH"
);
},
{
closed = 1;
nodes = (
"155 524 OFFCURVE",
"98 481 OFFCURVE",
"70 421 CURVE",
"106 391 LINE",
"134 444 OFFCURVE",
"178 474 OFFCURVE",
"246 474 CURVE SMOOTH",
"333 474 OFFCURVE",
"377 432 OFFCURVE",
"377 347 CURVE SMOOTH",
"377 287 LINE",
"259 287 LINE SMOOTH",
"111 287 OFFCURVE",
"51 230 OFFCURVE",
"51 139 CURVE SMOOTH",
"51 43 OFFCURVE",
"112 -12 OFFCURVE",
"220 -12 CURVE SMOOTH",
"300 -12 OFFCURVE",
"352 24 OFFCURVE",
"375 81 CURVE",
"380 81 LINE",
"380 0 LINE",
"434 0 LINE",
"434 353 LINE SMOOTH",
"434 461 OFFCURVE",
"368 524 OFFCURVE",
"248 524 CURVE SMOOTH"
);
},
{
closed = 1;
nodes = (
"377 114 OFFCURVE",
"361 87 OFFCURVE",
"334 68 CURVE SMOOTH",
"306 48 OFFCURVE",
"269 37 OFFCURVE",
"228 37 CURVE SMOOTH",
"157 37 OFFCURVE",
"111 68 OFFCURVE",
"111 128 CURVE SMOOTH",
"111 152 LINE SMOOTH",
"111 209 OFFCURVE",
"154 244 OFFCURVE",
"257 244 CURVE SMOOTH",
"377 244 LINE",
"377 149 LINE SMOOTH"
);
}
);
width = 520;
}
);
leftKerningGroup = a;
rightKerningGroup = a;
unicode = 00E5;
},
{
glyphname = aringacute;
lastChange = "2018-11-02 02:19:02 +0000";
layers = (
{
layerId = "5AF1D23B-5AA5-4E46-9E7A-B01C8844A7CF";
name = Light;
paths = (
{
closed = 1;
nodes = (
"259 808 LINE",
"228 828 LINE",
"305 938 LINE",
"349 911 LINE"
);
},
{
closed = 1;
nodes = (
"191 575 OFFCURVE",
"146 618 OFFCURVE",
"146 681 CURVE SMOOTH",
"146 742 OFFCURVE",
"191 786 OFFCURVE",
"252 786 CURVE SMOOTH",
"313 786 OFFCURVE",
"358 742 OFFCURVE",
"358 681 CURVE SMOOTH",
"358 618 OFFCURVE",
"313 575 OFFCURVE",
"252 575 CURVE SMOOTH"
);
},
{
closed = 1;
nodes = (
"291 612 OFFCURVE",
"315 635 OFFCURVE",
"315 672 CURVE SMOOTH",
"315 689 LINE SMOOTH",
"315 728 OFFCURVE",
"291 749 OFFCURVE",
"252 749 CURVE SMOOTH",
"213 749 OFFCURVE",
"189 728 OFFCURVE",
"189 689 CURVE SMOOTH",
"189 672 LINE SMOOTH",
"189 635 OFFCURVE",
"213 612 OFFCURVE",
"252 612 CURVE SMOOTH"
);
},
{
closed = 1;
nodes = (
"155 524 OFFCURVE",
"98 481 OFFCURVE",
"70 421 CURVE",
"106 391 LINE",
"134 444 OFFCURVE",
"178 474 OFFCURVE",
"246 474 CURVE SMOOTH",
"333 474 OFFCURVE",
"377 432 OFFCURVE",
"377 347 CURVE SMOOTH",
"377 287 LINE",
"259 287 LINE SMOOTH",
"111 287 OFFCURVE",
"51 230 OFFCURVE",
"51 139 CURVE SMOOTH",
"51 43 OFFCURVE",
"112 -12 OFFCURVE",
"220 -12 CURVE SMOOTH",
"300 -12 OFFCURVE",
"352 24 OFFCURVE",
"375 81 CURVE",
"380 81 LINE",
"380 0 LINE",
"434 0 LINE",
"434 353 LINE SMOOTH",
"434 461 OFFCURVE",
"368 524 OFFCURVE",
"248 524 CURVE SMOOTH"
);
},
{
closed = 1;
nodes = (
"377 114 OFFCURVE",
"361 87 OFFCURVE",
"334 68 CURVE SMOOTH",
"306 48 OFFCURVE",
"269 37 OFFCURVE",
"228 37 CURVE SMOOTH",
"157 37 OFFCURVE",
"111 68 OFFCURVE",
"111 128 CURVE SMOOTH",
"111 152 LINE SMOOTH",
"111 209 OFFCURVE",
"154 244 OFFCURVE",
"257 244 CURVE SMOOTH",
"377 244 LINE",
"377 149 LINE SMOOTH"
);
}
);
width = 520;
}
);
leftKerningGroup = a;
rightKerningGroup = a;
unicode = 01FB;
},
{
glyphname = atilde;
lastChange = "2018-11-02 02:19:02 +0000";
layers = (
{
layerId = "5AF1D23B-5AA5-4E46-9E7A-B01C8844A7CF";
name = Light;
paths = (
{
closed = 1;
nodes = (
"293 618 OFFCURVE",
"272 630 OFFCURVE",
"245 646 CURVE SMOOTH",
"214 665 OFFCURVE",
"196 671 OFFCURVE",
"177 671 CURVE SMOOTH",
"154 671 OFFCURVE",
"137 660 OFFCURVE",
"116 641 CURVE",
"91 670 LINE",
"112 697 OFFCURVE",
"141 718 OFFCURVE",
"180 718 CURVE SMOOTH",
"211 718 OFFCURVE",
"232 706 OFFCURVE",
"259 690 CURVE SMOOTH",
"290 671 OFFCURVE",
"308 665 OFFCURVE",
"327 665 CURVE SMOOTH",
"350 665 OFFCURVE",
"367 676 OFFCURVE",
"388 695 CURVE",
"413 666 LINE",
"392 639 OFFCURVE",
"363 618 OFFCURVE",
"324 618 CURVE SMOOTH"
);
},
{
closed = 1;
nodes = (
"155 524 OFFCURVE",
"98 481 OFFCURVE",
"70 421 CURVE",
"106 391 LINE",
"134 444 OFFCURVE",
"178 474 OFFCURVE",
"246 474 CURVE SMOOTH",
"333 474 OFFCURVE",
"377 432 OFFCURVE",
"377 347 CURVE SMOOTH",
"377 287 LINE",
"259 287 LINE SMOOTH",
"111 287 OFFCURVE",
"51 230 OFFCURVE",
"51 139 CURVE SMOOTH",
"51 43 OFFCURVE",
"112 -12 OFFCURVE",
"220 -12 CURVE SMOOTH",
"300 -12 OFFCURVE",
"352 24 OFFCURVE",
"375 81 CURVE",
"380 81 LINE",
"380 0 LINE",
"434 0 LINE",
"434 353 LINE SMOOTH",
"434 461 OFFCURVE",
"368 524 OFFCURVE",
"248 524 CURVE SMOOTH"
);
},
{
closed = 1;
nodes = (
"377 114 OFFCURVE",
"361 87 OFFCURVE",
"334 68 CURVE SMOOTH",
"306 48 OFFCURVE",
"269 37 OFFCURVE",
"228 37 CURVE SMOOTH",
"157 37 OFFCURVE",
"111 68 OFFCURVE",
"111 128 CURVE SMOOTH",
"111 152 LINE SMOOTH",
"111 209 OFFCURVE",
"154 244 OFFCURVE",
"257 244 CURVE SMOOTH",
"377 244 LINE",
"377 149 LINE SMOOTH"
);
}
);
width = 520;
}
);
leftKerningGroup = a;
rightKerningGroup = a;
unicode = 00E3;
},
{
glyphname = uni1EAF;
lastChange = "2018-11-02 02:19:03 +0000";
layers = (
{
layerId = "5AF1D23B-5AA5-4E46-9E7A-B01C8844A7CF";
name = Light;
paths = (
{
closed = 1;
nodes = (
"204 589 OFFCURVE",
"174 604 OFFCURVE",
"153 626 CURVE SMOOTH",
"132 648 OFFCURVE",
"118 676 OFFCURVE",
"106 707 CURVE",
"139 723 LINE",
"158 693 LINE SMOOTH",
"182 653 OFFCURVE",
"203 632 OFFCURVE",
"251 632 CURVE SMOOTH",
"299 632 OFFCURVE",
"320 653 OFFCURVE",
"344 693 CURVE SMOOTH",
"363 723 LINE",
"396 707 LINE",
"384 676 OFFCURVE",
"370 648 OFFCURVE",
"349 626 CURVE SMOOTH",
"328 604 OFFCURVE",
"296 589 OFFCURVE",
"251 589 CURVE SMOOTH"
);
},
{
closed = 1;
nodes = (
"250 698 LINE",
"214 716 LINE",
"309 879 LINE",
"359 854 LINE"
);
},
{
closed = 1;
nodes = (
"155 524 OFFCURVE",
"98 481 OFFCURVE",
"70 421 CURVE",
"106 391 LINE",
"134 444 OFFCURVE",
"178 474 OFFCURVE",
"246 474 CURVE SMOOTH",
"333 474 OFFCURVE",
"377 432 OFFCURVE",
"377 347 CURVE SMOOTH",
"377 287 LINE",
"259 287 LINE SMOOTH",
"111 287 OFFCURVE",
"51 230 OFFCURVE",
"51 139 CURVE SMOOTH",
"51 43 OFFCURVE",
"112 -12 OFFCURVE",
"220 -12 CURVE SMOOTH",
"300 -12 OFFCURVE",
"352 24 OFFCURVE",
"375 81 CURVE",
"380 81 LINE",
"380 0 LINE",
"434 0 LINE",
"434 353 LINE SMOOTH",
"434 461 OFFCURVE",
"368 524 OFFCURVE",
"248 524 CURVE SMOOTH"
);
},
{
closed = 1;
nodes = (
"377 114 OFFCURVE",
"361 87 OFFCURVE",
"334 68 CURVE SMOOTH",
"306 48 OFFCURVE",
"269 37 OFFCURVE",
"228 37 CURVE SMOOTH",
"157 37 OFFCURVE",
"111 68 OFFCURVE",
"111 128 CURVE SMOOTH",
"111 152 LINE SMOOTH",
"111 209 OFFCURVE",
"154 244 OFFCURVE",
"257 244 CURVE SMOOTH",
"377 244 LINE",
"377 149 LINE SMOOTH"
);
}
);
width = 520;
}
);
leftKerningGroup = a;
rightKerningGroup = a;
unicode = 1EAF;
},
{
glyphname = uni1EB7;
lastChange = "2018-11-02 02:19:04 +0000";
layers = (
{
layerId = "5AF1D23B-5AA5-4E46-9E7A-B01C8844A7CF";
name = Light;
paths = (
{
closed = 1;
nodes = (
"205 600 OFFCURVE",
"176 615 OFFCURVE",
"155 638 CURVE SMOOTH",
"134 661 OFFCURVE",
"120 691 OFFCURVE",
"108 722 CURVE",
"141 738 LINE",
"160 707 LINE SMOOTH",
"185 664 OFFCURVE",
"204 646 OFFCURVE",
"252 646 CURVE SMOOTH",
"300 646 OFFCURVE",
"319 664 OFFCURVE",
"344 707 CURVE SMOOTH",
"363 738 LINE",
"396 722 LINE",
"384 691 OFFCURVE",
"370 661 OFFCURVE",
"349 638 CURVE SMOOTH",
"328 615 OFFCURVE",
"297 600 OFFCURVE",
"252 600 CURVE SMOOTH"
);
},
{
closed = 1;
nodes = (
"210 -155 OFFCURVE",
"197 -141 OFFCURVE",
"197 -118 CURVE SMOOTH",
"197 -110 LINE SMOOTH",
"197 -87 OFFCURVE",
"210 -73 OFFCURVE",
"237 -73 CURVE SMOOTH",
"264 -73 OFFCURVE",
"277 -87 OFFCURVE",
"277 -110 CURVE SMOOTH",
"277 -118 LINE SMOOTH",
"277 -141 OFFCURVE",
"264 -155 OFFCURVE",
"237 -155 CURVE SMOOTH"
);
},
{
closed = 1;
nodes = (
"155 524 OFFCURVE",
"98 481 OFFCURVE",
"70 421 CURVE",
"106 391 LINE",
"134 444 OFFCURVE",
"178 474 OFFCURVE",
"246 474 CURVE SMOOTH",
"333 474 OFFCURVE",
"377 432 OFFCURVE",
"377 347 CURVE SMOOTH",
"377 287 LINE",
"259 287 LINE SMOOTH",
"111 287 OFFCURVE",
"51 230 OFFCURVE",
"51 139 CURVE SMOOTH",
"51 43 OFFCURVE",
"112 -12 OFFCURVE",
"220 -12 CURVE SMOOTH",
"300 -12 OFFCURVE",
"352 24 OFFCURVE",
"375 81 CURVE",
"380 81 LINE",
"380 0 LINE",
"434 0 LINE",
"434 353 LINE SMOOTH",
"434 461 OFFCURVE",
"368 524 OFFCURVE",
"248 524 CURVE SMOOTH"
);
},
{
closed = 1;
nodes = (
"377 114 OFFCURVE",
"361 87 OFFCURVE",
"334 68 CURVE SMOOTH",
"306 48 OFFCURVE",
"269 37 OFFCURVE",
"228 37 CURVE SMOOTH",
"157 37 OFFCURVE",
"111 68 OFFCURVE",
"111 128 CURVE SMOOTH",
"111 152 LINE SMOOTH",
"111 209 OFFCURVE",
"154 244 OFFCURVE",
"257 244 CURVE SMOOTH",
"377 244 LINE",
"377 149 LINE SMOOTH"
);
}
);
width = 520;
}
);
leftKerningGroup = a;
rightKerningGroup = a;
unicode = 1EB7;
},
{
glyphname = uni1EB1;
lastChange = "2018-11-02 02:19:04 +0000";
layers = (
{
layerId = "5AF1D23B-5AA5-4E46-9E7A-B01C8844A7CF";
name = Light;
paths = (
{
closed = 1;
nodes = (
"204 589 OFFCURVE",
"174 604 OFFCURVE",
"153 626 CURVE SMOOTH",
"132 648 OFFCURVE",
"118 676 OFFCURVE",
"106 707 CURVE",
"139 723 LINE",
"158 693 LINE SMOOTH",
"182 653 OFFCURVE",
"203 632 OFFCURVE",
"251 632 CURVE SMOOTH",
"299 632 OFFCURVE",
"320 653 OFFCURVE",
"344 693 CURVE SMOOTH",
"363 723 LINE",
"396 707 LINE",
"384 676 OFFCURVE",
"370 648 OFFCURVE",
"349 626 CURVE SMOOTH",
"328 604 OFFCURVE",
"296 589 OFFCURVE",
"251 589 CURVE SMOOTH"
);
},
{
closed = 1;
nodes = (
"143 854 LINE",
"193 879 LINE",
"288 716 LINE",
"252 698 LINE"
);
},
{
closed = 1;
nodes = (
"155 524 OFFCURVE",
"98 481 OFFCURVE",
"70 421 CURVE",
"106 391 LINE",
"134 444 OFFCURVE",
"178 474 OFFCURVE",
"246 474 CURVE SMOOTH",
"333 474 OFFCURVE",
"377 432 OFFCURVE",
"377 347 CURVE SMOOTH",
"377 287 LINE",
"259 287 LINE SMOOTH",
"111 287 OFFCURVE",
"51 230 OFFCURVE",
"51 139 CURVE SMOOTH",
"51 43 OFFCURVE",
"112 -12 OFFCURVE",
"220 -12 CURVE SMOOTH",
"300 -12 OFFCURVE",
"352 24 OFFCURVE",
"375 81 CURVE",
"380 81 LINE",
"380 0 LINE",
"434 0 LINE",
"434 353 LINE SMOOTH",
"434 461 OFFCURVE",
"368 524 OFFCURVE",
"248 524 CURVE SMOOTH"
);
},
{
closed = 1;
nodes = (
"377 114 OFFCURVE",
"361 87 OFFCURVE",
"334 68 CURVE SMOOTH",
"306 48 OFFCURVE",
"269 37 OFFCURVE",
"228 37 CURVE SMOOTH",
"157 37 OFFCURVE",
"111 68 OFFCURVE",
"111 128 CURVE SMOOTH",
"111 152 LINE SMOOTH",
"111 209 OFFCURVE",
"154 244 OFFCURVE",
"257 244 CURVE SMOOTH",
"377 244 LINE",
"377 149 LINE SMOOTH"
);
}
);
width = 520;
}
);
leftKerningGroup = a;
rightKerningGroup = a;
unicode = 1EB1;
},
{
glyphname = uni1EB3;
lastChange = "2018-11-02 02:19:05 +0000";
layers = (
{
layerId = "5AF1D23B-5AA5-4E46-9E7A-B01C8844A7CF";
name = Light;
paths = (
{
closed = 1;
nodes = (
"204 589 OFFCURVE",
"174 604 OFFCURVE",
"153 626 CURVE SMOOTH",
"132 648 OFFCURVE",
"118 676 OFFCURVE",
"106 707 CURVE",
"139 723 LINE",
"158 693 LINE SMOOTH",
"182 653 OFFCURVE",
"203 632 OFFCURVE",
"251 632 CURVE SMOOTH",
"299 632 OFFCURVE",
"320 653 OFFCURVE",
"344 693 CURVE SMOOTH",
"363 723 LINE",
"396 707 LINE",
"384 676 OFFCURVE",
"370 648 OFFCURVE",
"349 626 CURVE SMOOTH",
"328 604 OFFCURVE",
"296 589 OFFCURVE",
"251 589 CURVE SMOOTH"
);
},
{
closed = 1;
nodes = (
"168 867 LINE",
"279 867 LINE SMOOTH",
"316 867 OFFCURVE",
"330 850 OFFCURVE",
"330 827 CURVE SMOOTH",
"330 806 OFFCURVE",
"317 781 OFFCURVE",
"288 741 CURVE SMOOTH",
"255 693 LINE",
"221 710 LINE",
"288 825 LINE",
"168 825 LINE"
);
},
{
closed = 1;
nodes = (
"155 524 OFFCURVE",
"98 481 OFFCURVE",
"70 421 CURVE",
"106 391 LINE",
"134 444 OFFCURVE",
"178 474 OFFCURVE",
"246 474 CURVE SMOOTH",
"333 474 OFFCURVE",
"377 432 OFFCURVE",
"377 347 CURVE SMOOTH",
"377 287 LINE",
"259 287 LINE SMOOTH",
"111 287 OFFCURVE",
"51 230 OFFCURVE",
"51 139 CURVE SMOOTH",
"51 43 OFFCURVE",
"112 -12 OFFCURVE",
"220 -12 CURVE SMOOTH",
"300 -12 OFFCURVE",
"352 24 OFFCURVE",
"375 81 CURVE",
"380 81 LINE",
"380 0 LINE",
"434 0 LINE",
"434 353 LINE SMOOTH",
"434 461 OFFCURVE",
"368 524 OFFCURVE",
"248 524 CURVE SMOOTH"
);
},
{
closed = 1;
nodes = (
"377 114 OFFCURVE",
"361 87 OFFCURVE",
"334 68 CURVE SMOOTH",
"306 48 OFFCURVE",
"269 37 OFFCURVE",
"228 37 CURVE SMOOTH",
"157 37 OFFCURVE",
"111 68 OFFCURVE",
"111 128 CURVE SMOOTH",
"111 152 LINE SMOOTH",
"111 209 OFFCURVE",
"154 244 OFFCURVE",
"257 244 CURVE SMOOTH",
"377 244 LINE",
"377 149 LINE SMOOTH"
);
}
);
width = 520;
}
);
leftKerningGroup = a;
rightKerningGroup = a;
unicode = 1EB3;
},
{
glyphname = uni1EB5;
lastChange = "2018-11-02 02:19:06 +0000";
layers = (
{
layerId = "5AF1D23B-5AA5-4E46-9E7A-B01C8844A7CF";
name = Light;
paths = (
{
closed = 1;
nodes = (
"204 589 OFFCURVE",
"174 604 OFFCURVE",
"153 626 CURVE SMOOTH",
"132 648 OFFCURVE",
"118 676 OFFCURVE",
"106 707 CURVE",
"139 723 LINE",
"158 693 LINE SMOOTH",
"182 653 OFFCURVE",
"203 632 OFFCURVE",
"251 632 CURVE SMOOTH",
"299 632 OFFCURVE",
"320 653 OFFCURVE",
"344 693 CURVE SMOOTH",
"363 723 LINE",
"396 707 LINE",
"384 676 OFFCURVE",
"370 648 OFFCURVE",
"349 626 CURVE SMOOTH",
"328 604 OFFCURVE",
"296 589 OFFCURVE",
"251 589 CURVE SMOOTH"
);
},
{
closed = 1;
nodes = (
"292 768 OFFCURVE",
"271 781 OFFCURVE",
"244 796 CURVE",
"213 815 OFFCURVE",
"194 821 OFFCURVE",
"175 821 CURVE SMOOTH",
"152 821 OFFCURVE",
"135 810 OFFCURVE",
"115 791 CURVE",
"91 818 LINE",
"111 845 OFFCURVE",
"140 866 OFFCURVE",
"179 866 CURVE SMOOTH",
"210 866 OFFCURVE",
"231 853 OFFCURVE",
"258 838 CURVE",
"289 819 OFFCURVE",
"308 813 OFFCURVE",
"327 813 CURVE SMOOTH",
"350 813 OFFCURVE",
"367 824 OFFCURVE",
"387 843 CURVE",
"411 816 LINE",
"391 789 OFFCURVE",
"362 768 OFFCURVE",
"323 768 CURVE SMOOTH"
);
},
{
closed = 1;
nodes = (
"155 524 OFFCURVE",
"98 481 OFFCURVE",
"70 421 CURVE",
"106 391 LINE",
"134 444 OFFCURVE",
"178 474 OFFCURVE",
"246 474 CURVE SMOOTH",
"333 474 OFFCURVE",
"377 432 OFFCURVE",
"377 347 CURVE SMOOTH",
"377 287 LINE",
"259 287 LINE SMOOTH",
"111 287 OFFCURVE",
"51 230 OFFCURVE",
"51 139 CURVE SMOOTH",
"51 43 OFFCURVE",
"112 -12 OFFCURVE",
"220 -12 CURVE SMOOTH",
"300 -12 OFFCURVE",
"352 24 OFFCURVE",
"375 81 CURVE",
"380 81 LINE",
"380 0 LINE",
"434 0 LINE",
"434 353 LINE SMOOTH",
"434 461 OFFCURVE",
"368 524 OFFCURVE",
"248 524 CURVE SMOOTH"
);
},
{
closed = 1;
nodes = (
"377 114 OFFCURVE",
"361 87 OFFCURVE",
"334 68 CURVE SMOOTH",
"306 48 OFFCURVE",
"269 37 OFFCURVE",
"228 37 CURVE SMOOTH",
"157 37 OFFCURVE",
"111 68 OFFCURVE",
"111 128 CURVE SMOOTH",
"111 152 LINE SMOOTH",
"111 209 OFFCURVE",
"154 244 OFFCURVE",
"257 244 CURVE SMOOTH",
"377 244 LINE",
"377 149 LINE SMOOTH"
);
}
);
width = 520;
}
);
leftKerningGroup = a;
rightKerningGroup = a;
unicode = 1EB5;
},
{
glyphname = uni1EA5;
lastChange = "2018-11-02 02:19:07 +0000";
layers = (
{
layerId = "5AF1D23B-5AA5-4E46-9E7A-B01C8844A7CF";
name = Light;
paths = (
{
closed = 1;
nodes = (
"389 698 LINE",
"354 716 LINE",
"449 879 LINE",
"499 854 LINE"
);
},
{
closed = 1;
nodes = (
"286 741 LINE",
"403 607 LINE",
"373 585 LINE",
"251 703 LINE",
"129 585 LINE",
"99 607 LINE",
"216 741 LINE"
);
},
{
closed = 1;
nodes = (
"155 524 OFFCURVE",
"98 481 OFFCURVE",
"70 421 CURVE",
"106 391 LINE",
"134 444 OFFCURVE",
"178 474 OFFCURVE",
"246 474 CURVE SMOOTH",
"333 474 OFFCURVE",
"377 432 OFFCURVE",
"377 347 CURVE SMOOTH",
"377 287 LINE",
"259 287 LINE SMOOTH",
"111 287 OFFCURVE",
"51 230 OFFCURVE",
"51 139 CURVE SMOOTH",
"51 43 OFFCURVE",
"112 -12 OFFCURVE",
"220 -12 CURVE SMOOTH",
"300 -12 OFFCURVE",
"352 24 OFFCURVE",
"375 81 CURVE",
"380 81 LINE",
"380 0 LINE",
"434 0 LINE",
"434 353 LINE SMOOTH",
"434 461 OFFCURVE",
"368 524 OFFCURVE",
"248 524 CURVE SMOOTH"
);
},
{
closed = 1;
nodes = (
"377 114 OFFCURVE",
"361 87 OFFCURVE",
"334 68 CURVE SMOOTH",
"306 48 OFFCURVE",
"269 37 OFFCURVE",
"228 37 CURVE SMOOTH",
"157 37 OFFCURVE",
"111 68 OFFCURVE",
"111 128 CURVE SMOOTH",
"111 152 LINE SMOOTH",
"111 209 OFFCURVE",
"154 244 OFFCURVE",
"257 244 CURVE SMOOTH",
"377 244 LINE",
"377 149 LINE SMOOTH"
);
}
);
width = 520;
}
);
leftKerningGroup = a;
rightKerningGroup = a;
unicode = 1EA5;
},
{
glyphname = uni1EAD;
lastChange = "2018-11-02 02:19:08 +0000";
layers = (
{
layerId = "5AF1D23B-5AA5-4E46-9E7A-B01C8844A7CF";
name = Light;
paths = (
{
closed = 1;
nodes = (
"287 756 LINE",
"405 617 LINE",
"373 594 LINE",
"252 715 LINE",
"131 594 LINE",
"99 617 LINE",
"217 756 LINE"
);
},
{
closed = 1;
nodes = (
"210 -155 OFFCURVE",
"197 -141 OFFCURVE",
"197 -118 CURVE SMOOTH",
"197 -110 LINE SMOOTH",
"197 -87 OFFCURVE",
"210 -73 OFFCURVE",
"237 -73 CURVE SMOOTH",
"264 -73 OFFCURVE",
"277 -87 OFFCURVE",
"277 -110 CURVE SMOOTH",
"277 -118 LINE SMOOTH",
"277 -141 OFFCURVE",
"264 -155 OFFCURVE",
"237 -155 CURVE SMOOTH"
);
},
{
closed = 1;
nodes = (
"155 524 OFFCURVE",
"98 481 OFFCURVE",
"70 421 CURVE",
"106 391 LINE",
"134 444 OFFCURVE",
"178 474 OFFCURVE",
"246 474 CURVE SMOOTH",
"333 474 OFFCURVE",
"377 432 OFFCURVE",
"377 347 CURVE SMOOTH",
"377 287 LINE",
"259 287 LINE SMOOTH",
"111 287 OFFCURVE",
"51 230 OFFCURVE",
"51 139 CURVE SMOOTH",
"51 43 OFFCURVE",
"112 -12 OFFCURVE",
"220 -12 CURVE SMOOTH",
"300 -12 OFFCURVE",
"352 24 OFFCURVE",
"375 81 CURVE",
"380 81 LINE",
"380 0 LINE",
"434 0 LINE",
"434 353 LINE SMOOTH",
"434 461 OFFCURVE",
"368 524 OFFCURVE",
"248 524 CURVE SMOOTH"
);
},
{
closed = 1;
nodes = (
"377 114 OFFCURVE",
"361 87 OFFCURVE",
"334 68 CURVE SMOOTH",
"306 48 OFFCURVE",
"269 37 OFFCURVE",
"228 37 CURVE SMOOTH",
"157 37 OFFCURVE",
"111 68 OFFCURVE",
"111 128 CURVE SMOOTH",
"111 152 LINE SMOOTH",
"111 209 OFFCURVE",
"154 244 OFFCURVE",
"257 244 CURVE SMOOTH",
"377 244 LINE",
"377 149 LINE SMOOTH"
);
}
);
width = 520;
}
);
leftKerningGroup = a;
rightKerningGroup = a;
unicode = 1EAD;
},
{
glyphname = uni1EA7;
lastChange = "2018-11-02 02:19:08 +0000";
layers = (
{
layerId = "5AF1D23B-5AA5-4E46-9E7A-B01C8844A7CF";
name = Light;
paths = (
{
closed = 1;
nodes = (
"3 854 LINE",
"53 879 LINE",
"148 716 LINE",
"113 698 LINE"
);
},
{
closed = 1;
nodes = (
"286 741 LINE",
"403 607 LINE",
"373 585 LINE",
"251 703 LINE",
"129 585 LINE",
"99 607 LINE",
"216 741 LINE"
);
},
{
closed = 1;
nodes = (
"155 524 OFFCURVE",
"98 481 OFFCURVE",
"70 421 CURVE",
"106 391 LINE",
"134 444 OFFCURVE",
"178 474 OFFCURVE",
"246 474 CURVE SMOOTH",
"333 474 OFFCURVE",
"377 432 OFFCURVE",
"377 347 CURVE SMOOTH",
"377 287 LINE",
"259 287 LINE SMOOTH",
"111 287 OFFCURVE",
"51 230 OFFCURVE",
"51 139 CURVE SMOOTH",
"51 43 OFFCURVE",
"112 -12 OFFCURVE",
"220 -12 CURVE SMOOTH",
"300 -12 OFFCURVE",
"352 24 OFFCURVE",
"375 81 CURVE",
"380 81 LINE",
"380 0 LINE",
"434 0 LINE",
"434 353 LINE SMOOTH",
"434 461 OFFCURVE",
"368 524 OFFCURVE",
"248 524 CURVE SMOOTH"
);
},
{
closed = 1;
nodes = (
"377 114 OFFCURVE",
"361 87 OFFCURVE",
"334 68 CURVE SMOOTH",
"306 48 OFFCURVE",
"269 37 OFFCURVE",
"228 37 CURVE SMOOTH",
"157 37 OFFCURVE",
"111 68 OFFCURVE",
"111 128 CURVE SMOOTH",
"111 152 LINE SMOOTH",
"111 209 OFFCURVE",
"154 244 OFFCURVE",
"257 244 CURVE SMOOTH",
"377 244 LINE",
"377 149 LINE SMOOTH"
);
}
);
width = 520;
}
);
leftKerningGroup = a;
rightKerningGroup = a;
unicode = 1EA7;
},
{
glyphname = uni1EA9;
lastChange = "2018-11-02 02:19:09 +0000";
layers = (
{
layerId = "5AF1D23B-5AA5-4E46-9E7A-B01C8844A7CF";
name = Light;
paths = (
{
closed = 1;
nodes = (
"297 867 LINE",
"417 867 LINE SMOOTH",
"454 867 OFFCURVE",
"468 850 OFFCURVE",
"468 827 CURVE SMOOTH",
"468 806 OFFCURVE",
"455 781 OFFCURVE",
"426 741 CURVE SMOOTH",
"393 693 LINE",
"359 710 LINE",
"426 825 LINE",
"297 825 LINE"
);
},
{
closed = 1;
nodes = (
"286 741 LINE",
"403 607 LINE",
"373 585 LINE",
"251 703 LINE",
"129 585 LINE",
"99 607 LINE",
"216 741 LINE"
);
},
{
closed = 1;
nodes = (
"155 524 OFFCURVE",
"98 481 OFFCURVE",
"70 421 CURVE",
"106 391 LINE",
"134 444 OFFCURVE",
"178 474 OFFCURVE",
"246 474 CURVE SMOOTH",
"333 474 OFFCURVE",
"377 432 OFFCURVE",
"377 347 CURVE SMOOTH",
"377 287 LINE",
"259 287 LINE SMOOTH",
"111 287 OFFCURVE",
"51 230 OFFCURVE",
"51 139 CURVE SMOOTH",
"51 43 OFFCURVE",
"112 -12 OFFCURVE",
"220 -12 CURVE SMOOTH",
"300 -12 OFFCURVE",
"352 24 OFFCURVE",
"375 81 CURVE",
"380 81 LINE",
"380 0 LINE",
"434 0 LINE",
"434 353 LINE SMOOTH",
"434 461 OFFCURVE",
"368 524 OFFCURVE",
"248 524 CURVE SMOOTH"
);
},
{
closed = 1;
nodes = (
"377 114 OFFCURVE",
"361 87 OFFCURVE",
"334 68 CURVE SMOOTH",
"306 48 OFFCURVE",
"269 37 OFFCURVE",
"228 37 CURVE SMOOTH",
"157 37 OFFCURVE",
"111 68 OFFCURVE",
"111 128 CURVE SMOOTH",
"111 152 LINE SMOOTH",
"111 209 OFFCURVE",
"154 244 OFFCURVE",
"257 244 CURVE SMOOTH",
"377 244 LINE",
"377 149 LINE SMOOTH"
);
}
);
width = 520;
}
);
leftKerningGroup = a;
rightKerningGroup = a;
unicode = 1EA9;
},
{
glyphname = uni1EAB;
lastChange = "2018-11-02 02:19:10 +0000";
layers = (
{
layerId = "5AF1D23B-5AA5-4E46-9E7A-B01C8844A7CF";
name = Light;
paths = (
{
closed = 1;
nodes = (
"210 870 OFFCURVE",
"231 857 OFFCURVE",
"258 842 CURVE",
"289 823 OFFCURVE",
"308 817 OFFCURVE",
"327 817 CURVE SMOOTH",
"350 817 OFFCURVE",
"367 828 OFFCURVE",
"387 847 CURVE",
"411 820 LINE",
"391 793 OFFCURVE",
"362 772 OFFCURVE",
"323 772 CURVE SMOOTH",
"292 772 OFFCURVE",
"271 785 OFFCURVE",
"244 800 CURVE",
"213 819 OFFCURVE",
"194 825 OFFCURVE",
"175 825 CURVE SMOOTH",
"152 825 OFFCURVE",
"135 814 OFFCURVE",
"115 795 CURVE",
"91 822 LINE",
"111 849 OFFCURVE",
"140 870 OFFCURVE",
"179 870 CURVE SMOOTH"
);
},
{
closed = 1;
nodes = (
"286 741 LINE",
"403 607 LINE",
"373 585 LINE",
"251 703 LINE",
"129 585 LINE",
"99 607 LINE",
"216 741 LINE"
);
},
{
closed = 1;
nodes = (
"155 524 OFFCURVE",
"98 481 OFFCURVE",
"70 421 CURVE",
"106 391 LINE",
"134 444 OFFCURVE",
"178 474 OFFCURVE",
"246 474 CURVE SMOOTH",
"333 474 OFFCURVE",
"377 432 OFFCURVE",
"377 347 CURVE SMOOTH",
"377 287 LINE",
"259 287 LINE SMOOTH",
"111 287 OFFCURVE",
"51 230 OFFCURVE",
"51 139 CURVE SMOOTH",
"51 43 OFFCURVE",
"112 -12 OFFCURVE",
"220 -12 CURVE SMOOTH",
"300 -12 OFFCURVE",
"352 24 OFFCURVE",
"375 81 CURVE",
"380 81 LINE",
"380 0 LINE",
"434 0 LINE",
"434 353 LINE SMOOTH",
"434 461 OFFCURVE",
"368 524 OFFCURVE",
"248 524 CURVE SMOOTH"
);
},
{
closed = 1;
nodes = (
"377 114 OFFCURVE",
"361 87 OFFCURVE",
"334 68 CURVE SMOOTH",
"306 48 OFFCURVE",
"269 37 OFFCURVE",
"228 37 CURVE SMOOTH",
"157 37 OFFCURVE",
"111 68 OFFCURVE",
"111 128 CURVE SMOOTH",
"111 152 LINE SMOOTH",
"111 209 OFFCURVE",
"154 244 OFFCURVE",
"257 244 CURVE SMOOTH",
"377 244 LINE",
"377 149 LINE SMOOTH"
);
}
);
width = 520;
}
);
leftKerningGroup = a;
rightKerningGroup = a;
unicode = 1EAB;
},
{
glyphname = ae;
layers = (
{
layerId = "5AF1D23B-5AA5-4E46-9E7A-B01C8844A7CF";
name = Light;
paths = (
{
closed = 1;
nodes = (
"255 245 LINE SMOOTH",
"152 244 OFFCURVE",
"109 209 OFFCURVE",
"109 152 CURVE SMOOTH",
"109 128 LINE SMOOTH",
"109 68 OFFCURVE",
"154 37 OFFCURVE",
"226 37 CURVE SMOOTH",
"267 37 OFFCURVE",
"304 48 OFFCURVE",
"331 68 CURVE SMOOTH",
"358 87 OFFCURVE",
"375 114 OFFCURVE",
"375 149 CURVE SMOOTH",
"375 245 LINE"
);
},
{
closed = 1;
nodes = (
"749 289 LINE",
"749 297 LINE SMOOTH",
"749 350 OFFCURVE",
"734 396 OFFCURVE",
"707 427 CURVE SMOOTH",
"679 458 OFFCURVE",
"640 476 OFFCURVE",
"595 476 CURVE SMOOTH",
"546 476 OFFCURVE",
"505 457 OFFCURVE",
"477 425 CURVE SMOOTH",
"448 393 OFFCURVE",
"432 347 OFFCURVE",
"432 294 CURVE SMOOTH",
"432 289 LINE"
);
},
{
closed = 1;
nodes = (
"673 38 OFFCURVE",
"725 72 OFFCURVE",
"754 140 CURVE",
"796 113 LINE",
"764 37 OFFCURVE",
"694 -12 OFFCURVE",
"602 -12 CURVE SMOOTH",
"550 -12 OFFCURVE",
"507 3 OFFCURVE",
"475 26 CURVE SMOOTH",
"442 49 OFFCURVE",
"419 79 OFFCURVE",
"410 111 CURVE",
"406 111 LINE",
"399 80 OFFCURVE",
"379 49 OFFCURVE",
"347 26 CURVE SMOOTH",
"314 3 OFFCURVE",
"270 -12 OFFCURVE",
"217 -12 CURVE SMOOTH",
"113 -12 OFFCURVE",
"49 44 OFFCURVE",
"49 137 CURVE SMOOTH",
"49 230 OFFCURVE",
"110 289 OFFCURVE",
"257 289 CURVE SMOOTH",
"375 289 LINE",
"375 347 LINE SMOOTH",
"375 432 OFFCURVE",
"330 475 OFFCURVE",
"246 475 CURVE SMOOTH",
"175 475 OFFCURVE",
"133 447 OFFCURVE",
"104 391 CURVE",
"68 421 LINE",
"96 480 OFFCURVE",
"152 524 OFFCURVE",
"247 524 CURVE SMOOTH",
"302 524 OFFCURVE",
"340 508 OFFCURVE",
"366 485 CURVE SMOOTH",
"392 461 OFFCURVE",
"404 430 OFFCURVE",
"409 401 CURVE",
"413 401 LINE",
"422 432 OFFCURVE",
"445 462 OFFCURVE",
"477 486 CURVE SMOOTH",
"509 509 OFFCURVE",
"551 524 OFFCURVE",
"600 524 CURVE SMOOTH",
"664 524 OFFCURVE",
"717 498 OFFCURVE",
"754 454 CURVE SMOOTH",
"790 410 OFFCURVE",
"811 347 OFFCURVE",
"811 272 CURVE SMOOTH",
"811 245 LINE",
"432 245 LINE",
"432 220 LINE SMOOTH",
"432 167 OFFCURVE",
"448 121 OFFCURVE",
"477 89 CURVE SMOOTH",
"505 57 OFFCURVE",
"547 38 OFFCURVE",
"599 38 CURVE SMOOTH"
);
}
);
width = 863;
}
);
leftKerningGroup = a;
rightKerningGroup = e;
unicode = 00E6;
},
{
glyphname = aeacute;
layers = (
{
layerId = "5AF1D23B-5AA5-4E46-9E7A-B01C8844A7CF";
name = Light;
paths = (
{
closed = 1;
nodes = (
"255 245 LINE SMOOTH",
"152 244 OFFCURVE",
"109 209 OFFCURVE",
"109 152 CURVE SMOOTH",
"109 128 LINE SMOOTH",
"109 68 OFFCURVE",
"154 37 OFFCURVE",
"226 37 CURVE SMOOTH",
"267 37 OFFCURVE",
"304 48 OFFCURVE",
"331 68 CURVE SMOOTH",
"358 87 OFFCURVE",
"375 114 OFFCURVE",
"375 149 CURVE SMOOTH",
"375 245 LINE"
);
},
{
closed = 1;
nodes = (
"749 289 LINE",
"749 297 LINE SMOOTH",
"749 350 OFFCURVE",
"734 396 OFFCURVE",
"707 427 CURVE SMOOTH",
"679 458 OFFCURVE",
"640 476 OFFCURVE",
"595 476 CURVE SMOOTH",
"546 476 OFFCURVE",
"505 457 OFFCURVE",
"477 425 CURVE SMOOTH",
"448 393 OFFCURVE",
"432 347 OFFCURVE",
"432 294 CURVE SMOOTH",
"432 289 LINE"
);
},
{
closed = 1;
nodes = (
"673 38 OFFCURVE",
"725 72 OFFCURVE",
"754 140 CURVE",
"796 113 LINE",
"764 37 OFFCURVE",
"694 -12 OFFCURVE",
"602 -12 CURVE SMOOTH",
"550 -12 OFFCURVE",
"507 3 OFFCURVE",
"475 26 CURVE SMOOTH",
"442 49 OFFCURVE",
"419 79 OFFCURVE",
"410 111 CURVE",
"406 111 LINE",
"399 80 OFFCURVE",
"379 49 OFFCURVE",
"347 26 CURVE SMOOTH",
"314 3 OFFCURVE",
"270 -12 OFFCURVE",
"217 -12 CURVE SMOOTH",
"113 -12 OFFCURVE",
"49 44 OFFCURVE",
"49 137 CURVE SMOOTH",
"49 230 OFFCURVE",
"110 289 OFFCURVE",
"257 289 CURVE SMOOTH",
"375 289 LINE",
"375 347 LINE SMOOTH",
"375 432 OFFCURVE",
"330 475 OFFCURVE",
"246 475 CURVE SMOOTH",
"175 475 OFFCURVE",
"133 447 OFFCURVE",
"104 391 CURVE",
"68 421 LINE",
"96 480 OFFCURVE",
"152 524 OFFCURVE",
"247 524 CURVE SMOOTH",
"302 524 OFFCURVE",
"340 508 OFFCURVE",
"366 485 CURVE SMOOTH",
"392 461 OFFCURVE",
"404 430 OFFCURVE",
"409 401 CURVE",
"413 401 LINE",
"422 432 OFFCURVE",
"445 462 OFFCURVE",
"477 486 CURVE SMOOTH",
"509 509 OFFCURVE",
"551 524 OFFCURVE",
"600 524 CURVE SMOOTH",
"664 524 OFFCURVE",
"717 498 OFFCURVE",
"754 454 CURVE SMOOTH",
"790 410 OFFCURVE",
"811 347 OFFCURVE",
"811 272 CURVE SMOOTH",
"811 245 LINE",
"432 245 LINE",
"432 220 LINE SMOOTH",
"432 167 OFFCURVE",
"448 121 OFFCURVE",
"477 89 CURVE SMOOTH",
"505 57 OFFCURVE",
"547 38 OFFCURVE",
"599 38 CURVE SMOOTH"
);
},
{
closed = 1;
nodes = (
"416 586 LINE",
"379 604 LINE",
"474 768 LINE",
"526 742 LINE"
);
}
);
width = 863;
}
);
leftKerningGroup = a;
rightKerningGroup = e;
unicode = 01FD;
},
{
glyphname = cacute;
layers = (
{
layerId = "5AF1D23B-5AA5-4E46-9E7A-B01C8844A7CF";
name = Light;
paths = (
{
closed = 1;
nodes = (
"132 -12 OFFCURVE",
"52 85 OFFCURVE",
"52 256 CURVE SMOOTH",
"52 427 OFFCURVE",
"132 524 OFFCURVE",
"273 524 CURVE SMOOTH",
"368 524 OFFCURVE",
"424 479 OFFCURVE",
"455 411 CURVE",
"407 387 LINE",
"383 443 OFFCURVE",
"341 473 OFFCURVE",
"273 473 CURVE SMOOTH",
"169 473 OFFCURVE",
"113 400 OFFCURVE",
"113 292 CURVE SMOOTH",
"113 220 LINE SMOOTH",
"113 112 OFFCURVE",
"169 39 OFFCURVE",
"273 39 CURVE SMOOTH",
"344 39 OFFCURVE",
"391 71 OFFCURVE",
"420 128 CURVE",
"462 100 LINE",
"429 32 OFFCURVE",
"368 -12 OFFCURVE",
"273 -12 CURVE SMOOTH"
);
},
{
closed = 1;
nodes = (
"272 586 LINE",
"235 604 LINE",
"330 768 LINE",
"382 742 LINE"
);
}
);
width = 497;
}
);
leftKerningGroup = c;
rightKerningGroup = c;
unicode = 0107;
},
{
glyphname = ccaron;
layers = (
{
layerId = "5AF1D23B-5AA5-4E46-9E7A-B01C8844A7CF";
name = Light;
paths = (
{
closed = 1;
nodes = (
"132 -12 OFFCURVE",
"52 85 OFFCURVE",
"52 256 CURVE SMOOTH",
"52 427 OFFCURVE",
"132 524 OFFCURVE",
"273 524 CURVE SMOOTH",
"368 524 OFFCURVE",
"424 479 OFFCURVE",
"455 411 CURVE",
"407 387 LINE",
"383 443 OFFCURVE",
"341 473 OFFCURVE",
"273 473 CURVE SMOOTH",
"169 473 OFFCURVE",
"113 400 OFFCURVE",
"113 292 CURVE SMOOTH",
"113 220 LINE SMOOTH",
"113 112 OFFCURVE",
"169 39 OFFCURVE",
"273 39 CURVE SMOOTH",
"344 39 OFFCURVE",
"391 71 OFFCURVE",
"420 128 CURVE",
"462 100 LINE",
"429 32 OFFCURVE",
"368 -12 OFFCURVE",
"273 -12 CURVE SMOOTH"
);
},
{
closed = 1;
nodes = (
"240 601 LINE",
"122 740 LINE",
"154 763 LINE",
"275 642 LINE",
"396 763 LINE",
"428 740 LINE",
"310 601 LINE"
);
}
);
width = 497;
}
);
leftKerningGroup = c;
rightKerningGroup = c;
unicode = 010D;
},
{
glyphname = ccedilla;
layers = (
{
layerId = "5AF1D23B-5AA5-4E46-9E7A-B01C8844A7CF";
name = Light;
paths = (
{
closed = 1;
nodes = (
"368 524 OFFCURVE",
"424 479 OFFCURVE",
"455 412 CURVE",
"407 387 LINE",
"383 443 OFFCURVE",
"341 473 OFFCURVE",
"273 473 CURVE SMOOTH",
"169 473 OFFCURVE",
"113 400 OFFCURVE",
"113 292 CURVE SMOOTH",
"113 220 LINE SMOOTH",
"113 112 OFFCURVE",
"169 39 OFFCURVE",
"273 39 CURVE SMOOTH",
"344 39 OFFCURVE",
"391 71 OFFCURVE",
"420 128 CURVE",
"462 100 LINE",
"431 36 OFFCURVE",
"375 -7 OFFCURVE",
"290 -11 CURVE",
"278 -66 LINE",
"280 -68 LINE",
"293 -65 OFFCURVE",
"305 -63 OFFCURVE",
"316 -63 CURVE SMOOTH",
"355 -63 OFFCURVE",
"384 -86 OFFCURVE",
"384 -127 CURVE SMOOTH",
"384 -176 OFFCURVE",
"340 -205 OFFCURVE",
"284 -205 CURVE SMOOTH",
"236 -205 OFFCURVE",
"205 -187 OFFCURVE",
"192 -168 CURVE",
"220 -137 LINE",
"233 -153 OFFCURVE",
"253 -165 OFFCURVE",
"284 -165 CURVE SMOOTH",
"313 -165 OFFCURVE",
"335 -153 OFFCURVE",
"335 -126 CURVE SMOOTH",
"335 -115 OFFCURVE",
"331 -106 OFFCURVE",
"322 -99 CURVE SMOOTH",
"313 -92 OFFCURVE",
"295 -86 OFFCURVE",
"269 -83 CURVE SMOOTH",
"238 -80 LINE",
"252 -11 LINE",
"123 -2 OFFCURVE",
"52 95 OFFCURVE",
"52 256 CURVE SMOOTH",
"52 427 OFFCURVE",
"132 524 OFFCURVE",
"273 524 CURVE SMOOTH"
);
}
);
width = 496;
}
);
leftKerningGroup = c;
rightKerningGroup = c;
unicode = 00E7;
},
{
glyphname = ccircumflex;
layers = (
{
layerId = "5AF1D23B-5AA5-4E46-9E7A-B01C8844A7CF";
name = Light;
paths = (
{
closed = 1;
nodes = (
"132 -12 OFFCURVE",
"52 85 OFFCURVE",
"52 256 CURVE SMOOTH",
"52 427 OFFCURVE",
"132 524 OFFCURVE",
"273 524 CURVE SMOOTH",
"368 524 OFFCURVE",
"424 479 OFFCURVE",
"455 411 CURVE",
"407 387 LINE",
"383 443 OFFCURVE",
"341 473 OFFCURVE",
"273 473 CURVE SMOOTH",
"169 473 OFFCURVE",
"113 400 OFFCURVE",
"113 292 CURVE SMOOTH",
"113 220 LINE SMOOTH",
"113 112 OFFCURVE",
"169 39 OFFCURVE",
"273 39 CURVE SMOOTH",
"344 39 OFFCURVE",
"391 71 OFFCURVE",
"420 128 CURVE",
"462 100 LINE",
"429 32 OFFCURVE",
"368 -12 OFFCURVE",
"273 -12 CURVE SMOOTH"
);
},
{
closed = 1;
nodes = (
"310 756 LINE",
"428 617 LINE",
"396 594 LINE",
"275 715 LINE",
"154 594 LINE",
"122 617 LINE",
"240 756 LINE"
);
}
);
width = 497;
}
);
leftKerningGroup = c;
rightKerningGroup = c;
unicode = 0109;
},
{
glyphname = cdotaccent;
layers = (
{
layerId = "5AF1D23B-5AA5-4E46-9E7A-B01C8844A7CF";
name = Light;
paths = (
{
closed = 1;
nodes = (
"132 -12 OFFCURVE",
"52 85 OFFCURVE",
"52 256 CURVE SMOOTH",
"52 427 OFFCURVE",
"132 524 OFFCURVE",
"273 524 CURVE SMOOTH",
"368 524 OFFCURVE",
"424 479 OFFCURVE",
"455 411 CURVE",
"407 387 LINE",
"383 443 OFFCURVE",
"341 473 OFFCURVE",
"273 473 CURVE SMOOTH",
"169 473 OFFCURVE",
"113 400 OFFCURVE",
"113 292 CURVE SMOOTH",
"113 220 LINE SMOOTH",
"113 112 OFFCURVE",
"169 39 OFFCURVE",
"273 39 CURVE SMOOTH",
"344 39 OFFCURVE",
"391 71 OFFCURVE",
"420 128 CURVE",
"462 100 LINE",
"429 32 OFFCURVE",
"368 -12 OFFCURVE",
"273 -12 CURVE SMOOTH"
);
},
{
closed = 1;
nodes = (
"248 626 OFFCURVE",
"235 641 OFFCURVE",
"235 662 CURVE SMOOTH",
"235 672 LINE SMOOTH",
"235 693 OFFCURVE",
"248 708 OFFCURVE",
"275 708 CURVE SMOOTH",
"302 708 OFFCURVE",
"315 693 OFFCURVE",
"315 672 CURVE SMOOTH",
"315 662 LINE SMOOTH",
"315 641 OFFCURVE",
"302 626 OFFCURVE",
"275 626 CURVE SMOOTH"
);
}
);
width = 497;
}
);
leftKerningGroup = c;
rightKerningGroup = c;
unicode = 010B;
},
{
glyphname = dcaron;
layers = (
{
layerId = "5AF1D23B-5AA5-4E46-9E7A-B01C8844A7CF";
name = Light;
paths = (
{
closed = 1;
nodes = (
"424 82 LINE",
"421 82 LINE",
"394 25 OFFCURVE",
"344 -12 OFFCURVE",
"265 -12 CURVE SMOOTH",
"133 -12 OFFCURVE",
"54 85 OFFCURVE",
"54 256 CURVE SMOOTH",
"54 427 OFFCURVE",
"133 524 OFFCURVE",
"265 524 CURVE SMOOTH",
"344 524 OFFCURVE",
"396 487 OFFCURVE",
"421 430 CURVE",
"424 430 LINE",
"424 740 LINE",
"481 740 LINE",
"481 0 LINE",
"424 0 LINE"
);
},
{
closed = 1;
nodes = (
"318 39 OFFCURVE",
"354 50 OFFCURVE",
"381 71 CURVE SMOOTH",
"408 91 OFFCURVE",
"424 120 OFFCURVE",
"424 156 CURVE SMOOTH",
"424 359 LINE SMOOTH",
"424 392 OFFCURVE",
"408 421 OFFCURVE",
"381 441 CURVE SMOOTH",
"354 461 OFFCURVE",
"318 473 OFFCURVE",
"278 473 CURVE SMOOTH",
"175 473 OFFCURVE",
"115 403 OFFCURVE",
"115 292 CURVE SMOOTH",
"115 220 LINE SMOOTH",
"115 109 OFFCURVE",
"175 39 OFFCURVE",
"278 39 CURVE SMOOTH"
);
},
{
closed = 1;
nodes = (
"591 559 LINE",
"552 559 LINE",
"566 740 LINE",
"632 740 LINE"
);
}
);
width = 574;
}
);
leftKerningGroup = d;
rightKerningGroup = dcaron;
unicode = 010F;
},
{
glyphname = dcroat;
layers = (
{
layerId = "5AF1D23B-5AA5-4E46-9E7A-B01C8844A7CF";
name = Light;
paths = (
{
closed = 1;
nodes = (
"424 82 LINE",
"421 82 LINE",
"394 25 OFFCURVE",
"344 -12 OFFCURVE",
"265 -12 CURVE SMOOTH",
"133 -12 OFFCURVE",
"54 85 OFFCURVE",
"54 256 CURVE SMOOTH",
"54 427 OFFCURVE",
"133 524 OFFCURVE",
"265 524 CURVE SMOOTH",
"344 524 OFFCURVE",
"396 487 OFFCURVE",
"421 430 CURVE",
"424 430 LINE",
"424 616 LINE",
"269 616 LINE",
"269 661 LINE",
"424 661 LINE",
"424 740 LINE",
"481 740 LINE",
"481 661 LINE",
"546 661 LINE",
"546 616 LINE",
"481 616 LINE",
"481 0 LINE",
"424 0 LINE"
);
},
{
closed = 1;
nodes = (
"318 39 OFFCURVE",
"354 50 OFFCURVE",
"381 71 CURVE SMOOTH",
"408 91 OFFCURVE",
"424 120 OFFCURVE",
"424 156 CURVE SMOOTH",
"424 359 LINE SMOOTH",
"424 392 OFFCURVE",
"408 421 OFFCURVE",
"381 441 CURVE SMOOTH",
"354 461 OFFCURVE",
"318 473 OFFCURVE",
"278 473 CURVE SMOOTH",
"175 473 OFFCURVE",
"115 403 OFFCURVE",
"115 292 CURVE SMOOTH",
"115 220 LINE SMOOTH",
"115 109 OFFCURVE",
"175 39 OFFCURVE",
"278 39 CURVE SMOOTH"
);
}
);
width = 574;
}
);
leftKerningGroup = d;
unicode = 0111;
},
{
glyphname = eth;
layers = (
{
layerId = "5AF1D23B-5AA5-4E46-9E7A-B01C8844A7CF";
name = Light;
paths = (
{
closed = 1;
nodes = (
"413 722 LINE",
"323 658 LINE",
"367 615 OFFCURVE",
"410 560 OFFCURVE",
"442 493 CURVE SMOOTH",
"474 426 OFFCURVE",
"495 349 OFFCURVE",
"495 262 CURVE SMOOTH",
"495 173 OFFCURVE",
"472 105 OFFCURVE",
"433 59 CURVE SMOOTH",
"394 13 OFFCURVE",
"339 -12 OFFCURVE",
"274 -12 CURVE SMOOTH",
"206 -12 OFFCURVE",
"151 14 OFFCURVE",
"112 59 CURVE SMOOTH",
"73 103 OFFCURVE",
"52 168 OFFCURVE",
"52 247 CURVE SMOOTH",
"52 324 OFFCURVE",
"73 388 OFFCURVE",
"112 433 CURVE SMOOTH",
"151 477 OFFCURVE",
"206 502 OFFCURVE",
"274 502 CURVE SMOOTH",
"341 502 OFFCURVE",
"390 473 OFFCURVE",
"417 414 CURVE",
"421 416 LINE",
"398 500 OFFCURVE",
"345 569 OFFCURVE",
"282 629 CURVE",
"192 564 LINE",
"169 595 LINE",
"253 655 LINE",
"216 686 OFFCURVE",
"172 716 OFFCURVE",
"129 740 CURVE",
"218 740 LINE",
"245 724 OFFCURVE",
"265 709 OFFCURVE",
"293 684 CURVE",
"389 753 LINE"
);
},
{
closed = 1;
nodes = (
"322 37 OFFCURVE",
"362 54 OFFCURVE",
"390 85 CURVE SMOOTH",
"418 116 OFFCURVE",
"434 160 OFFCURVE",
"434 215 CURVE SMOOTH",
"434 275 LINE SMOOTH",
"434 330 OFFCURVE",
"418 374 OFFCURVE",
"390 405 CURVE SMOOTH",
"362 436 OFFCURVE",
"322 453 OFFCURVE",
"274 453 CURVE SMOOTH",
"178 453 OFFCURVE",
"114 386 OFFCURVE",
"114 275 CURVE SMOOTH",
"114 215 LINE SMOOTH",
"114 160 OFFCURVE",
"130 116 OFFCURVE",
"158 85 CURVE SMOOTH",
"186 54 OFFCURVE",
"226 37 OFFCURVE",
"274 37 CURVE SMOOTH"
);
}
);
width = 551;
}
);
leftKerningGroup = d;
rightKerningGroup = o;
unicode = 00F0;
},
{
glyphname = eacute;
layers = (
{
layerId = "5AF1D23B-5AA5-4E46-9E7A-B01C8844A7CF";
name = Light;
paths = (
{
closed = 1;
nodes = (
"208 -12 OFFCURVE",
"152 13 OFFCURVE",
"113 59 CURVE SMOOTH",
"73 105 OFFCURVE",
"52 172 OFFCURVE",
"52 256 CURVE SMOOTH",
"52 340 OFFCURVE",
"73 407 OFFCURVE",
"113 453 CURVE SMOOTH",
"152 499 OFFCURVE",
"207 524 OFFCURVE",
"275 524 CURVE SMOOTH",
"340 524 OFFCURVE",
"395 498 OFFCURVE",
"432 454 CURVE SMOOTH",
"469 410 OFFCURVE",
"491 347 OFFCURVE",
"491 272 CURVE SMOOTH",
"491 245 LINE",
"112 245 LINE",
"112 220 LINE SMOOTH",
"112 167 OFFCURVE",
"128 121 OFFCURVE",
"157 89 CURVE SMOOTH",
"185 57 OFFCURVE",
"227 38 OFFCURVE",
"279 38 CURVE SMOOTH",
"354 38 OFFCURVE",
"405 72 OFFCURVE",
"434 141 CURVE",
"476 113 LINE",
"444 37 OFFCURVE",
"373 -12 OFFCURVE",
"276 -12 CURVE SMOOTH"
);
},
{
closed = 1;
nodes = (
"226 476 OFFCURVE",
"185 457 OFFCURVE",
"157 425 CURVE SMOOTH",
"128 393 OFFCURVE",
"112 347 OFFCURVE",
"112 294 CURVE SMOOTH",
"112 289 LINE",
"429 289 LINE",
"429 297 LINE SMOOTH",
"429 350 OFFCURVE",
"414 396 OFFCURVE",
"387 427 CURVE SMOOTH",
"359 458 OFFCURVE",
"320 476 OFFCURVE",
"275 476 CURVE SMOOTH"
);
},
{
closed = 1;
nodes = (
"273 586 LINE",
"236 604 LINE",
"331 768 LINE",
"383 742 LINE"
);
}
);
width = 543;
}
);
leftKerningGroup = c;
rightKerningGroup = e;
unicode = 00E9;
},
{
glyphname = ebreve;
layers = (
{
layerId = "5AF1D23B-5AA5-4E46-9E7A-B01C8844A7CF";
name = Light;
paths = (
{
closed = 1;
nodes = (
"208 -12 OFFCURVE",
"152 13 OFFCURVE",
"113 59 CURVE SMOOTH",
"73 105 OFFCURVE",
"52 172 OFFCURVE",
"52 256 CURVE SMOOTH",
"52 340 OFFCURVE",
"73 407 OFFCURVE",
"113 453 CURVE SMOOTH",
"152 499 OFFCURVE",
"207 524 OFFCURVE",
"275 524 CURVE SMOOTH",
"340 524 OFFCURVE",
"395 498 OFFCURVE",
"432 454 CURVE SMOOTH",
"469 410 OFFCURVE",
"491 347 OFFCURVE",
"491 272 CURVE SMOOTH",
"491 245 LINE",
"112 245 LINE",
"112 220 LINE SMOOTH",
"112 167 OFFCURVE",
"128 121 OFFCURVE",
"157 89 CURVE SMOOTH",
"185 57 OFFCURVE",
"227 38 OFFCURVE",
"279 38 CURVE SMOOTH",
"354 38 OFFCURVE",
"405 72 OFFCURVE",
"434 141 CURVE",
"476 113 LINE",
"444 37 OFFCURVE",
"373 -12 OFFCURVE",
"276 -12 CURVE SMOOTH"
);
},
{
closed = 1;
nodes = (
"226 476 OFFCURVE",
"185 457 OFFCURVE",
"157 425 CURVE SMOOTH",
"128 393 OFFCURVE",
"112 347 OFFCURVE",
"112 294 CURVE SMOOTH",
"112 289 LINE",
"429 289 LINE",
"429 297 LINE SMOOTH",
"429 350 OFFCURVE",
"414 396 OFFCURVE",
"387 427 CURVE SMOOTH",
"359 458 OFFCURVE",
"320 476 OFFCURVE",
"275 476 CURVE SMOOTH"
);
},
{
closed = 1;
nodes = (
"229 600 OFFCURVE",
"200 615 OFFCURVE",
"179 638 CURVE SMOOTH",
"158 661 OFFCURVE",
"144 691 OFFCURVE",
"132 722 CURVE",
"165 738 LINE",
"184 707 LINE SMOOTH",
"209 664 OFFCURVE",
"228 646 OFFCURVE",
"276 646 CURVE SMOOTH",
"324 646 OFFCURVE",
"343 664 OFFCURVE",
"368 707 CURVE SMOOTH",
"387 738 LINE",
"420 722 LINE",
"408 691 OFFCURVE",
"394 661 OFFCURVE",
"373 638 CURVE SMOOTH",
"352 615 OFFCURVE",
"321 600 OFFCURVE",
"276 600 CURVE SMOOTH"
);
}
);
width = 543;
}
);
leftKerningGroup = c;
rightKerningGroup = e;
unicode = 0115;
},
{
glyphname = ecaron;
layers = (
{
layerId = "5AF1D23B-5AA5-4E46-9E7A-B01C8844A7CF";
name = Light;
paths = (
{
closed = 1;
nodes = (
"208 -12 OFFCURVE",
"152 13 OFFCURVE",
"113 59 CURVE SMOOTH",
"73 105 OFFCURVE",
"52 172 OFFCURVE",
"52 256 CURVE SMOOTH",
"52 340 OFFCURVE",
"73 407 OFFCURVE",
"113 453 CURVE SMOOTH",
"152 499 OFFCURVE",
"207 524 OFFCURVE",
"275 524 CURVE SMOOTH",
"340 524 OFFCURVE",
"395 498 OFFCURVE",
"432 454 CURVE SMOOTH",
"469 410 OFFCURVE",
"491 347 OFFCURVE",
"491 272 CURVE SMOOTH",
"491 245 LINE",
"112 245 LINE",
"112 220 LINE SMOOTH",
"112 167 OFFCURVE",
"128 121 OFFCURVE",
"157 89 CURVE SMOOTH",
"185 57 OFFCURVE",
"227 38 OFFCURVE",
"279 38 CURVE SMOOTH",
"354 38 OFFCURVE",
"405 72 OFFCURVE",
"434 141 CURVE",
"476 113 LINE",
"444 37 OFFCURVE",
"373 -12 OFFCURVE",
"276 -12 CURVE SMOOTH"
);
},
{
closed = 1;
nodes = (
"226 476 OFFCURVE",
"185 457 OFFCURVE",
"157 425 CURVE SMOOTH",
"128 393 OFFCURVE",
"112 347 OFFCURVE",
"112 294 CURVE SMOOTH",
"112 289 LINE",
"429 289 LINE",
"429 297 LINE SMOOTH",
"429 350 OFFCURVE",
"414 396 OFFCURVE",
"387 427 CURVE SMOOTH",
"359 458 OFFCURVE",
"320 476 OFFCURVE",
"275 476 CURVE SMOOTH"
);
},
{
closed = 1;
nodes = (
"241 601 LINE",
"123 740 LINE",
"155 763 LINE",
"276 642 LINE",
"397 763 LINE",
"429 740 LINE",
"311 601 LINE"
);
}
);
width = 543;
}
);
leftKerningGroup = c;
rightKerningGroup = e;
unicode = 011B;
},
{
glyphname = ecircumflex;
layers = (
{
layerId = "5AF1D23B-5AA5-4E46-9E7A-B01C8844A7CF";
name = Light;
paths = (
{
closed = 1;
nodes = (
"208 -12 OFFCURVE",
"152 13 OFFCURVE",
"113 59 CURVE SMOOTH",
"73 105 OFFCURVE",
"52 172 OFFCURVE",
"52 256 CURVE SMOOTH",
"52 340 OFFCURVE",
"73 407 OFFCURVE",
"113 453 CURVE SMOOTH",
"152 499 OFFCURVE",
"207 524 OFFCURVE",
"275 524 CURVE SMOOTH",
"340 524 OFFCURVE",
"395 498 OFFCURVE",
"432 454 CURVE SMOOTH",
"469 410 OFFCURVE",
"491 347 OFFCURVE",
"491 272 CURVE SMOOTH",
"491 245 LINE",
"112 245 LINE",
"112 220 LINE SMOOTH",
"112 167 OFFCURVE",
"128 121 OFFCURVE",
"157 89 CURVE SMOOTH",
"185 57 OFFCURVE",
"227 38 OFFCURVE",
"279 38 CURVE SMOOTH",
"354 38 OFFCURVE",
"405 72 OFFCURVE",
"434 141 CURVE",
"476 113 LINE",
"444 37 OFFCURVE",
"373 -12 OFFCURVE",
"276 -12 CURVE SMOOTH"
);
},
{
closed = 1;
nodes = (
"226 476 OFFCURVE",
"185 457 OFFCURVE",
"157 425 CURVE SMOOTH",
"128 393 OFFCURVE",
"112 347 OFFCURVE",
"112 294 CURVE SMOOTH",
"112 289 LINE",
"429 289 LINE",
"429 297 LINE SMOOTH",
"429 350 OFFCURVE",
"414 396 OFFCURVE",
"387 427 CURVE SMOOTH",
"359 458 OFFCURVE",
"320 476 OFFCURVE",
"275 476 CURVE SMOOTH"
);
},
{
closed = 1;
nodes = (
"311 756 LINE",
"429 617 LINE",
"397 594 LINE",
"276 715 LINE",
"155 594 LINE",
"123 617 LINE",
"241 756 LINE"
);
}
);
width = 543;
}
);
leftKerningGroup = c;
rightKerningGroup = e;
unicode = 00EA;
},
{
glyphname = edieresis;
layers = (
{
layerId = "5AF1D23B-5AA5-4E46-9E7A-B01C8844A7CF";
name = Light;
paths = (
{
closed = 1;
nodes = (
"208 -12 OFFCURVE",
"152 13 OFFCURVE",
"113 59 CURVE SMOOTH",
"73 105 OFFCURVE",
"52 172 OFFCURVE",
"52 256 CURVE SMOOTH",
"52 340 OFFCURVE",
"73 407 OFFCURVE",
"113 453 CURVE SMOOTH",
"152 499 OFFCURVE",
"207 524 OFFCURVE",
"275 524 CURVE SMOOTH",
"340 524 OFFCURVE",
"395 498 OFFCURVE",
"432 454 CURVE SMOOTH",
"469 410 OFFCURVE",
"491 347 OFFCURVE",
"491 272 CURVE SMOOTH",
"491 245 LINE",
"112 245 LINE",
"112 220 LINE SMOOTH",
"112 167 OFFCURVE",
"128 121 OFFCURVE",
"157 89 CURVE SMOOTH",
"185 57 OFFCURVE",
"227 38 OFFCURVE",
"279 38 CURVE SMOOTH",
"354 38 OFFCURVE",
"405 72 OFFCURVE",
"434 141 CURVE",
"476 113 LINE",
"444 37 OFFCURVE",
"373 -12 OFFCURVE",
"276 -12 CURVE SMOOTH"
);
},
{
closed = 1;
nodes = (
"226 476 OFFCURVE",
"185 457 OFFCURVE",
"157 425 CURVE SMOOTH",
"128 393 OFFCURVE",
"112 347 OFFCURVE",
"112 294 CURVE SMOOTH",
"112 289 LINE",
"429 289 LINE",
"429 297 LINE SMOOTH",
"429 350 OFFCURVE",
"414 396 OFFCURVE",
"387 427 CURVE SMOOTH",
"359 458 OFFCURVE",
"320 476 OFFCURVE",
"275 476 CURVE SMOOTH"
);
},
{
closed = 1;
nodes = (
"156 627 OFFCURVE",
"145 642 OFFCURVE",
"145 663 CURVE SMOOTH",
"145 673 LINE SMOOTH",
"145 694 OFFCURVE",
"156 709 OFFCURVE",
"184 709 CURVE SMOOTH",
"211 709 OFFCURVE",
"223 694 OFFCURVE",
"223 673 CURVE SMOOTH",
"223 663 LINE SMOOTH",
"223 642 OFFCURVE",
"211 627 OFFCURVE",
"184 627 CURVE SMOOTH"
);
},
{
closed = 1;
nodes = (
"341 627 OFFCURVE",
"329 642 OFFCURVE",
"329 663 CURVE SMOOTH",
"329 673 LINE SMOOTH",
"329 694 OFFCURVE",
"341 709 OFFCURVE",
"368 709 CURVE SMOOTH",
"396 709 OFFCURVE",
"407 694 OFFCURVE",
"407 673 CURVE SMOOTH",
"407 663 LINE SMOOTH",
"407 642 OFFCURVE",
"396 627 OFFCURVE",
"368 627 CURVE SMOOTH"
);
}
);
width = 543;
}
);
leftKerningGroup = c;
rightKerningGroup = e;
unicode = 00EB;
},
{
glyphname = edotaccent;
layers = (
{
layerId = "5AF1D23B-5AA5-4E46-9E7A-B01C8844A7CF";
name = Light;
paths = (
{
closed = 1;
nodes = (
"208 -12 OFFCURVE",
"152 13 OFFCURVE",
"113 59 CURVE SMOOTH",
"73 105 OFFCURVE",
"52 172 OFFCURVE",
"52 256 CURVE SMOOTH",
"52 340 OFFCURVE",
"73 407 OFFCURVE",
"113 453 CURVE SMOOTH",
"152 499 OFFCURVE",
"207 524 OFFCURVE",
"275 524 CURVE SMOOTH",
"340 524 OFFCURVE",
"395 498 OFFCURVE",
"432 454 CURVE SMOOTH",
"469 410 OFFCURVE",
"491 347 OFFCURVE",
"491 272 CURVE SMOOTH",
"491 245 LINE",
"112 245 LINE",
"112 220 LINE SMOOTH",
"112 167 OFFCURVE",
"128 121 OFFCURVE",
"157 89 CURVE SMOOTH",
"185 57 OFFCURVE",
"227 38 OFFCURVE",
"279 38 CURVE SMOOTH",
"354 38 OFFCURVE",
"405 72 OFFCURVE",
"434 141 CURVE",
"476 113 LINE",
"444 37 OFFCURVE",
"373 -12 OFFCURVE",
"276 -12 CURVE SMOOTH"
);
},
{
closed = 1;
nodes = (
"226 476 OFFCURVE",
"185 457 OFFCURVE",
"157 425 CURVE SMOOTH",
"128 393 OFFCURVE",
"112 347 OFFCURVE",
"112 294 CURVE SMOOTH",
"112 289 LINE",
"429 289 LINE",
"429 297 LINE SMOOTH",
"429 350 OFFCURVE",
"414 396 OFFCURVE",
"387 427 CURVE SMOOTH",
"359 458 OFFCURVE",
"320 476 OFFCURVE",
"275 476 CURVE SMOOTH"
);
},
{
closed = 1;
nodes = (
"249 626 OFFCURVE",
"236 641 OFFCURVE",
"236 662 CURVE SMOOTH",
"236 672 LINE SMOOTH",
"236 693 OFFCURVE",
"249 708 OFFCURVE",
"276 708 CURVE SMOOTH",
"303 708 OFFCURVE",
"316 693 OFFCURVE",
"316 672 CURVE SMOOTH",
"316 662 LINE SMOOTH",
"316 641 OFFCURVE",
"303 626 OFFCURVE",
"276 626 CURVE SMOOTH"
);
}
);
width = 543;
}
);
leftKerningGroup = c;
rightKerningGroup = e;
unicode = 0117;
},
{
glyphname = uni1EB9;
layers = (
{
layerId = "5AF1D23B-5AA5-4E46-9E7A-B01C8844A7CF";
name = Light;
paths = (
{
closed = 1;
nodes = (
"208 -12 OFFCURVE",
"152 13 OFFCURVE",
"113 59 CURVE SMOOTH",
"73 105 OFFCURVE",
"52 172 OFFCURVE",
"52 256 CURVE SMOOTH",
"52 340 OFFCURVE",
"73 407 OFFCURVE",
"113 453 CURVE SMOOTH",
"152 499 OFFCURVE",
"207 524 OFFCURVE",
"275 524 CURVE SMOOTH",
"340 524 OFFCURVE",
"395 498 OFFCURVE",
"432 454 CURVE SMOOTH",
"469 410 OFFCURVE",
"491 347 OFFCURVE",
"491 272 CURVE SMOOTH",
"491 245 LINE",
"112 245 LINE",
"112 220 LINE SMOOTH",
"112 167 OFFCURVE",
"128 121 OFFCURVE",
"157 89 CURVE SMOOTH",
"185 57 OFFCURVE",
"227 38 OFFCURVE",
"279 38 CURVE SMOOTH",
"354 38 OFFCURVE",
"405 72 OFFCURVE",
"434 141 CURVE",
"476 113 LINE",
"444 37 OFFCURVE",
"373 -12 OFFCURVE",
"276 -12 CURVE SMOOTH"
);
},
{
closed = 1;
nodes = (
"226 476 OFFCURVE",
"185 457 OFFCURVE",
"157 425 CURVE SMOOTH",
"128 393 OFFCURVE",
"112 347 OFFCURVE",
"112 294 CURVE SMOOTH",
"112 289 LINE",
"429 289 LINE",
"429 297 LINE SMOOTH",
"429 350 OFFCURVE",
"414 396 OFFCURVE",
"387 427 CURVE SMOOTH",
"359 458 OFFCURVE",
"320 476 OFFCURVE",
"275 476 CURVE SMOOTH"
);
},
{
closed = 1;
nodes = (
"252 -155 OFFCURVE",
"239 -141 OFFCURVE",
"239 -118 CURVE SMOOTH",
"239 -110 LINE SMOOTH",
"239 -87 OFFCURVE",
"252 -73 OFFCURVE",
"279 -73 CURVE SMOOTH",
"306 -73 OFFCURVE",
"319 -87 OFFCURVE",
"319 -110 CURVE SMOOTH",
"319 -118 LINE SMOOTH",
"319 -141 OFFCURVE",
"306 -155 OFFCURVE",
"279 -155 CURVE SMOOTH"
);
}
);
width = 543;
}
);
leftKerningGroup = c;
rightKerningGroup = e;
unicode = 1EB9;
},
{
glyphname = egrave;
layers = (
{
layerId = "5AF1D23B-5AA5-4E46-9E7A-B01C8844A7CF";
name = Light;
paths = (
{
closed = 1;
nodes = (
"208 -12 OFFCURVE",
"152 13 OFFCURVE",
"113 59 CURVE SMOOTH",
"73 105 OFFCURVE",
"52 172 OFFCURVE",
"52 256 CURVE SMOOTH",
"52 340 OFFCURVE",
"73 407 OFFCURVE",
"113 453 CURVE SMOOTH",
"152 499 OFFCURVE",
"207 524 OFFCURVE",
"275 524 CURVE SMOOTH",
"340 524 OFFCURVE",
"395 498 OFFCURVE",
"432 454 CURVE SMOOTH",
"469 410 OFFCURVE",
"491 347 OFFCURVE",
"491 272 CURVE SMOOTH",
"491 245 LINE",
"112 245 LINE",
"112 220 LINE SMOOTH",
"112 167 OFFCURVE",
"128 121 OFFCURVE",
"157 89 CURVE SMOOTH",
"185 57 OFFCURVE",
"227 38 OFFCURVE",
"279 38 CURVE SMOOTH",
"354 38 OFFCURVE",
"405 72 OFFCURVE",
"434 141 CURVE",
"476 113 LINE",
"444 37 OFFCURVE",
"373 -12 OFFCURVE",
"276 -12 CURVE SMOOTH"
);
},
{
closed = 1;
nodes = (
"226 476 OFFCURVE",
"185 457 OFFCURVE",
"157 425 CURVE SMOOTH",
"128 393 OFFCURVE",
"112 347 OFFCURVE",
"112 294 CURVE SMOOTH",
"112 289 LINE",
"429 289 LINE",
"429 297 LINE SMOOTH",
"429 350 OFFCURVE",
"414 396 OFFCURVE",
"387 427 CURVE SMOOTH",
"359 458 OFFCURVE",
"320 476 OFFCURVE",
"275 476 CURVE SMOOTH"
);
},
{
closed = 1;
nodes = (
"169 742 LINE",
"221 768 LINE",
"316 604 LINE",
"278 586 LINE"
);
}
);
width = 543;
}
);
leftKerningGroup = c;
rightKerningGroup = e;
unicode = 00E8;
},
{
glyphname = uni1EBB;
layers = (
{
layerId = "5AF1D23B-5AA5-4E46-9E7A-B01C8844A7CF";
name = Light;
paths = (
{
closed = 1;
nodes = (
"208 -12 OFFCURVE",
"152 13 OFFCURVE",
"113 59 CURVE SMOOTH",
"73 105 OFFCURVE",
"52 172 OFFCURVE",
"52 256 CURVE SMOOTH",
"52 340 OFFCURVE",
"73 407 OFFCURVE",
"113 453 CURVE SMOOTH",
"152 499 OFFCURVE",
"207 524 OFFCURVE",
"275 524 CURVE SMOOTH",
"340 524 OFFCURVE",
"395 498 OFFCURVE",
"432 454 CURVE SMOOTH",
"469 410 OFFCURVE",
"491 347 OFFCURVE",
"491 272 CURVE SMOOTH",
"491 245 LINE",
"112 245 LINE",
"112 220 LINE SMOOTH",
"112 167 OFFCURVE",
"128 121 OFFCURVE",
"157 89 CURVE SMOOTH",
"185 57 OFFCURVE",
"227 38 OFFCURVE",
"279 38 CURVE SMOOTH",
"354 38 OFFCURVE",
"405 72 OFFCURVE",
"434 141 CURVE",
"476 113 LINE",
"444 37 OFFCURVE",
"373 -12 OFFCURVE",
"276 -12 CURVE SMOOTH"
);
},
{
closed = 1;
nodes = (
"226 476 OFFCURVE",
"185 457 OFFCURVE",
"157 425 CURVE SMOOTH",
"128 393 OFFCURVE",
"112 347 OFFCURVE",
"112 294 CURVE SMOOTH",
"112 289 LINE",
"429 289 LINE",
"429 297 LINE SMOOTH",
"429 350 OFFCURVE",
"414 396 OFFCURVE",
"387 427 CURVE SMOOTH",
"359 458 OFFCURVE",
"320 476 OFFCURVE",
"275 476 CURVE SMOOTH"
);
},
{
closed = 1;
nodes = (
"195 754 LINE",
"315 754 LINE SMOOTH",
"352 754 OFFCURVE",
"366 737 OFFCURVE",
"366 714 CURVE SMOOTH",
"366 693 OFFCURVE",
"354 667 OFFCURVE",
"325 628 CURVE SMOOTH",
"291 580 LINE",
"256 597 LINE",
"322 710 LINE",
"195 710 LINE"
);
}
);
width = 543;
}
);
leftKerningGroup = c;
rightKerningGroup = e;
unicode = 1EBB;
},
{
glyphname = emacron;
layers = (
{
layerId = "5AF1D23B-5AA5-4E46-9E7A-B01C8844A7CF";
name = Light;
paths = (
{
closed = 1;
nodes = (
"208 -12 OFFCURVE",
"152 13 OFFCURVE",
"113 59 CURVE SMOOTH",
"73 105 OFFCURVE",
"52 172 OFFCURVE",
"52 256 CURVE SMOOTH",
"52 340 OFFCURVE",
"73 407 OFFCURVE",
"113 453 CURVE SMOOTH",
"152 499 OFFCURVE",
"207 524 OFFCURVE",
"275 524 CURVE SMOOTH",
"340 524 OFFCURVE",
"395 498 OFFCURVE",
"432 454 CURVE SMOOTH",
"469 410 OFFCURVE",
"491 347 OFFCURVE",
"491 272 CURVE SMOOTH",
"491 245 LINE",
"112 245 LINE",
"112 220 LINE SMOOTH",
"112 167 OFFCURVE",
"128 121 OFFCURVE",
"157 89 CURVE SMOOTH",
"185 57 OFFCURVE",
"227 38 OFFCURVE",
"279 38 CURVE SMOOTH",
"354 38 OFFCURVE",
"405 72 OFFCURVE",
"434 141 CURVE",
"476 113 LINE",
"444 37 OFFCURVE",
"373 -12 OFFCURVE",
"276 -12 CURVE SMOOTH"
);
},
{
closed = 1;
nodes = (
"226 476 OFFCURVE",
"185 457 OFFCURVE",
"157 425 CURVE SMOOTH",
"128 393 OFFCURVE",
"112 347 OFFCURVE",
"112 294 CURVE SMOOTH",
"112 289 LINE",
"429 289 LINE",
"429 297 LINE SMOOTH",
"429 350 OFFCURVE",
"414 396 OFFCURVE",
"387 427 CURVE SMOOTH",
"359 458 OFFCURVE",
"320 476 OFFCURVE",
"275 476 CURVE SMOOTH"
);
},
{
closed = 1;
nodes = (
"140 694 LINE",
"412 694 LINE",
"412 645 LINE",
"140 645 LINE"
);
}
);
width = 543;
}
);
leftKerningGroup = c;
rightKerningGroup = e;
unicode = 0113;
},
{
glyphname = eogonek;
layers = (
{
layerId = "5AF1D23B-5AA5-4E46-9E7A-B01C8844A7CF";
name = Light;
paths = (
{
closed = 1;
nodes = (
"290 -205 OFFCURVE",
"251 -182 OFFCURVE",
"251 -131 CURVE SMOOTH",
"251 -80 OFFCURVE",
"289 -40 OFFCURVE",
"349 -3 CURVE",
"346 1 LINE",
"329 -6 OFFCURVE",
"307 -12 OFFCURVE",
"276 -12 CURVE SMOOTH",
"208 -12 OFFCURVE",
"152 13 OFFCURVE",
"113 59 CURVE SMOOTH",
"73 105 OFFCURVE",
"52 172 OFFCURVE",
"52 256 CURVE SMOOTH",
"52 340 OFFCURVE",
"73 407 OFFCURVE",
"113 453 CURVE SMOOTH",
"152 499 OFFCURVE",
"207 524 OFFCURVE",
"275 524 CURVE SMOOTH",
"340 524 OFFCURVE",
"395 498 OFFCURVE",
"432 454 CURVE SMOOTH",
"469 410 OFFCURVE",
"491 347 OFFCURVE",
"491 272 CURVE SMOOTH",
"491 245 LINE",
"112 245 LINE",
"112 220 LINE SMOOTH",
"112 167 OFFCURVE",
"128 121 OFFCURVE",
"157 89 CURVE SMOOTH",
"185 57 OFFCURVE",
"227 38 OFFCURVE",
"279 38 CURVE SMOOTH",
"354 38 OFFCURVE",
"405 72 OFFCURVE",
"434 141 CURVE",
"476 113 LINE",
"463 82 OFFCURVE",
"444 57 OFFCURVE",
"421 38 CURVE",
"393 13 OFFCURVE",
"362 -14 OFFCURVE",
"339 -41 CURVE SMOOTH",
"315 -68 OFFCURVE",
"298 -96 OFFCURVE",
"298 -125 CURVE SMOOTH",
"298 -154 OFFCURVE",
"315 -165 OFFCURVE",
"340 -165 CURVE SMOOTH",
"364 -165 OFFCURVE",
"382 -156 OFFCURVE",
"393 -141 CURVE",
"422 -169 LINE",
"410 -189 OFFCURVE",
"382 -205 OFFCURVE",
"339 -205 CURVE SMOOTH"
);
},
{
closed = 1;
nodes = (
"429 289 LINE",
"429 297 LINE SMOOTH",
"429 350 OFFCURVE",
"414 396 OFFCURVE",
"387 427 CURVE SMOOTH",
"359 458 OFFCURVE",
"320 476 OFFCURVE",
"275 476 CURVE SMOOTH",
"226 476 OFFCURVE",
"185 457 OFFCURVE",
"157 425 CURVE SMOOTH",
"128 393 OFFCURVE",
"112 347 OFFCURVE",
"112 294 CURVE SMOOTH",
"112 289 LINE"
);
}
);
width = 543;
}
);
leftKerningGroup = c;
rightKerningGroup = e;
unicode = 0119;
},
{
glyphname = uni1EBD;
layers = (
{
layerId = "5AF1D23B-5AA5-4E46-9E7A-B01C8844A7CF";
name = Light;
paths = (
{
closed = 1;
nodes = (
"208 -12 OFFCURVE",
"152 13 OFFCURVE",
"113 59 CURVE SMOOTH",
"73 105 OFFCURVE",
"52 172 OFFCURVE",
"52 256 CURVE SMOOTH",
"52 340 OFFCURVE",
"73 407 OFFCURVE",
"113 453 CURVE SMOOTH",
"152 499 OFFCURVE",
"207 524 OFFCURVE",
"275 524 CURVE SMOOTH",
"340 524 OFFCURVE",
"395 498 OFFCURVE",
"432 454 CURVE SMOOTH",
"469 410 OFFCURVE",
"491 347 OFFCURVE",
"491 272 CURVE SMOOTH",
"491 245 LINE",
"112 245 LINE",
"112 220 LINE SMOOTH",
"112 167 OFFCURVE",
"128 121 OFFCURVE",
"157 89 CURVE SMOOTH",
"185 57 OFFCURVE",
"227 38 OFFCURVE",
"279 38 CURVE SMOOTH",
"354 38 OFFCURVE",
"405 72 OFFCURVE",
"434 141 CURVE",
"476 113 LINE",
"444 37 OFFCURVE",
"373 -12 OFFCURVE",
"276 -12 CURVE SMOOTH"
);
},
{
closed = 1;
nodes = (
"226 476 OFFCURVE",
"185 457 OFFCURVE",
"157 425 CURVE SMOOTH",
"128 393 OFFCURVE",
"112 347 OFFCURVE",
"112 294 CURVE SMOOTH",
"112 289 LINE",
"429 289 LINE",
"429 297 LINE SMOOTH",
"429 350 OFFCURVE",
"414 396 OFFCURVE",
"387 427 CURVE SMOOTH",
"359 458 OFFCURVE",
"320 476 OFFCURVE",
"275 476 CURVE SMOOTH"
);
},
{
closed = 1;
nodes = (
"317 618 OFFCURVE",
"296 630 OFFCURVE",
"269 646 CURVE SMOOTH",
"238 665 OFFCURVE",
"220 671 OFFCURVE",
"201 671 CURVE SMOOTH",
"178 671 OFFCURVE",
"161 660 OFFCURVE",
"140 641 CURVE",
"115 670 LINE",
"136 697 OFFCURVE",
"165 718 OFFCURVE",
"204 718 CURVE SMOOTH",
"235 718 OFFCURVE",
"256 706 OFFCURVE",
"283 690 CURVE SMOOTH",
"314 671 OFFCURVE",
"332 665 OFFCURVE",
"351 665 CURVE SMOOTH",
"374 665 OFFCURVE",
"391 676 OFFCURVE",
"412 695 CURVE",
"437 666 LINE",
"416 639 OFFCURVE",
"387 618 OFFCURVE",
"348 618 CURVE SMOOTH"
);
}
);
width = 543;
}
);
leftKerningGroup = c;
rightKerningGroup = e;
unicode = 1EBD;
},
{
glyphname = uni1EBF;
layers = (
{
layerId = "5AF1D23B-5AA5-4E46-9E7A-B01C8844A7CF";
name = Light;
paths = (
{
closed = 1;
nodes = (
"208 -12 OFFCURVE",
"152 13 OFFCURVE",
"113 59 CURVE SMOOTH",
"73 105 OFFCURVE",
"52 172 OFFCURVE",
"52 256 CURVE SMOOTH",
"52 340 OFFCURVE",
"73 407 OFFCURVE",
"113 453 CURVE SMOOTH",
"152 499 OFFCURVE",
"207 524 OFFCURVE",
"275 524 CURVE SMOOTH",
"340 524 OFFCURVE",
"395 498 OFFCURVE",
"432 454 CURVE SMOOTH",
"469 410 OFFCURVE",
"491 347 OFFCURVE",
"491 272 CURVE SMOOTH",
"491 245 LINE",
"112 245 LINE",
"112 220 LINE SMOOTH",
"112 167 OFFCURVE",
"128 121 OFFCURVE",
"157 89 CURVE SMOOTH",
"185 57 OFFCURVE",
"227 38 OFFCURVE",
"279 38 CURVE SMOOTH",
"354 38 OFFCURVE",
"405 72 OFFCURVE",
"434 141 CURVE",
"476 113 LINE",
"444 37 OFFCURVE",
"373 -12 OFFCURVE",
"276 -12 CURVE SMOOTH"
);
},
{
closed = 1;
nodes = (
"226 476 OFFCURVE",
"185 457 OFFCURVE",
"157 425 CURVE SMOOTH",
"128 393 OFFCURVE",
"112 347 OFFCURVE",
"112 294 CURVE SMOOTH",
"112 289 LINE",
"429 289 LINE",
"429 297 LINE SMOOTH",
"429 350 OFFCURVE",
"414 396 OFFCURVE",
"387 427 CURVE SMOOTH",
"359 458 OFFCURVE",
"320 476 OFFCURVE",
"275 476 CURVE SMOOTH"
);
},
{
closed = 1;
nodes = (
"413 698 LINE",
"378 716 LINE",
"473 879 LINE",
"523 854 LINE"
);
},
{
closed = 1;
nodes = (
"310 741 LINE",
"427 607 LINE",
"397 585 LINE",
"275 703 LINE",
"153 585 LINE",
"123 607 LINE",
"240 741 LINE"
);
}
);
width = 543;
}
);
leftKerningGroup = c;
rightKerningGroup = e;
unicode = 1EBF;
},
